<svg width="18" height="16" viewBox="0 0 18 16"  xmlns="http://www.w3.org/2000/svg">
<path fill-rule="evenodd" clip-rule="evenodd" d="M18 2.33842C17.3382 2.6324 16.6261 2.83038 15.8791 2.91978C16.6417 2.46261 17.2273 1.73906 17.5026 0.876914C16.7899 1.30049 15.9985 1.60707 15.158 1.77326C14.4842 1.0557 13.5237 0.606934 12.4624 0.606934C10.4231 0.606934 8.76961 2.26042 8.76961 4.29969C8.76961 4.58887 8.80261 4.87085 8.86561 5.14143C5.79621 4.98784 3.0754 3.51734 1.25392 1.28309C0.935938 1.82845 0.75415 2.46261 0.75415 3.13937C0.75415 4.42028 1.40511 5.55061 2.39684 6.21296C1.79088 6.19377 1.22212 6.02757 0.72355 5.75099V5.79719C0.72355 7.58687 1.99727 9.07897 3.68555 9.41915C3.37597 9.50314 3.0496 9.54874 2.71302 9.54874C2.47483 9.54874 2.24325 9.52534 2.01766 9.48214C2.48743 10.949 3.85174 12.017 5.46744 12.047C4.20392 13.0369 2.61162 13.6279 0.88134 13.6279C0.58256 13.6279 0.288581 13.6105 0 13.5757C1.63429 14.6232 3.57516 15.2352 5.66062 15.2352C12.4528 15.2352 16.1671 9.60813 16.1671 4.72866C16.1671 4.56847 16.1641 4.40888 16.1563 4.25109C16.8787 3.72913 17.505 3.07877 18 2.33842Z" />
</svg>
