<svg width="192" height="215" viewBox="0 0 192 215" fill="none" xmlns="http://www.w3.org/2000/svg">
<g clip-path="url(#clip0_1623_13042)">
<path d="M182.968 202.208C181.771 202.628 180.486 202.733 179.237 202.514C177.987 202.294 176.816 201.757 175.835 200.953C173.336 198.859 172.552 195.41 171.915 192.215L170.03 182.767L173.977 185.481C176.815 187.432 179.718 189.446 181.683 192.273C183.648 195.1 184.506 198.959 182.927 202.018" fill="#E6E6E6"/>
<path d="M182.63 213.648C183.029 210.742 183.44 207.8 183.16 204.863C182.911 202.255 182.115 199.707 180.492 197.618C179.631 196.512 178.583 195.563 177.396 194.816C177.086 194.622 176.801 195.111 177.109 195.306C179.164 196.602 180.753 198.517 181.647 200.773C182.636 203.283 182.794 206.018 182.623 208.684C182.52 210.296 182.301 211.897 182.081 213.497C182.064 213.57 182.074 213.646 182.111 213.711C182.148 213.776 182.208 213.824 182.28 213.846C182.352 213.865 182.43 213.855 182.495 213.818C182.56 213.781 182.608 213.72 182.629 213.648L182.63 213.648Z" fill="#F2F2F2"/>
<path d="M168.326 165.386H3.20215V0.5H168.326V165.386Z" fill="white"/>
<path d="M168.326 165.386H3.20215V0.5H168.326V165.386ZM5.64182 162.949H165.886V2.93617H5.64182V162.949Z" fill="#E5E5E5"/>
<path d="M139.074 26.2959H67.5684V28.5201H139.074V26.2959Z" fill="#E5E5E5"/>
<path d="M139.074 32.0781H67.5684V34.3024H139.074V32.0781Z" fill="#E5E5E5"/>
<path d="M139.074 37.8623H67.5684V40.0865H139.074V37.8623Z" fill="#E5E5E5"/>
<path d="M139.074 75.9541H67.5684V78.1783H139.074V75.9541Z" fill="#E5E5E5"/>
<path d="M139.074 81.7363H67.5684V83.9606H139.074V81.7363Z" fill="#E5E5E5"/>
<path d="M139.074 87.5205H67.5684V89.7447H139.074V87.5205Z" fill="#E5E5E5"/>
<path d="M139.074 125.611H67.5684V127.836H139.074V125.611Z" fill="#E5E5E5"/>
<path d="M139.074 131.394H67.5684V133.618H139.074V131.394Z" fill="#E5E5E5"/>
<path d="M139.074 137.177H67.5684V139.401H139.074V137.177Z" fill="#E5E5E5"/>
<path d="M38.9425 44.0178C37.721 43.375 36.4459 42.8392 35.1316 42.4163L34.9641 40.5652L28.1676 39.834L27.3038 42.2001L24.8647 43.1141C24.7774 43.1471 24.6943 43.1903 24.6171 43.2428H24.6145C24.4784 43.3347 24.3625 43.4533 24.2738 43.5914C24.1851 43.7295 24.1256 43.8842 24.0988 44.0461C24.0728 44.207 24.0789 44.3716 24.117 44.5301L24.2459 45.0579C24.4315 45.1686 24.6223 45.2742 24.813 45.3746L24.9343 45.4364C25.2128 45.5806 25.4964 45.717 25.7877 45.8432C25.847 45.8689 25.9115 45.8947 25.9708 45.9204C25.9759 45.923 25.9785 45.923 25.9836 45.9256C26.1204 45.9822 26.2569 46.0363 26.3962 46.0878C26.8536 46.2622 27.3201 46.4118 27.7936 46.5358C29.0023 46.8575 30.2479 47.0202 31.4988 47.0198C31.9552 47.0198 32.4064 46.9992 32.8524 46.9555C33.8716 46.8615 34.8778 46.6587 35.8537 46.3504C35.8562 46.3504 35.8588 46.3478 35.8613 46.3478C36.4778 46.1517 37.08 45.9134 37.6637 45.6347C37.6662 45.6321 37.6714 45.6321 37.674 45.6295C37.8054 45.5677 37.9318 45.5008 38.0608 45.4364L38.1226 45.4055C38.2257 45.3514 38.3289 45.2974 38.432 45.2407C38.6899 45.0991 38.9425 44.9498 39.1926 44.7902C39.2622 44.749 39.3293 44.7052 39.3989 44.6589C39.4969 44.5945 39.5948 44.5275 39.6902 44.458C39.4504 44.3036 39.2004 44.1568 38.9425 44.0178Z" fill="#EEEAE5"/>
<path d="M26.1874 45.1583L25.762 43.2402H24.6507C24.6395 43.2404 24.6283 43.2412 24.6172 43.2428H24.6146C24.2152 43.2766 23.8306 43.4093 23.4956 43.629C23.2684 43.7738 23.0663 43.9547 22.8975 44.1645C23.2274 44.4143 23.5704 44.646 23.9236 44.8674L23.9391 44.8751C24.0396 44.9369 24.1428 44.9987 24.246 45.0579C24.4315 45.1686 24.6224 45.2742 24.8131 45.3746L24.9344 45.4364C25.2128 45.5806 25.4965 45.717 25.7878 45.8432C25.8471 45.8689 25.9116 45.8947 25.9709 45.9204C25.976 45.923 25.9785 45.923 25.9837 45.9256C26.1204 45.9822 26.257 46.0363 26.3963 46.0878L26.1874 45.1583Z" fill="#EEEAE5"/>
<path d="M31.2992 38.6634C34.0026 38.6634 36.1941 36.475 36.1941 33.7756C36.1941 31.0761 34.0026 28.8877 31.2992 28.8877C28.5958 28.8877 26.4043 31.0761 26.4043 33.7756C26.4043 36.475 28.5958 38.6634 31.2992 38.6634Z" fill="#FFB8B8"/>
<path d="M28.0129 31.3953C28.5196 31.9941 29.3772 32.163 30.1682 32.2323C32.0176 32.3343 33.8723 32.1831 35.6807 31.7828C35.7927 32.8673 35.4872 34.0366 36.1269 34.9287C36.4268 33.8487 36.6011 32.7378 36.6466 31.618C36.6943 31.1375 36.6315 30.6525 36.4629 30.2C36.3727 29.9732 36.2207 29.7762 36.024 29.6315C35.8273 29.4867 35.5939 29.3999 35.3503 29.3809C35.715 29.1047 36.1422 28.9223 36.5941 28.85L35.0399 28.07L35.439 27.6609L32.6251 27.4889L33.4402 26.9719C32.2135 26.8036 30.9726 26.7645 29.7377 26.8552C29.1607 26.8554 28.5946 27.0126 28.1002 27.3097C27.6356 27.6415 27.3671 28.3008 27.6556 28.7879C27.2945 28.8471 26.9545 28.9974 26.6678 29.2245C26.3812 29.4517 26.1573 29.7481 26.0175 30.0858C25.8407 30.6225 25.798 31.1943 25.8932 31.7512C25.9992 32.6449 26.2072 33.5235 26.5131 34.3699L28.0129 31.3953Z" fill="#316146"/>
<path d="M45.0631 28.4765C44.3763 26.5064 43.2674 24.7095 41.8138 23.2113C40.3601 21.7131 38.5966 20.5495 36.6463 19.8017C34.696 19.054 32.6058 18.74 30.5215 18.8818C28.4373 19.0235 26.409 19.6176 24.5783 20.6225C22.7475 21.6274 21.1584 23.019 19.9215 24.7003C18.6847 26.3815 17.8301 28.3119 17.4172 30.3568C17.0042 32.4018 17.043 34.5121 17.5308 36.5405C18.0185 38.569 18.9435 40.4668 20.2412 42.1015C20.3702 42.2638 20.5042 42.426 20.641 42.583C20.6513 42.5933 20.659 42.6036 20.6693 42.6139C21.0054 43.0006 21.3626 43.3685 21.7393 43.7158C21.8373 43.806 21.9405 43.8986 22.0436 43.9862C22.2395 44.1613 22.4406 44.3286 22.6495 44.4882C22.732 44.5526 22.8119 44.617 22.897 44.6788C23.227 44.9285 23.5699 45.1602 23.9232 45.3816L23.9387 45.3894C24.0392 45.4512 24.1424 45.513 24.2455 45.5722C24.4311 45.6829 24.6219 45.7884 24.8127 45.8888L24.9339 45.9506C25.2124 46.0948 25.496 46.2313 25.7874 46.3574C25.8467 46.3832 25.9111 46.4089 25.9704 46.4347C25.9756 46.4373 25.9781 46.4372 25.9833 46.4398C26.12 46.4965 26.2566 46.5505 26.3958 46.602C26.8532 46.7765 27.3197 46.926 27.7933 47.05C29.002 47.3717 30.2475 47.5344 31.4984 47.5341C31.9548 47.5341 32.406 47.5134 32.852 47.4697C33.8712 47.3757 34.8774 47.1729 35.8533 46.8646C35.8558 46.8646 35.8585 46.8621 35.861 46.8621C36.4774 46.666 37.0796 46.4277 37.6633 46.1489C37.6658 46.1463 37.671 46.1463 37.6736 46.1438C37.8051 46.082 37.9315 46.015 38.0604 45.9506L38.1222 45.9197C38.2253 45.8657 38.3285 45.8116 38.4317 45.755C38.6895 45.6134 38.9422 45.464 39.1922 45.3044C39.2618 45.2632 39.3289 45.2194 39.3985 45.1731C39.4965 45.1087 39.5944 45.0418 39.6899 44.9723C39.8161 44.8847 39.9425 44.7946 40.0663 44.7019C40.1049 44.6736 40.1462 44.6453 40.1849 44.6144C42.6005 42.7836 44.3735 40.236 45.2499 37.3369C46.1262 34.4379 46.0608 31.3362 45.0631 28.4765V28.4765ZM39.7105 43.9887C39.6254 44.0557 39.5378 44.1201 39.45 44.1793C39.3649 44.2437 39.2799 44.3054 39.1922 44.3621C39.1174 44.4161 39.0426 44.4676 38.9653 44.5166L38.9422 44.532C38.8854 44.5706 38.8287 44.6067 38.772 44.6427C38.5579 44.7766 38.3413 44.9053 38.1222 45.0289L38.0526 45.0675C37.9546 45.1216 37.8567 45.1731 37.7587 45.2246C37.7458 45.2323 37.7303 45.2375 37.7175 45.2452L37.702 45.2529C37.5782 45.3173 37.4518 45.3791 37.3255 45.4383C36.838 45.6727 36.3359 45.8757 35.8223 46.0459C35.7552 46.0691 35.6883 46.0923 35.6213 46.1128C34.6976 46.4062 33.745 46.5996 32.7799 46.6896C32.357 46.7282 31.929 46.7488 31.4984 46.7488C30.3153 46.7512 29.1371 46.5971 27.9945 46.2905C27.4081 46.1377 26.8334 45.9432 26.2747 45.7086C26.2463 45.6957 26.2153 45.6855 26.187 45.6726C26.1561 45.6597 26.1277 45.6494 26.0993 45.6365C26.0684 45.6237 26.04 45.6108 26.0091 45.5954C25.7667 45.4898 25.5269 45.3739 25.2923 45.2529L25.1789 45.1937C24.8926 45.0444 24.6116 44.8847 24.3383 44.7148C24.2583 44.6659 24.1759 44.6144 24.0985 44.5603C24.0779 44.5475 24.0598 44.5346 24.0392 44.5217C23.8561 44.4007 23.6731 44.2745 23.4952 44.1432C23.3741 44.0531 23.2528 43.963 23.1342 43.8703C22.9357 43.721 22.7448 43.5614 22.5592 43.3966C22.4613 43.3142 22.3659 43.2241 22.2731 43.1391C21.9075 42.8021 21.5614 42.4445 21.2366 42.0681C21.1283 41.9445 21.0226 41.8209 20.922 41.6922C20.8991 41.6667 20.8776 41.6401 20.8575 41.6124C19.1823 39.5015 18.1746 36.9401 17.9631 34.2551C17.7516 31.57 18.3457 28.8828 19.6698 26.5363C20.9939 24.1898 22.9879 22.2902 25.3974 21.0799C27.807 19.8696 30.523 19.4034 33.1991 19.7407C35.8751 20.078 38.3899 21.2036 40.4227 22.9739C42.4555 24.7441 43.9142 27.0789 44.6128 29.6804C45.3114 32.2818 45.2182 35.0321 44.3451 37.5805C43.472 40.1288 41.8585 42.3598 39.7105 43.9888L39.7105 43.9887Z" fill="#EEEAE5"/>
<path d="M45.0631 78.1338C44.3763 76.1636 43.2674 74.3668 41.8137 72.8685C40.3601 71.3703 38.5966 70.2067 36.6463 69.459C34.696 68.7112 32.6058 68.3973 30.5216 68.539C28.4373 68.6808 26.409 69.2748 24.5783 70.2797C22.7475 71.2847 21.1584 72.6762 19.9215 74.3575C18.6847 76.0387 17.8301 77.9691 17.4172 80.014C17.0042 82.059 17.043 84.1693 17.5308 86.1977C18.0185 88.2262 18.9435 90.124 20.2412 91.7588C20.3701 91.921 20.5042 92.0832 20.6408 92.2402C20.6511 92.2505 20.6588 92.2608 20.6692 92.2711C21.0053 92.6578 21.3626 93.0257 21.7393 93.3731C21.8372 93.4632 21.9403 93.5559 22.0434 93.6434C22.2395 93.8185 22.4405 93.9858 22.6494 94.1455C23.0572 94.4664 23.4824 94.7647 23.9231 95.0388L23.9386 95.0466C24.2247 95.2242 24.516 95.389 24.8127 95.5461L24.9338 95.6079C25.2123 95.752 25.4959 95.8885 25.7872 96.0146C25.8465 96.0404 25.911 96.0661 25.9703 96.0919C25.9754 96.0945 25.9781 96.0945 25.9832 96.097C26.5719 96.3415 27.1767 96.5454 27.7933 96.7072C29.0019 97.0289 30.2474 97.1916 31.4983 97.1913C31.9546 97.1913 32.4059 97.1707 32.8519 97.1269C33.8711 97.0329 34.8773 96.8301 35.8532 96.5219C35.8558 96.5219 35.8583 96.5193 35.8608 96.5193C36.4773 96.3232 37.0795 96.0849 37.6632 95.8061C37.6657 95.8035 37.671 95.8035 37.6735 95.801C37.8049 95.7392 37.9313 95.6722 38.0602 95.6078L38.1222 95.577C38.2253 95.5229 38.3284 95.4688 38.4315 95.4122C38.6894 95.2706 38.942 95.1212 39.1922 94.9616C39.2618 94.9204 39.3288 94.8766 39.3984 94.8303C39.6253 94.681 39.8496 94.5213 40.0662 94.3591C40.1049 94.3308 40.1461 94.3025 40.1849 94.2716C42.6004 92.4407 44.3734 89.8931 45.2497 86.9941C46.126 84.0951 46.0607 80.9934 45.0631 78.1337V78.1338Z" fill="white"/>
<path d="M36.2386 88.7611C37.4275 88.7611 38.3913 87.7987 38.3913 86.6115C38.3913 85.4243 37.4275 84.4619 36.2386 84.4619C35.0497 84.4619 34.0859 85.4243 34.0859 86.6115C34.0859 87.7987 35.0497 88.7611 36.2386 88.7611Z" fill="#316146"/>
<path d="M36.8388 84.5208C37.2114 84.5208 37.5776 84.6174 37.9016 84.8011C38.2256 84.9847 38.4963 85.2492 38.6873 85.5687C38.8783 85.8881 38.983 86.2516 38.9911 86.6236C38.9993 86.9955 38.9106 87.3632 38.7338 87.6907C38.9204 87.4575 39.0563 87.1881 39.1329 86.8996C39.2094 86.6111 39.2249 86.3098 39.1785 86.015C39.132 85.7202 39.0245 85.4382 38.8629 85.1872C38.7012 84.9361 38.489 84.7214 38.2397 84.5568C37.9904 84.3921 37.7095 84.2811 37.4149 84.2309C37.1203 84.1806 36.8184 84.1922 36.5285 84.2649C36.2386 84.3375 35.967 84.4697 35.7311 84.653C35.4952 84.8362 35.3001 85.0666 35.1582 85.3293C35.3594 85.077 35.6151 84.8732 35.9061 84.7333C36.1971 84.5933 36.516 84.5207 36.839 84.5208L36.8388 84.5208Z" fill="#316146"/>
<path d="M32.2163 86.6067C35.7087 86.6067 38.54 83.7795 38.54 80.2921C38.54 76.8047 35.7087 73.9775 32.2163 73.9775C28.7238 73.9775 25.8926 76.8047 25.8926 80.2921C25.8926 83.7795 28.7238 86.6067 32.2163 86.6067Z" fill="#316146"/>
<path d="M27.2533 76.3748C28.3429 75.1512 29.866 74.3981 31.5011 74.2745C33.1362 74.151 34.7555 74.6666 36.0171 75.7126C35.9655 75.6634 35.9139 75.614 35.8606 75.5664C34.6114 74.4489 32.9688 73.8727 31.2942 73.9646C29.6196 74.0565 28.0501 74.8088 26.931 76.0562C25.8119 77.3036 25.2349 78.9438 25.3269 80.616C25.4189 82.2882 26.1724 83.8555 27.4216 84.9729C27.4336 84.9837 27.4456 84.9944 27.4577 85.005C27.5113 85.0526 27.5665 85.0977 27.6214 85.1433C26.4334 84.0147 25.7309 82.4693 25.6623 80.8333C25.5936 79.1973 26.1642 77.5987 27.2535 76.3748L27.2533 76.3748Z" fill="#316146"/>
<path d="M32.1626 86.5528C34.412 86.5528 36.2354 84.732 36.2354 82.4859C36.2354 80.2398 34.412 78.4189 32.1626 78.4189C29.9133 78.4189 28.0898 80.2398 28.0898 82.4859C28.0898 84.732 29.9133 86.5528 32.1626 86.5528Z" fill="#A0616A"/>
<path d="M39.4508 93.0834V94.4479C39.2006 94.6076 38.9479 94.7569 38.6901 94.8985C38.587 94.9551 38.4839 95.0092 38.3808 95.0633L38.3188 95.0942C38.1899 95.1586 38.0635 95.2255 37.9321 95.2873C37.9296 95.2899 37.9243 95.2899 37.9218 95.2924C37.3381 95.5712 36.7359 95.8095 36.1194 96.0056C36.1169 96.0056 36.1144 96.0082 36.1117 96.0082C35.1359 96.3164 34.1297 96.5193 33.1105 96.6132C32.6644 96.657 32.2132 96.6776 31.7569 96.6776C30.506 96.6779 29.2605 96.5152 28.0519 96.1936C27.4353 96.0317 26.8305 95.8278 26.2418 95.5834C26.2367 95.5808 26.234 95.5808 26.2289 95.5782C26.1696 95.5525 26.1051 95.5267 26.0458 95.501C25.7545 95.3748 25.4708 95.2384 25.1924 95.0942L25.0712 95.0324C24.7746 94.8753 24.4833 94.7106 24.1971 94.5329L24.1817 94.5252C23.741 94.251 23.3158 93.9527 22.908 93.6318C22.6991 93.4722 22.4981 93.3048 22.302 93.1297C22.1989 93.0422 22.0958 92.9495 21.9979 92.8594C21.6212 92.512 21.2639 92.1441 20.9277 91.7575C20.9723 91.4893 21.0379 91.225 21.1238 90.967L21.1263 90.9645C21.1417 90.9205 21.1598 90.8775 21.1804 90.8357C21.1946 90.7988 21.211 90.7627 21.2294 90.7276C21.6909 89.8651 22.5264 89.6514 23.5629 89.6051C24.1482 89.5793 24.7953 89.6076 25.4787 89.5999C25.8396 89.5973 26.2134 89.5845 26.5873 89.551C28.9465 89.3373 28.5186 87.947 28.6242 87.1978C28.7299 86.4717 29.3849 87.1 29.4287 87.1411L29.4312 87.1437C30.7662 87.7676 32.2433 88.0262 33.7113 87.8929C33.964 87.862 34.2166 87.844 34.4693 87.8363C35.1345 87.8286 34.9901 88.0191 34.7608 88.1762C34.6494 88.2493 34.5331 88.3147 34.4127 88.3718C34.4127 88.3718 34.3069 89.0155 34.1986 89.9784C34.0955 90.9001 35.8643 91.3327 36.0112 91.3661C36.0142 91.3681 36.0179 91.3691 36.0215 91.3687C36.6674 91.2014 37.3475 91.2193 37.9837 91.4202H37.9862C38.3498 91.5537 38.6741 91.7757 38.9299 92.0662C39.1857 92.3566 39.3647 92.7063 39.4508 93.0834Z" fill="#CFD762"/>
<path d="M26.2676 94.7378C26.2676 94.9283 26.2625 95.1111 26.2547 95.2836C26.2522 95.3866 26.2471 95.487 26.2419 95.5823C26.2367 95.5797 26.2341 95.5797 26.2289 95.5771C26.1696 95.5514 26.1052 95.5256 26.0459 95.4999C25.7545 95.3737 25.4709 95.2373 25.1924 95.0931L25.0713 95.0313C24.7747 94.8742 24.4834 94.7095 24.1972 94.5318C24.2049 94.4417 24.2179 94.3516 24.2307 94.2615C24.259 94.0632 24.2823 93.8624 24.2978 93.6642C24.3992 92.2714 24.1464 90.8756 23.5629 89.6065V89.6039C23.5113 89.5009 23.4805 89.4443 23.4805 89.4443C23.4805 89.4443 24.2307 88.8006 25.3007 89.4443C25.369 89.4844 25.4294 89.5368 25.4787 89.5988C26.1233 90.3583 26.2985 92.9123 26.2676 94.7378Z" fill="#316146"/>
<path d="M37.9757 94.3881C37.9654 94.6765 37.9499 94.9777 37.9319 95.2841V95.2867C37.9294 95.2893 37.9241 95.2893 37.9216 95.2918C37.3379 95.5706 36.7357 95.8089 36.1192 96.005C36.1167 96.005 36.1142 96.0076 36.1115 96.0076L36.0832 95.2841L36.0806 95.1888L35.944 91.6667C35.9403 91.587 35.9529 91.5074 35.9809 91.4326C36.0089 91.3579 36.0518 91.2896 36.107 91.2318C36.1622 91.1741 36.2285 91.1281 36.302 91.0966C36.3754 91.0652 36.4545 91.0489 36.5344 91.0488H37.8416C37.9061 91.0488 37.9525 91.1801 37.9835 91.417V91.4196C38.0469 92.4082 38.0443 93.3999 37.9757 94.3881Z" fill="#316146"/>
<path d="M28.6787 77.4033V81.4712H29.6219L30.8221 80.187L30.6615 81.4712H34.8307L34.5729 80.187L35.0885 81.4712H35.7532V77.4033H28.6787Z" fill="#316146"/>
<path d="M28.0364 82.2201C28.2139 82.2201 28.3579 81.9566 28.3579 81.6315C28.3579 81.3065 28.2139 81.043 28.0364 81.043C27.8588 81.043 27.7148 81.3065 27.7148 81.6315C27.7148 81.9566 27.8588 82.2201 28.0364 82.2201Z" fill="#A0616A"/>
<path d="M36.2893 82.2201C36.4669 82.2201 36.6108 81.9566 36.6108 81.6315C36.6108 81.3065 36.4669 81.043 36.2893 81.043C36.1117 81.043 35.9678 81.3065 35.9678 81.6315C35.9678 81.9566 36.1117 82.2201 36.2893 82.2201Z" fill="#A0616A"/>
<path d="M40.3248 93.8441C40.1083 94.0063 39.8839 94.1659 39.6571 94.3152C39.5874 94.3616 39.5205 94.4053 39.4508 94.4465C39.2007 94.6062 38.948 94.7555 38.6902 94.8971C38.5871 94.9537 38.484 95.0078 38.3809 95.0619V92.2246C38.3809 92.2246 38.7933 92.5542 39.4508 93.1026C39.5333 93.1721 39.6184 93.2442 39.7087 93.3214C39.8994 93.481 40.1057 93.6561 40.3248 93.8441Z" fill="#CFD762"/>
<path d="M45.0631 78.1338C44.3763 76.1636 43.2674 74.3668 41.8137 72.8685C40.3601 71.3703 38.5966 70.2067 36.6463 69.459C34.696 68.7112 32.6058 68.3973 30.5216 68.539C28.4373 68.6808 26.409 69.2748 24.5783 70.2797C22.7475 71.2847 21.1584 72.6762 19.9215 74.3575C18.6847 76.0387 17.8301 77.9691 17.4172 80.014C17.0042 82.059 17.043 84.1693 17.5308 86.1977C18.0185 88.2262 18.9435 90.124 20.2412 91.7588C20.3701 91.921 20.5042 92.0832 20.6408 92.2402C20.6511 92.2505 20.6588 92.2608 20.6692 92.2711C21.0053 92.6578 21.3626 93.0257 21.7393 93.3731C21.8372 93.4632 21.9403 93.5559 22.0434 93.6434C22.2395 93.8185 22.4405 93.9858 22.6494 94.1455C23.0572 94.4664 23.4824 94.7647 23.9231 95.0388L23.9386 95.0466C24.2247 95.2242 24.516 95.389 24.8127 95.5461L24.9338 95.6079C25.2123 95.752 25.4959 95.8885 25.7872 96.0146C25.8465 96.0404 25.911 96.0661 25.9703 96.0919C25.9754 96.0945 25.9781 96.0945 25.9832 96.097C26.5719 96.3415 27.1767 96.5454 27.7933 96.7072C29.0019 97.0289 30.2474 97.1916 31.4983 97.1913C31.9546 97.1913 32.4059 97.1707 32.8519 97.1269C33.8711 97.0329 34.8773 96.8301 35.8532 96.5219C35.8558 96.5219 35.8583 96.5193 35.8608 96.5193C36.4773 96.3232 37.0795 96.0849 37.6632 95.8061C37.6657 95.8035 37.671 95.8035 37.6735 95.801C37.8049 95.7392 37.9313 95.6722 38.0602 95.6078L38.1222 95.577C38.2253 95.5229 38.3284 95.4688 38.4315 95.4122C38.6894 95.2706 38.942 95.1212 39.1922 94.9616C39.2618 94.9204 39.3288 94.8766 39.3984 94.8303C39.6253 94.681 39.8496 94.5213 40.0662 94.3591C40.1049 94.3308 40.1461 94.3025 40.1849 94.2716C42.6004 92.4407 44.3734 89.8931 45.2497 86.9941C46.126 84.0951 46.0607 80.9934 45.0631 78.1337V78.1338ZM39.7104 93.646C39.6253 93.7129 39.5376 93.7773 39.45 93.8365C39.3649 93.9009 39.2798 93.9627 39.1922 94.0193C39.1174 94.0734 39.0426 94.1248 38.9652 94.1738C38.9007 94.2175 38.8363 94.2587 38.7718 94.2999C38.5579 94.4338 38.3414 94.5625 38.1222 94.6861L38.0524 94.7247C37.9545 94.7788 37.8565 94.8303 37.7586 94.8818C37.7456 94.8895 37.7301 94.8947 37.7173 94.9024L37.7018 94.9101C37.5781 94.9745 37.4518 95.0363 37.3254 95.0955C36.8379 95.3299 36.3358 95.5329 35.8222 95.7031C35.7552 95.7263 35.6881 95.7494 35.6211 95.77C34.6975 96.0634 33.7449 96.2567 32.7798 96.3468C32.3569 96.3854 31.9288 96.406 31.4983 96.406C30.3151 96.4084 29.1369 96.2543 27.9943 95.9477C27.4079 95.7949 26.8332 95.6004 26.2746 95.3658C26.2153 95.3427 26.156 95.3169 26.0992 95.2937C26.0683 95.2809 26.0399 95.268 26.0089 95.2525C25.7666 95.147 25.5269 95.0311 25.2922 94.9101L25.1788 94.8509C24.8926 94.7016 24.6115 94.5419 24.3382 94.372C24.2377 94.3102 24.1371 94.2458 24.0392 94.1789C23.7297 93.9755 23.4281 93.7567 23.1341 93.5275C22.9355 93.3782 22.7448 93.2185 22.5591 93.0538C22.4612 92.9714 22.3657 92.8813 22.273 92.7963C21.9074 92.4592 21.5613 92.1016 21.2364 91.7253C21.1282 91.6017 21.0224 91.4781 20.9218 91.3494C20.899 91.3239 20.8774 91.2973 20.8574 91.2696C19.1821 89.1587 18.1745 86.5973 17.963 83.9123C17.7514 81.2272 18.3456 78.54 19.6697 76.1935C20.9937 73.847 22.9877 71.9475 25.3973 70.7371C27.8069 69.5268 30.5229 69.0606 33.1989 69.3979C35.875 69.7352 38.3897 70.8608 40.4226 72.6311C42.4554 74.4013 43.9141 76.7361 44.6127 79.3376C45.3112 81.939 45.218 84.6893 44.3449 87.2377C43.4718 89.786 41.8584 92.017 39.7104 93.646V93.646Z" fill="#EEEAE5"/>
<path d="M31.5798 138.953C34.6879 138.953 37.2075 136.437 37.2075 133.333C37.2075 130.23 34.6879 127.714 31.5798 127.714C28.4717 127.714 25.9521 130.23 25.9521 133.333C25.9521 136.437 28.4717 138.953 31.5798 138.953Z" fill="#316146"/>
<path d="M27.1869 130.304C28.0963 129.395 28.2806 128.107 27.5986 127.426C26.9165 126.745 25.6264 126.929 24.7169 127.837C23.8075 128.745 23.6232 130.034 24.3053 130.715C24.9873 131.396 26.2775 131.212 27.1869 130.304Z" fill="#316146"/>
<path d="M37.4456 128.519C37.8245 127.633 37.1729 126.506 35.9902 126.002C34.8075 125.497 33.5415 125.806 33.1626 126.692C32.7837 127.578 33.4353 128.705 34.618 129.209C35.8008 129.714 37.0667 129.405 37.4456 128.519Z" fill="#316146"/>
<path d="M38.3119 144.233L37.6488 143.191C37.3675 142.564 36.8485 142.073 36.2056 141.827C35.5627 141.58 34.8482 141.599 34.2187 141.877C33.5892 142.156 33.0959 142.672 32.847 143.313C32.598 143.955 32.6136 144.668 32.8904 145.298L33.0789 145.973L33.2935 146.739C34.1622 146.629 35.0193 146.442 35.8547 146.18C35.8571 146.18 35.8594 146.179 35.8612 146.177C36.4786 145.982 37.0815 145.743 37.6651 145.463C37.6683 145.46 37.6715 145.46 37.6748 145.457C37.8048 145.395 37.9316 145.33 38.0616 145.265C38.0828 145.256 38.1034 145.245 38.1233 145.233C38.2273 145.181 38.3314 145.126 38.4322 145.07C38.5361 145.015 38.6368 144.957 38.7343 144.895L38.3119 144.233Z" fill="#CACACA"/>
<path d="M31.7586 139.444C34.3963 139.444 36.5347 137.309 36.5347 134.675C36.5347 132.041 34.3963 129.905 31.7586 129.905C29.1208 129.905 26.9824 132.041 26.9824 134.675C26.9824 137.309 29.1208 139.444 31.7586 139.444Z" fill="#FFB6B6"/>
<path d="M38.6557 144.029C38.1288 143.154 37.4749 142.363 36.7152 141.679C36.1948 141.215 35.5214 140.959 34.8236 140.959H28.0955C27.7078 140.959 27.3242 141.038 26.9684 141.192C26.6126 141.346 26.2922 141.57 26.0268 141.853C25.7615 142.135 25.557 142.469 25.4259 142.833C25.2948 143.197 25.2399 143.584 25.2645 143.971C25.2792 144.189 25.3185 144.404 25.3817 144.613C25.4296 144.765 25.4894 144.913 25.5604 145.055L25.8919 145.717C25.9179 145.727 25.9439 145.74 25.9698 145.749C25.9763 145.753 25.9797 145.753 25.9828 145.756C26.1193 145.811 26.2559 145.866 26.3956 145.918C26.853 146.093 27.3196 146.242 27.7933 146.366C28.5559 146.57 29.3343 146.711 30.1204 146.785C30.5787 146.827 31.037 146.85 31.4986 146.85C31.9569 146.85 32.4054 146.827 32.8539 146.785C33.0002 146.772 33.1464 146.756 33.2927 146.739C34.1614 146.63 35.0185 146.443 35.8539 146.181C35.8563 146.181 35.8586 146.18 35.8604 146.178C36.4778 145.983 37.0807 145.744 37.6643 145.464C37.6675 145.461 37.6707 145.461 37.674 145.457C37.804 145.396 37.9308 145.331 38.0608 145.266C38.082 145.256 38.1026 145.245 38.1225 145.233C38.2265 145.181 38.3306 145.126 38.4314 145.071C38.5353 145.016 38.636 144.957 38.7335 144.896C38.8376 144.841 38.9351 144.779 39.0359 144.717C38.9124 144.474 38.7856 144.247 38.6557 144.029Z" fill="#CACACA"/>
<path d="M29.3152 141.829C28.6926 141.538 27.98 141.505 27.3332 141.737C26.6864 141.97 26.158 142.448 25.8636 143.068L25.2654 143.971L24.9794 144.402L24.5439 145.058C24.6349 145.107 24.7226 145.155 24.8137 145.204L24.9339 145.266C25.2135 145.408 25.4962 145.545 25.7888 145.671C25.8212 145.688 25.8571 145.701 25.8928 145.717C25.9188 145.727 25.9448 145.74 25.9707 145.749C25.9772 145.752 25.9805 145.753 25.9837 145.756C26.1202 145.811 26.2568 145.866 26.3965 145.918C26.8539 146.093 27.3205 146.242 27.7942 146.366C28.5567 146.57 29.3352 146.71 30.1212 146.785L30.3488 146.015L30.5699 145.282C30.8613 144.658 30.8928 143.944 30.6576 143.296C30.4224 142.649 29.9396 142.121 29.3152 141.829Z" fill="#CACACA"/>
<path d="M26.7393 131.675C27.8307 132.426 29.1261 132.826 30.4516 132.821C29.9788 133.148 29.4405 133.369 28.8739 133.469C30.6363 133.846 32.4577 133.857 34.2242 133.499C34.6169 133.436 34.9958 133.306 35.3443 133.115C35.5179 133.018 35.6692 132.886 35.7883 132.727C35.9074 132.567 35.9917 132.385 36.0356 132.191C36.153 131.522 35.6304 130.913 35.0874 130.503C34.256 129.885 33.2974 129.459 32.2809 129.256C31.2644 129.054 30.2154 129.079 29.21 129.331C28.54 129.465 27.9304 129.809 27.4693 130.313C27.2461 130.569 27.1114 130.89 27.0851 131.229C27.0587 131.568 27.142 131.906 27.3228 132.193L26.7393 131.675Z" fill="#316146"/>
<path d="M45.065 127.792C44.3784 125.821 43.2696 124.024 41.8159 122.526C40.3622 121.027 38.5987 119.863 36.6483 119.116C34.6979 118.368 32.6076 118.054 30.5232 118.195C28.4388 118.337 26.4104 118.931 24.5795 119.936C22.7486 120.941 21.1593 122.333 19.9224 124.014C18.6856 125.695 17.8309 127.626 17.418 129.671C17.0052 131.716 17.044 133.827 17.5319 135.855C18.0199 137.884 18.9451 139.782 20.243 141.416C20.3697 141.579 20.5063 141.741 20.6428 141.897C20.6506 141.908 20.6593 141.919 20.6688 141.929C21.0054 142.316 21.3635 142.683 21.7414 143.029C21.8388 143.12 21.9396 143.215 22.0437 143.302C22.2386 143.477 22.4401 143.643 22.6514 143.802C22.7326 143.867 22.8139 143.932 22.8985 143.993C23.2267 144.243 23.5712 144.474 23.9223 144.698C23.9283 144.698 23.934 144.7 23.9384 144.704C24.0392 144.766 24.1433 144.828 24.2473 144.886C24.3447 144.944 24.4455 145.003 24.5431 145.058C24.634 145.107 24.7218 145.155 24.8129 145.204L24.933 145.266C25.2127 145.409 25.4953 145.545 25.788 145.671C25.8204 145.688 25.8562 145.701 25.8919 145.717C25.918 145.727 25.944 145.74 25.9699 145.749C25.9764 145.753 25.9797 145.753 25.9828 145.756C26.1193 145.811 26.256 145.866 26.3956 145.918C26.853 146.093 27.3196 146.242 27.7933 146.366C28.5559 146.57 29.3343 146.71 30.1204 146.785C30.5787 146.827 31.0371 146.85 31.4986 146.85C31.9569 146.85 32.4054 146.827 32.8539 146.785C33.0002 146.772 33.1464 146.755 33.2927 146.739C34.1614 146.63 35.0185 146.443 35.8539 146.181C35.8564 146.181 35.8586 146.179 35.8604 146.178C36.4779 145.983 37.0807 145.744 37.6644 145.464C37.6675 145.46 37.6707 145.46 37.674 145.457C37.804 145.396 37.9308 145.331 38.0608 145.266C38.082 145.256 38.1027 145.245 38.1225 145.233C38.2265 145.181 38.3306 145.126 38.4314 145.071C38.5353 145.016 38.6361 144.957 38.7336 144.896C38.8377 144.841 38.9351 144.779 39.0359 144.717C39.0879 144.685 39.1399 144.652 39.1919 144.62C39.2635 144.578 39.3284 144.535 39.4 144.487C39.4974 144.425 39.595 144.357 39.6891 144.289C39.8159 144.201 39.9427 144.11 40.0662 144.016C40.1078 143.989 40.148 143.96 40.1865 143.929C42.6002 142.096 44.3719 139.549 45.2481 136.651C46.1243 133.752 46.0603 130.651 45.065 127.792L45.065 127.792ZM39.712 143.302C39.6274 143.37 39.5396 143.435 39.452 143.494C39.3641 143.559 39.2797 143.62 39.1919 143.679C39.1171 143.731 39.0424 143.782 38.9645 143.831C38.9574 143.837 38.9498 143.843 38.9416 143.847C38.8864 143.886 38.8278 143.922 38.7726 143.958C38.7336 143.98 38.6947 144.006 38.6557 144.029C38.5419 144.101 38.4281 144.169 38.3111 144.234C38.2494 144.273 38.1843 144.308 38.1226 144.344C38.0999 144.357 38.077 144.37 38.0543 144.383C37.9535 144.438 37.8561 144.487 37.7585 144.539C37.7456 144.548 37.7293 144.552 37.7196 144.561C37.7136 144.562 37.7078 144.564 37.7033 144.568C37.5798 144.633 37.453 144.694 37.3263 144.753C36.8383 144.987 36.3356 145.19 35.8214 145.36C35.7564 145.383 35.6882 145.409 35.6231 145.428C34.7942 145.691 33.942 145.873 33.0782 145.973C32.9807 145.986 32.88 145.996 32.7792 146.006C32.3567 146.045 31.9309 146.064 31.4986 146.064C31.115 146.064 30.7282 146.048 30.348 146.015C29.553 145.949 28.7655 145.812 27.9949 145.607C27.4083 145.454 26.8336 145.259 26.2755 145.022C26.2462 145.009 26.217 145 26.1878 144.987C26.1552 144.974 26.1292 144.964 26.1 144.951C26.0675 144.938 26.0414 144.925 26.0089 144.909C25.7977 144.818 25.5864 144.717 25.3817 144.613C25.3524 144.597 25.3232 144.584 25.294 144.568L25.1802 144.509C25.1119 144.474 25.0437 144.438 24.9786 144.402C24.7609 144.286 24.5463 144.159 24.3384 144.029C24.2603 143.98 24.1759 143.929 24.0978 143.877L24.0393 143.838C23.8572 143.714 23.6753 143.591 23.4965 143.458C23.3762 143.367 23.2527 143.279 23.1358 143.185C22.9375 143.036 22.7457 142.877 22.5605 142.711C22.4629 142.63 22.3654 142.539 22.2745 142.455C21.9085 142.118 21.5623 141.761 21.2377 141.384C21.1304 141.261 21.0231 141.137 20.9223 141.008C20.8996 140.982 20.8801 140.956 20.8573 140.926C19.1816 138.815 18.1737 136.254 17.9619 133.568C17.7502 130.883 18.3442 128.195 19.6683 125.848C20.9925 123.501 22.9866 121.602 25.3964 120.391C27.8063 119.18 30.5226 118.714 33.199 119.051C35.8754 119.388 38.3906 120.514 40.4238 122.284C42.4569 124.055 43.9159 126.39 44.6147 128.992C45.3134 131.593 45.2203 134.344 44.3471 136.893C43.4739 139.442 41.8603 141.673 39.712 143.302H39.712Z" fill="#EEEAE5"/>
<path d="M55.5294 57.7159C50.528 53.5017 44.4077 50.83 37.9133 50.0258C31.419 49.2216 24.8305 50.3197 18.9497 53.1863C13.0689 56.053 8.14935 60.5647 4.7896 66.1724C1.42984 71.7802 -0.225212 78.2421 0.0258323 84.772C0.276876 91.3018 2.42319 97.6181 6.2036 102.952C9.98402 108.286 15.2355 112.408 21.3191 114.816C27.4027 117.224 34.0561 117.814 40.4696 116.515C46.8831 115.216 52.7802 112.084 57.4434 107.499L98.8516 142.389C99.482 142.918 100.297 143.176 101.117 143.106C101.938 143.036 102.697 142.645 103.229 142.017C103.76 141.389 104.021 140.576 103.954 139.756C103.886 138.937 103.496 138.177 102.868 137.645L102.864 137.641L61.4556 102.751C66.266 95.8572 68.3248 87.4179 67.2285 79.0872C66.1323 70.7565 61.96 63.1349 55.5294 57.7159ZM52.86 99.3914C49.6341 103.209 45.347 105.986 40.5408 107.37C35.7346 108.755 30.6251 108.685 25.8586 107.17C21.092 105.655 16.8825 102.762 13.7622 98.8582C10.6419 94.9541 8.75109 90.2137 8.32881 85.2365C7.90654 80.2594 8.97179 75.2689 11.3898 70.8963C13.8079 66.5236 17.4702 62.9652 21.9135 60.671C26.3569 58.3767 31.3818 57.4497 36.3527 58.0071C41.3237 58.5645 46.0175 60.5814 49.8406 63.8026C54.9672 68.1222 58.1654 74.2984 58.7316 80.9726C59.2979 87.6468 57.1858 94.2722 52.86 99.3914Z" fill="#EEEAE5"/>
<path opacity="0.3" d="M17.2196 102.407C12.3677 98.3188 9.23296 92.5577 8.43788 86.2681C7.64281 79.9785 9.24555 73.6203 12.9279 68.4561C12.4443 68.9424 11.9768 69.4517 11.5254 69.984C9.38346 72.5187 7.76251 75.45 6.75505 78.6103C5.7476 81.7706 5.37338 85.0981 5.65376 88.4028C5.93414 91.7075 6.86363 94.9247 8.38915 97.8708C9.91468 100.817 12.0064 103.434 14.5448 105.573C17.0832 107.712 20.0187 109.33 23.1835 110.336C26.3484 111.342 29.6807 111.716 32.9902 111.436C36.2997 111.156 39.5216 110.228 42.4719 108.704C45.4222 107.181 48.0431 105.092 50.185 102.558C50.6354 102.025 51.0595 101.479 51.4574 100.92C46.9789 105.414 40.9719 108.061 34.6292 108.336C28.2865 108.612 22.072 106.495 17.2196 102.407Z" fill="black"/>
<path d="M139.008 143.693C139.332 143.299 139.565 142.839 139.691 142.345C139.817 141.851 139.833 141.335 139.738 140.834C139.642 140.334 139.439 139.86 139.14 139.446C138.842 139.033 138.456 138.689 138.011 138.441L130.463 107.592L124.957 109.347L133.107 139.985C132.738 140.76 132.667 141.644 132.907 142.468C133.147 143.292 133.681 143.999 134.408 144.456C135.136 144.914 136.006 145.088 136.853 144.948C137.701 144.807 138.468 144.361 139.008 143.693H139.008Z" fill="#FFB6B6"/>
<path d="M135.107 123.96L131.084 127.426L125.454 132.272L122.968 119.569L122.708 118.248L122.503 117.2L128.207 107.278L132.962 107.551L133.287 107.57L133.294 107.642L133.369 108.307L134.344 117.063L134.366 117.275L135.107 123.96Z" fill="#EEEAE5"/>
<path d="M108.806 210.188L104.822 210.187L102.926 194.84L108.807 194.84L108.806 210.188Z" fill="#FFB6B6"/>
<path d="M109.823 214.043L96.9746 214.043V213.881C96.9747 212.556 97.5016 211.286 98.4395 210.349C99.3773 209.413 100.649 208.887 101.976 208.887H101.976L109.823 208.887L109.823 214.043Z" fill="#316146"/>
<path d="M150.41 210.512L146.425 210.512L144.529 195.164L150.411 195.164L150.41 210.512Z" fill="#FFB6B6"/>
<path d="M151.426 214.368L138.577 214.368V214.206C138.577 212.881 139.104 211.611 140.042 210.675C140.98 209.738 142.252 209.212 143.578 209.212H143.578L151.426 209.212L151.426 214.368Z" fill="#316146"/>
<path d="M153.594 204.403L142.868 206.026L127.264 153.292L110.691 206.35L98.665 204.727L114.266 143.062V138.193L116.379 130.891L116.158 128.914L114.62 115.091L113.954 109.097L113.911 108.71C113.875 108.385 113.961 108.058 114.153 107.793C114.345 107.528 114.628 107.344 114.949 107.276L119.954 106.225H128.135L132.962 107.552L133.293 107.643L133.443 107.685L133.368 108.308L132.237 117.779L132.175 118.298L131.083 127.428L130.843 129.43C140.268 136.246 140.593 143.062 140.593 143.062L153.594 204.403Z" fill="#224632"/>
<path d="M123.056 102.118C127.465 102.118 131.039 98.5487 131.039 94.1462C131.039 89.7437 127.465 86.1748 123.056 86.1748C118.647 86.1748 115.073 89.7437 115.073 94.1462C115.073 98.5487 118.647 102.118 123.056 102.118Z" fill="#FFB6B6"/>
<path d="M131.441 127.599L115.649 129.661L115.944 131.914L131.736 129.852L131.441 127.599Z" fill="#EEEAE5"/>
<path d="M94.4666 130.34C94.6176 130.437 94.7607 130.546 94.8945 130.666L110.514 126.69L111.58 122.928L117.477 123.791L116.238 130.636C116.138 131.188 115.861 131.694 115.449 132.076C115.037 132.459 114.512 132.697 113.952 132.756L95.7144 134.674C95.4172 135.299 94.9364 135.819 94.3361 136.164C93.7359 136.51 93.0445 136.664 92.3539 136.608C91.6634 136.551 91.0065 136.286 90.4705 135.848C89.9345 135.409 89.5449 134.819 89.3535 134.154C89.1621 133.489 89.1779 132.781 89.3989 132.126C89.6199 131.47 90.0356 130.897 90.5907 130.483C91.1457 130.069 91.8139 129.833 92.5063 129.808C93.1986 129.782 93.8824 129.968 94.4666 130.34Z" fill="#FFB6B6"/>
<path d="M118.492 109.306L115.729 107.197C114.982 106.914 113.959 107.718 113.779 108.495L109.879 124.398L118.005 130.24L119.142 128.455L118.492 109.306Z" fill="#EEEAE5"/>
<g opacity="0.2">
<path opacity="0.2" d="M134.343 117.065C133.653 117.338 132.95 117.576 132.237 117.779C132.009 117.847 131.775 117.912 131.545 117.973C130.023 118.395 128.46 118.647 126.884 118.726C126.205 118.755 125.525 118.737 124.849 118.671C124.123 118.599 123.406 118.458 122.707 118.249C122.684 118.243 122.658 118.236 122.636 118.23C121.182 117.818 119.85 117.062 118.751 116.026C118.506 115.788 118.277 115.533 118.066 115.263C117.459 114.521 117.014 113.661 116.758 112.737C116.503 111.813 116.444 110.847 116.584 109.899C116.611 109.727 116.648 109.557 116.694 109.389C116.817 108.932 116.979 108.487 117.178 108.058C117.266 107.857 117.364 107.659 117.468 107.464L121.14 106.225H128.135L132.962 107.552L133.287 107.572L133.293 107.643L133.443 107.685L133.368 108.308L134.343 117.065Z" fill="black"/>
</g>
<path d="M116.939 87.5463C115.446 87.3636 113.808 87.4928 112.644 88.4445C111.48 89.3961 111.105 91.3745 112.206 92.397C113.182 93.3022 114.707 93.0893 116.013 93.3468C117.139 93.5986 118.147 94.2202 118.877 95.1121C119.607 96.0039 120.016 97.1145 120.038 98.2659C120.019 101.568 116.845 104.069 116.275 107.321C115.886 109.541 116.824 111.877 118.445 113.446C120.066 115.014 122.294 115.861 124.539 116.091C126.784 116.32 129.055 115.97 131.237 115.394C133.428 114.815 135.585 113.995 137.423 112.671C139.262 111.348 140.769 109.482 141.359 107.297C141.949 105.112 141.526 102.607 140.004 100.93C138.263 99.0085 135.365 98.3479 133.858 96.2379C132.169 93.8726 132.794 90.5042 131.427 87.9399C130.515 86.2278 128.787 85.0601 126.945 84.4449C125.103 83.8297 123.136 83.7083 121.194 83.6487C120.174 83.6174 119.122 83.607 118.171 83.9785C117.221 84.35 116.385 85.1966 116.336 86.2148C116.286 87.2331 116.939 87.5463 116.939 87.5463Z" fill="#316146"/>
<path d="M191.675 214.501H67.8407C67.7544 214.501 67.6718 214.467 67.6108 214.406C67.5499 214.345 67.5156 214.262 67.5156 214.176C67.5156 214.09 67.5499 214.007 67.6108 213.947C67.6718 213.886 67.7544 213.852 67.8407 213.852H191.675C191.761 213.852 191.844 213.886 191.905 213.947C191.966 214.007 192 214.09 192 214.176C192 214.262 191.966 214.345 191.905 214.406C191.844 214.467 191.761 214.501 191.675 214.501Z" fill="#CACACA"/>
</g>
<defs>
<clipPath id="clip0_1623_13042">
<rect width="192" height="214" fill="white" transform="translate(0 0.5)"/>
</clipPath>
</defs>
</svg>
