<svg width="192" height="215" viewBox="0 0 192 215" fill="none" xmlns="http://www.w3.org/2000/svg">
<g clip-path="url(#clip0_1623_13105)">
<path d="M91.108 117.946L91.1085 117.946C91.43 118.054 91.7634 118.108 92.0982 118.109C92.8244 118.108 93.5367 117.852 94.1304 117.371C94.7248 116.889 95.1695 116.204 95.3908 115.413L91.108 117.946ZM91.108 117.946L11.098 91.1812M91.108 117.946L11.098 91.1812M11.098 91.1812C10.2347 90.8912 9.49725 90.2325 9.06025 89.3327M11.098 91.1812L9.06025 89.3327M28.9634 13.9841L8.79994 86.393L28.9634 13.9841ZM28.9634 13.9841C28.9634 13.984 28.9634 13.9838 28.9635 13.9837L28.9634 13.9841ZM9.06025 89.3327C8.62291 88.4323 8.52801 87.3739 8.7998 86.3935L9.06025 89.3327ZM115.554 43.004L95.391 115.413L115.554 43.004ZM33.2469 11.4515L113.256 38.2157C114.12 38.5057 114.857 39.1644 115.294 40.0642C115.731 40.9647 115.826 42.0231 115.555 43.0035L33.2469 11.4515Z" fill="white" stroke="#EEEAE5"/>
<path d="M104.014 107.002H20.3601C19.2828 107 18.25 106.531 17.4883 105.696C16.7266 104.861 16.2981 103.729 16.2969 102.548V26.8411C16.2981 25.6604 16.7266 24.5284 17.4883 23.6935C18.25 22.8586 19.2828 22.389 20.3601 22.3877H104.014C105.091 22.389 106.124 22.8586 106.886 23.6935C107.648 24.5284 108.076 25.6604 108.077 26.8411V102.548C108.076 103.729 107.648 104.861 106.886 105.696C106.124 106.531 105.091 107 104.014 107.002ZM20.3601 22.9116C19.4096 22.9128 18.4983 23.3272 17.8262 24.0638C17.154 24.8005 16.776 25.7993 16.7749 26.8411V102.548C16.776 103.59 17.154 104.589 17.8262 105.326C18.4983 106.062 19.4096 106.477 20.3601 106.478H104.014C104.965 106.477 105.876 106.062 106.548 105.326C107.22 104.589 107.598 103.59 107.599 102.548V26.8411C107.598 25.7993 107.22 24.8005 106.548 24.0638C105.876 23.3272 104.965 22.9128 104.014 22.9116H20.3601Z" fill="#CFD762"/>
<path fill-rule="evenodd" clip-rule="evenodd" d="M62.1872 98.0949C62.1238 98.0949 62.063 98.0673 62.0182 98.0182C61.9734 97.9691 61.9482 97.9025 61.9482 97.833V85.7653L36.7481 72.3964C36.7199 72.3814 36.6946 72.3605 36.6737 72.3348C36.6529 72.3091 36.6368 72.2792 36.6265 72.2467C36.6162 72.2142 36.6119 72.1798 36.6137 72.1455C36.6155 72.1111 36.6235 72.0775 36.6372 72.0466C36.6508 72.0156 36.6699 71.9879 36.6934 71.965C36.7168 71.9422 36.7441 71.9246 36.7738 71.9133C36.8034 71.902 36.8348 71.8972 36.8661 71.8992C36.8975 71.9012 36.9281 71.91 36.9564 71.9249L61.9482 85.1833V72.3185L45.1046 62.438C45.0489 62.4051 45.0073 62.3493 44.9891 62.2829C44.9709 62.2165 44.9774 62.1449 45.0072 62.0837C45.0371 62.0226 45.0878 61.9769 45.1484 61.9567C45.2089 61.9365 45.2743 61.9434 45.3301 61.976L61.9482 71.7242V57.3896L52.034 51.433C51.9784 51.3996 51.9372 51.3434 51.9194 51.2767C51.9016 51.21 51.9088 51.1383 51.9393 51.0774C51.9697 51.0164 52.021 50.9713 52.0819 50.9518C52.1427 50.9323 52.2082 50.9402 52.2638 50.9736L61.9482 56.7921V46.7502C61.9482 46.6808 61.9734 46.6141 62.0182 46.565C62.063 46.5159 62.1238 46.4883 62.1872 46.4883C62.2506 46.4883 62.3114 46.5159 62.3562 46.565C62.401 46.6141 62.4262 46.6808 62.4262 46.7502V56.7922L72.1108 50.9736C72.1664 50.9402 72.2318 50.9323 72.2926 50.9518C72.3535 50.9713 72.4048 51.0164 72.4353 51.0774C72.4657 51.1383 72.4729 51.21 72.4551 51.2767C72.4374 51.3434 72.3961 51.3996 72.3406 51.433L62.4262 57.3897V71.7242L79.0442 61.976C79.1001 61.9434 79.1655 61.9365 79.226 61.9567C79.2865 61.9769 79.3373 62.0226 79.3671 62.0837C79.397 62.1449 79.4035 62.2165 79.3853 62.2829C79.367 62.3493 79.3255 62.4051 79.2698 62.438L62.4262 72.3185V85.1832L87.4183 71.9247C87.4466 71.9096 87.4772 71.9007 87.5086 71.8986C87.54 71.8966 87.5715 71.9013 87.6012 71.9126C87.6309 71.9238 87.6583 71.9414 87.6818 71.9643C87.7053 71.9872 87.7244 72.0149 87.7381 72.0459C87.7518 72.0769 87.7598 72.1106 87.7616 72.145C87.7634 72.1794 87.759 72.2139 87.7487 72.2464C87.7383 72.2789 87.7222 72.3089 87.7012 72.3346C87.6803 72.3603 87.6549 72.3812 87.6266 72.3961L62.4262 85.7651V97.833C62.4262 97.9025 62.401 97.9691 62.3562 98.0182C62.3114 98.0673 62.2506 98.0949 62.1872 98.0949Z" fill="#CFD762"/>
<path d="M66.2503 106.871H58.1239C57.712 106.87 57.3171 106.691 57.0259 106.372C56.7346 106.052 56.5708 105.62 56.5703 105.168V99.4049C56.5708 98.9535 56.7346 98.5207 57.0259 98.2014C57.3171 97.8822 57.712 97.7027 58.1239 97.7021H66.2503C66.6622 97.7027 67.057 97.8822 67.3483 98.2014C67.6395 98.5207 67.8034 98.9535 67.8038 99.4049V105.168C67.8034 105.62 67.6395 106.052 67.3483 106.372C67.057 106.691 66.6622 106.87 66.2503 106.871Z" fill="#CFD762"/>
<path d="M16.6527 41.8315C18.5843 41.8315 20.1501 40.1153 20.1501 37.9983C20.1501 35.8812 18.5843 34.165 16.6527 34.165C14.7211 34.165 13.1553 35.8812 13.1553 37.9983C13.1553 40.1153 14.7211 41.8315 16.6527 41.8315Z" fill="#E99678"/>
<path d="M111.431 23.9423C111.431 24.0893 111.427 24.2341 111.415 24.3767C111.356 25.2611 111.118 26.12 110.718 26.8907C110.318 27.6615 109.766 28.3248 109.103 28.8323C108.44 29.3398 107.681 29.6787 106.883 29.8243C106.085 29.97 105.268 29.9187 104.49 29.6742C103.712 29.4298 102.994 28.9982 102.388 28.4111C101.781 27.824 101.302 27.0961 100.985 26.2803C100.668 25.4646 100.521 24.5815 100.554 23.6956C100.588 22.8096 100.802 21.943 101.179 21.1589C101.296 20.9132 101.43 20.6776 101.58 20.454C102.23 19.465 103.142 18.7185 104.192 18.3151C105.242 17.9117 106.379 17.871 107.451 18.1982C108.522 18.5255 109.477 19.2052 110.185 20.1455C110.893 21.0858 111.321 22.2415 111.411 23.4567C111.425 23.6165 111.431 23.7783 111.431 23.9423Z" fill="#CFD762"/>
<path d="M91.2865 110.467C93.2181 110.467 94.7839 108.751 94.7839 106.634C94.7839 104.517 93.2181 102.801 91.2865 102.801C89.3549 102.801 87.7891 104.517 87.7891 106.634C87.7891 108.751 89.3549 110.467 91.2865 110.467Z" fill="#FFB6B6"/>
<path d="M64.5169 26.3774C66.4485 26.3774 68.0144 24.6612 68.0144 22.5442C68.0144 20.4271 66.4485 18.7109 64.5169 18.7109C62.5854 18.7109 61.0195 20.4271 61.0195 22.5442C61.0195 24.6612 62.5854 26.3774 64.5169 26.3774Z" fill="#E6E6E6"/>
<path d="M174.375 214.217C174.307 214.217 174.242 214.188 174.193 214.135C174.145 214.082 174.118 214.01 174.118 213.936V208.865C174.118 208.79 174.145 208.718 174.193 208.666C174.242 208.613 174.307 208.583 174.375 208.583C174.443 208.583 174.509 208.613 174.557 208.666C174.605 208.718 174.632 208.79 174.632 208.865V213.936C174.632 214.01 174.605 214.082 174.557 214.135C174.509 214.188 174.443 214.217 174.375 214.217Z" fill="#E6E6E6"/>
<path d="M174.375 207.459C175.085 207.459 175.66 206.828 175.66 206.05C175.66 205.272 175.085 204.642 174.375 204.642C173.665 204.642 173.09 205.272 173.09 206.05C173.09 206.828 173.665 207.459 174.375 207.459Z" fill="#E6E6E6"/>
<path d="M174.118 211.964C174.118 211.964 175.725 208.795 177.974 209.851L174.118 211.964Z" fill="#E6E6E6"/>
<path d="M104.976 214.217C104.908 214.217 104.842 214.188 104.794 214.135C104.746 214.082 104.719 214.01 104.719 213.936V208.865C104.719 208.79 104.746 208.718 104.794 208.666C104.842 208.613 104.908 208.583 104.976 208.583C105.044 208.583 105.109 208.613 105.158 208.666C105.206 208.718 105.233 208.79 105.233 208.865V213.936C105.233 214.01 105.206 214.082 105.158 214.135C105.109 214.188 105.044 214.217 104.976 214.217Z" fill="#E6E6E6"/>
<path d="M104.976 207.459C105.685 207.459 106.261 206.828 106.261 206.05C106.261 205.272 105.685 204.642 104.976 204.642C104.266 204.642 103.69 205.272 103.69 206.05C103.69 206.828 104.266 207.459 104.976 207.459Z" fill="#E6E6E6"/>
<path d="M104.719 211.964C104.719 211.964 106.325 208.795 108.574 209.851L104.719 211.964Z" fill="#E6E6E6"/>
<path d="M117.57 214.217C117.502 214.217 117.437 214.188 117.389 214.135C117.341 214.082 117.313 214.01 117.313 213.936V208.865C117.313 208.79 117.341 208.718 117.389 208.666C117.437 208.613 117.502 208.583 117.57 208.583C117.639 208.583 117.704 208.613 117.752 208.666C117.8 208.718 117.827 208.79 117.827 208.865V213.936C117.827 214.01 117.8 214.082 117.752 214.135C117.704 214.188 117.639 214.217 117.57 214.217Z" fill="#E6E6E6"/>
<path d="M117.57 207.459C118.28 207.459 118.855 206.828 118.855 206.05C118.855 205.272 118.28 204.642 117.57 204.642C116.861 204.642 116.285 205.272 116.285 206.05C116.285 206.828 116.861 207.459 117.57 207.459Z" fill="#E6E6E6"/>
<path d="M117.313 211.964C117.313 211.964 118.92 208.795 121.169 209.851L117.313 211.964Z" fill="#E6E6E6"/>
<path d="M191.743 214.499H93.8137C93.7455 214.499 93.6801 214.469 93.6319 214.416C93.5837 214.364 93.5566 214.292 93.5566 214.217C93.5566 214.143 93.5837 214.071 93.6319 214.018C93.6801 213.965 93.7455 213.936 93.8137 213.936H191.743C191.811 213.936 191.877 213.965 191.925 214.018C191.973 214.071 192 214.143 192 214.217C192 214.292 191.973 214.364 191.925 214.416C191.877 214.469 191.811 214.499 191.743 214.499Z" fill="#CCCCCC"/>
<path d="M176.282 214.712C176.938 206.947 178.751 199.354 181.648 192.235C182.456 190.254 183.344 188.317 184.314 186.423C184.563 185.936 183.881 185.498 183.632 185.985C180.105 192.883 177.634 200.371 176.318 208.149C175.952 210.321 175.676 212.509 175.492 214.712C175.445 215.267 176.235 215.264 176.282 214.712H176.282Z" fill="#E6E6E6"/>
<path d="M186.227 187.814C188.99 187.814 191.229 185.355 191.229 182.321C191.229 179.287 188.99 176.827 186.227 176.827C183.465 176.827 181.226 179.287 181.226 182.321C181.226 185.355 183.465 187.814 186.227 187.814Z" fill="#E6E6E6"/>
<path d="M176.793 214.858C177.219 209.821 178.395 204.895 180.274 200.277C180.798 198.992 181.375 197.735 182.004 196.506C182.035 196.442 182.043 196.367 182.025 196.296C182.007 196.226 181.965 196.166 181.908 196.129C181.85 196.092 181.782 196.082 181.717 196.099C181.653 196.116 181.597 196.16 181.561 196.222C179.273 200.697 177.67 205.555 176.816 210.601C176.579 212.01 176.4 213.429 176.281 214.858C176.25 215.219 176.763 215.216 176.793 214.858Z" fill="#E6E6E6"/>
<path d="M183.246 197.408C185.038 197.408 186.491 195.813 186.491 193.844C186.491 191.876 185.038 190.28 183.246 190.28C181.454 190.28 180.001 191.876 180.001 193.844C180.001 195.813 181.454 197.408 183.246 197.408Z" fill="#E6E6E6"/>
<path d="M176.147 214.523C173.662 210.264 171.831 205.585 170.727 200.674C170.42 199.307 170.171 197.926 169.979 196.532C169.968 196.46 169.932 196.396 169.878 196.353C169.825 196.309 169.758 196.291 169.692 196.3C169.626 196.31 169.566 196.348 169.525 196.405C169.484 196.462 169.464 196.535 169.471 196.607C170.173 201.682 171.629 206.595 173.781 211.151C174.383 212.422 175.037 213.662 175.743 214.869C175.921 215.174 176.324 214.826 176.147 214.523V214.523Z" fill="#E6E6E6"/>
<path d="M169.466 197.158C171.259 197.158 172.711 195.563 172.711 193.594C172.711 191.626 171.259 190.03 169.466 190.03C167.674 190.03 166.222 191.626 166.222 193.594C166.222 195.563 167.674 197.158 169.466 197.158Z" fill="#E6E6E6"/>
<path d="M150.189 163.128C150.402 162.774 150.541 162.372 150.598 161.951C150.654 161.531 150.626 161.102 150.515 160.694C150.404 160.287 150.213 159.912 149.956 159.594C149.699 159.277 149.381 159.025 149.026 158.857L149.708 148.552L145.442 151.175L145.449 160.559C145.231 161.233 145.246 161.972 145.492 162.635C145.737 163.298 146.195 163.839 146.779 164.156C147.364 164.473 148.033 164.543 148.662 164.354C149.29 164.164 149.833 163.728 150.189 163.128Z" fill="#FFB6B6"/>
<path d="M149.128 123.07L150.294 155.864L145.556 155.575L144.503 121.167L145.502 120.651C145.882 120.454 146.301 120.364 146.721 120.389C147.14 120.413 147.548 120.551 147.907 120.791C148.266 121.031 148.565 121.364 148.778 121.762C148.991 122.16 149.112 122.609 149.128 123.07Z" fill="#316146"/>
<path d="M134.474 211.621H131.246L129.711 197.948H134.474L134.474 211.621Z" fill="#FFB6B6"/>
<path d="M128.941 210.607H135.165V214.912H125.022C125.022 214.347 125.124 213.787 125.321 213.265C125.518 212.742 125.806 212.268 126.17 211.868C126.534 211.468 126.966 211.151 127.442 210.935C127.917 210.719 128.427 210.607 128.941 210.607Z" fill="#316146"/>
<path d="M161.325 207.386L158.396 208.875L151.772 197.177L156.095 194.979L161.325 207.386Z" fill="#FFB6B6"/>
<path d="M155.918 209.02L161.566 206.148L163.212 210.054L154.008 214.734C153.791 214.221 153.669 213.667 153.648 213.102C153.627 212.537 153.708 211.973 153.885 211.443C154.062 210.912 154.333 210.425 154.682 210.009C155.031 209.593 155.451 209.257 155.918 209.02Z" fill="#316146"/>
<path d="M126.81 166.998L130.139 208.717L134.614 208.139L137.921 170.03L156.2 206.404L160.938 204.958C160.938 204.958 145.687 154.851 144.502 150.658C143.204 146.062 132.919 144.297 132.919 144.297L132.525 143.863C128.106 150.397 126.336 158.875 126.81 166.998Z" fill="#EEEAE5"/>
<path d="M144.542 117.029C148.113 117.029 151.007 113.85 151.007 109.928C151.007 106.006 148.113 102.826 144.542 102.826C140.971 102.826 138.076 106.006 138.076 109.928C138.076 113.85 140.971 117.029 144.542 117.029Z" fill="#FFB6B6"/>
<path d="M149.093 120.819L144.108 149.358C144.108 149.358 137.279 147.86 134.847 146.056C133.883 145.339 133.009 144.598 132.272 143.927C131.443 143.18 130.649 142.386 129.893 141.551C129.893 141.551 131.641 132.122 132.264 129.598C132.989 126.674 135.474 123.268 137.41 120.947C138.112 120.107 139.009 119.491 140.004 119.168C141 118.844 142.057 118.824 143.063 119.11L149.093 120.819Z" fill="#316146"/>
<path opacity="0.2" d="M134.847 146.059C133.884 145.341 133.009 144.601 132.272 143.93C132.538 139.611 138.332 130.566 140.68 130.566C140.68 130.566 141.236 144.506 134.847 146.059Z" fill="black"/>
<path d="M122.921 157.402C123.285 157.257 123.615 157.026 123.889 156.726C124.163 156.425 124.373 156.063 124.506 155.663C124.638 155.264 124.689 154.837 124.655 154.414C124.622 153.991 124.504 153.58 124.31 153.213L130.459 145.393L125.612 144.7L120.515 152.232C119.974 152.63 119.585 153.233 119.421 153.926C119.258 154.618 119.331 155.353 119.627 155.99C119.924 156.627 120.423 157.123 121.03 157.383C121.637 157.643 122.31 157.65 122.921 157.402Z" fill="#FFB6B6"/>
<path d="M140.112 119.442C139.844 119.448 139.577 119.481 139.315 119.542C138.785 119.675 138.292 119.951 137.883 120.344C137.473 120.738 137.158 121.237 136.968 121.797L129.366 139.24L121.205 148.782L125.285 152.396L138.184 139.674L143.338 124.268C143.502 123.712 143.544 123.121 143.459 122.543C143.375 121.966 143.166 121.418 142.851 120.947C142.536 120.475 142.123 120.093 141.647 119.831C141.17 119.569 140.644 119.436 140.112 119.442Z" fill="#316146"/>
<path d="M144.925 116.965C145.845 115.453 146.571 113.355 145.558 111.915C144.558 110.495 142.585 110.704 141.054 110.075C138.92 109.199 137.683 106.447 138.069 103.981C138.455 101.516 140.257 99.4723 142.403 98.6361C144.55 97.7999 146.97 98.0719 149.072 99.0348C151.659 100.22 153.879 102.513 154.81 105.418C155.741 108.323 155.243 111.81 153.312 114.043C151.242 116.436 147.993 117.074 144.988 117.036" fill="black"/>
<path d="M155.077 108.594C155.341 110.211 156.955 111.129 158.439 111.331C159.923 111.532 161.458 111.274 162.902 111.697C165.449 112.445 167.129 115.135 168.053 117.846C168.978 120.558 169.388 123.484 170.589 126.061C171.79 128.638 174.119 130.91 176.746 130.669C176.232 132.092 175.33 133.306 174.164 134.146C172.998 134.985 171.625 135.409 170.231 135.359C168.838 135.309 167.492 134.789 166.378 133.868C165.264 132.948 164.436 131.672 164.007 130.216C163.042 126.943 164.149 123.041 162.462 120.144C161.528 118.541 159.915 117.597 158.361 116.757C156.806 115.917 155.174 115.054 154.131 113.534C153.089 112.014 152.881 109.612 154.165 108.335" fill="black"/>
</g>
<defs>
<clipPath id="clip0_1623_13105">
<rect width="192" height="214" fill="white" transform="translate(0 0.5)"/>
</clipPath>
</defs>
</svg>
