<svg width="322" height="255" viewBox="0 0 322 255" fill="none" xmlns="http://www.w3.org/2000/svg">
<line x1="163.264" y1="19.9277" x2="163.264" y2="231.427" stroke="#E3DED6"/>
<line x1="265.744" y1="126.178" x2="59.7847" y2="126.178" stroke="#E3DED6"/>
<path d="M265.556 125.356C265.556 183.674 219.522 230.927 162.764 230.927C106.005 230.927 59.9712 183.674 59.9712 125.356C59.9712 67.0383 106.005 19.7852 162.764 19.7852C219.522 19.7852 265.556 67.0383 265.556 125.356Z" fill="white" fill-opacity="0.5" stroke="#E3DED6"/>
<path d="M225.299 122.365C225.328 123.026 225.348 123.69 225.358 124.356L224.858 124.363C224.863 124.694 224.865 125.025 224.865 125.356C224.865 125.688 224.863 126.019 224.858 126.35L225.358 126.357C225.348 127.023 225.328 127.686 225.299 128.347L224.799 128.325C224.77 128.987 224.73 129.646 224.681 130.302L225.18 130.34C225.13 131.004 225.071 131.665 225.002 132.323L224.505 132.27C224.435 132.929 224.357 133.584 224.268 134.236L224.764 134.303C224.674 134.963 224.575 135.621 224.466 136.274L223.973 136.192C223.864 136.843 223.746 137.491 223.619 138.136L224.109 138.233C223.979 138.887 223.84 139.538 223.692 140.184L223.204 140.072C223.056 140.716 222.899 141.356 222.732 141.992L223.215 142.119C223.047 142.763 222.868 143.403 222.68 144.039L222.201 143.897C222.014 144.531 221.817 145.161 221.611 145.787L222.086 145.943C221.878 146.575 221.661 147.202 221.435 147.825L220.965 147.655C220.739 148.276 220.505 148.892 220.261 149.504L220.725 149.689C220.479 150.307 220.223 150.921 219.959 151.529L219.5 151.33C219.237 151.935 218.965 152.535 218.685 153.13L219.137 153.344C218.853 153.946 218.56 154.543 218.258 155.134L217.813 154.907C217.513 155.495 217.204 156.078 216.887 156.655L217.326 156.896C217.006 157.479 216.677 158.056 216.34 158.627L215.909 158.373C215.573 158.942 215.229 159.505 214.877 160.062L215.3 160.329C214.944 160.891 214.58 161.447 214.208 161.997L213.794 161.716C213.424 162.263 213.047 162.803 212.661 163.337L213.066 163.63C212.676 164.169 212.279 164.701 211.873 165.227L211.477 164.922C211.074 165.445 210.664 165.96 210.246 166.469L210.632 166.787C210.21 167.301 209.78 167.807 209.343 168.307L208.967 167.978C208.532 168.474 208.09 168.964 207.641 169.446L208.007 169.787C207.554 170.273 207.093 170.752 206.626 171.224L206.271 170.872C205.806 171.34 205.335 171.801 204.856 172.254L205.2 172.617C204.718 173.074 204.228 173.524 203.732 173.965L203.4 173.592C202.907 174.03 202.408 174.46 201.902 174.883L202.222 175.267C201.712 175.692 201.195 176.11 200.672 176.52L200.364 176.126C199.844 176.532 199.319 176.93 198.787 177.32L199.083 177.723C198.547 178.116 198.004 178.5 197.456 178.875L197.174 178.463C196.63 178.835 196.08 179.199 195.525 179.554L195.794 179.976C195.234 180.333 194.669 180.682 194.097 181.022L193.842 180.592C193.276 180.929 192.704 181.257 192.126 181.576L192.368 182.013C191.787 182.334 191.2 182.646 190.608 182.949L190.38 182.503C189.794 182.803 189.202 183.093 188.606 183.374L188.819 183.826C188.218 184.109 187.612 184.383 187.001 184.646L186.803 184.187C186.198 184.448 185.589 184.699 184.976 184.941L185.159 185.406C184.541 185.649 183.919 185.882 183.292 186.105L183.125 185.634C182.504 185.856 181.879 186.067 181.25 186.268L181.403 186.744C180.771 186.946 180.136 187.138 179.496 187.32L179.359 186.839C178.727 187.019 178.09 187.188 177.449 187.348L177.57 187.833C176.926 187.993 176.278 188.144 175.627 188.283L175.522 187.794C174.88 187.932 174.234 188.06 173.584 188.177L173.673 188.669C173.02 188.787 172.364 188.894 171.705 188.991L171.632 188.496C170.982 188.592 170.328 188.677 169.672 188.752L169.728 189.248C169.07 189.323 168.41 189.387 167.746 189.441L167.706 188.943C167.05 188.996 166.391 189.038 165.73 189.07L165.754 189.57C165.093 189.602 164.43 189.623 163.764 189.634L163.756 189.134C163.426 189.139 163.095 189.142 162.764 189.142C162.432 189.142 162.101 189.139 161.771 189.134L161.763 189.634C161.097 189.623 160.434 189.602 159.773 189.57L159.797 189.07C159.136 189.038 158.477 188.996 157.822 188.943L157.781 189.441C157.118 189.387 156.457 189.323 155.799 189.248L155.855 188.752C155.199 188.677 154.545 188.592 153.895 188.496L153.822 188.991C153.163 188.894 152.507 188.787 151.854 188.669L151.943 188.177C151.294 188.06 150.648 187.932 150.005 187.794L149.901 188.283C149.249 188.144 148.601 187.993 147.957 187.833L148.078 187.348C147.437 187.188 146.801 187.019 146.168 186.839L146.031 187.32C145.392 187.138 144.756 186.946 144.125 186.744L144.277 186.268C143.648 186.067 143.023 185.856 142.403 185.634L142.235 186.105C141.608 185.882 140.986 185.649 140.368 185.406L140.552 184.941C139.938 184.699 139.329 184.448 138.725 184.187L138.527 184.646C137.916 184.383 137.31 184.109 136.709 183.826L136.922 183.374C136.325 183.093 135.733 182.803 135.147 182.503L134.919 182.949C134.327 182.646 133.741 182.334 133.159 182.013L133.401 181.576C132.824 181.257 132.252 180.929 131.685 180.592L131.43 181.022C130.858 180.682 130.293 180.333 129.733 179.976L130.003 179.554C129.447 179.199 128.897 178.835 128.354 178.463L128.071 178.875C127.523 178.5 126.98 178.116 126.445 177.723L126.74 177.32C126.208 176.93 125.683 176.532 125.164 176.126L124.856 176.52C124.332 176.11 123.815 175.692 123.305 175.267L123.626 174.883C123.12 174.46 122.62 174.03 122.128 173.592L121.795 173.965C121.299 173.524 120.809 173.074 120.327 172.617L120.671 172.254C120.192 171.801 119.721 171.34 119.256 170.872L118.901 171.224C118.434 170.752 117.973 170.273 117.52 169.787L117.886 169.446C117.437 168.964 116.995 168.474 116.561 167.978L116.184 168.307C115.747 167.807 115.317 167.3 114.895 166.787L115.282 166.469C114.863 165.96 114.453 165.445 114.05 164.922L113.654 165.227C113.248 164.701 112.851 164.169 112.461 163.63L112.866 163.337C112.481 162.803 112.103 162.263 111.733 161.716L111.319 161.997C110.947 161.447 110.583 160.891 110.228 160.329L110.65 160.061C110.298 159.505 109.954 158.942 109.618 158.373L109.188 158.627C108.85 158.056 108.522 157.479 108.202 156.896L108.64 156.655C108.323 156.078 108.014 155.495 107.714 154.907L107.269 155.134C106.967 154.543 106.674 153.946 106.39 153.344L106.843 153.13C106.562 152.535 106.29 151.935 106.027 151.33L105.568 151.529C105.304 150.921 105.048 150.307 104.802 149.689L105.266 149.504C105.023 148.892 104.788 148.276 104.562 147.655L104.092 147.825C103.866 147.202 103.649 146.575 103.441 145.943L103.916 145.787C103.71 145.161 103.513 144.531 103.326 143.897L102.847 144.039C102.659 143.403 102.481 142.763 102.312 142.119L102.795 141.992C102.628 141.356 102.471 140.716 102.323 140.072L101.836 140.184C101.687 139.538 101.548 138.887 101.418 138.233L101.909 138.136C101.781 137.491 101.663 136.843 101.554 136.192L101.061 136.274C100.952 135.62 100.853 134.963 100.764 134.303L101.259 134.236C101.171 133.584 101.092 132.929 101.023 132.27L100.525 132.323C100.456 131.664 100.397 131.003 100.347 130.34L100.846 130.302C100.797 129.646 100.758 128.987 100.728 128.325L100.229 128.347C100.199 127.686 100.179 127.023 100.17 126.357L100.669 126.35C100.665 126.019 100.662 125.688 100.662 125.356C100.662 125.025 100.665 124.693 100.669 124.363L100.17 124.356C100.179 123.69 100.199 123.026 100.229 122.365L100.728 122.388C100.758 121.726 100.797 121.067 100.846 120.41L100.347 120.373C100.397 119.709 100.456 119.048 100.525 118.39L101.023 118.442C101.092 117.784 101.171 117.129 101.259 116.477L100.764 116.41C100.853 115.749 100.952 115.092 101.061 114.438L101.554 114.52C101.663 113.869 101.781 113.221 101.909 112.577L101.418 112.48C101.548 111.826 101.687 111.175 101.836 110.528L102.323 110.64C102.471 109.996 102.628 109.356 102.795 108.72L102.312 108.593C102.481 107.949 102.659 107.309 102.847 106.674L103.326 106.815C103.514 106.181 103.71 105.551 103.916 104.926L103.441 104.77C103.649 104.138 103.866 103.51 104.092 102.887L104.562 103.058C104.788 102.437 105.023 101.821 105.266 101.209L104.802 101.024C105.048 100.405 105.304 99.7919 105.568 99.1834L106.027 99.3827C106.29 98.7775 106.562 98.1773 106.843 97.5823L106.39 97.369C106.674 96.7668 106.967 96.1698 107.269 95.5783L107.714 95.8055C108.014 95.2173 108.323 94.6346 108.64 94.0575L108.202 93.8167C108.522 93.234 108.85 92.6568 109.188 92.0855L109.618 92.3397C109.954 91.7709 110.298 91.208 110.65 90.6511L110.228 90.3838C110.583 89.8217 110.947 89.2658 111.319 88.716L111.733 88.9962C112.103 88.4498 112.481 87.9096 112.866 87.3759L112.461 87.083C112.851 86.5438 113.248 86.0112 113.654 85.4852L114.05 85.7904C114.453 85.268 114.863 84.7522 115.282 84.2432L114.895 83.9258C115.317 83.4121 115.747 82.9053 116.184 82.4055L116.561 82.7348C116.995 82.2383 117.437 81.7488 117.886 81.2665L117.52 80.9257C117.973 80.4394 118.434 79.9603 118.901 79.4887L119.256 79.8408C119.721 79.3724 120.192 78.9116 120.671 78.4583L120.327 78.0953C120.809 77.6382 121.299 77.1888 121.795 76.7472L122.128 77.1208C122.62 76.6826 123.12 76.2522 123.626 75.8299L123.305 75.446C123.815 75.0202 124.332 74.6024 124.856 74.1929L125.164 74.5867C125.683 74.1805 126.208 73.7825 126.74 73.3929L126.445 72.9895C126.98 72.5969 127.523 72.2126 128.071 71.8371L128.354 72.2496C128.897 71.8772 129.447 71.5134 130.003 71.1583L129.733 70.737C130.293 70.3794 130.858 70.0306 131.43 69.6907L131.685 70.1205C132.252 69.7836 132.824 69.4556 133.401 69.1368L133.159 68.6991C133.741 68.3782 134.327 68.0664 134.919 67.764L135.147 68.2092C135.733 67.9097 136.325 67.6194 136.922 67.3385L136.709 66.8861C137.31 66.6033 137.916 66.33 138.527 66.0663L138.725 66.5253C139.329 66.2646 139.938 66.0134 140.552 65.7718L140.369 65.3066C140.986 65.0636 141.608 64.8304 142.235 64.6071L142.403 65.0781C143.023 64.857 143.648 64.6458 144.277 64.4446L144.125 63.9683C144.756 63.7664 145.392 63.5745 146.031 63.3928L146.168 63.8737C146.801 63.6939 147.438 63.5242 148.078 63.3646L147.957 62.8794C148.601 62.7191 149.249 62.5689 149.901 62.4292L150.005 62.9181C150.648 62.7804 151.294 62.6528 151.943 62.5356L151.854 62.0436C152.507 61.9258 153.163 61.8184 153.822 61.7216L153.895 62.2163C154.545 62.1208 155.199 62.0356 155.856 61.961L155.799 61.4642C156.457 61.3894 157.118 61.3251 157.781 61.2714L157.822 61.7698C158.477 61.7168 159.136 61.6742 159.797 61.6423L159.773 61.1429C160.434 61.1109 161.097 61.0896 161.763 61.0788L161.771 61.5788C162.101 61.5735 162.432 61.5708 162.764 61.5708C163.095 61.5708 163.426 61.5735 163.756 61.5788L163.764 61.0788C164.43 61.0896 165.093 61.1109 165.754 61.1429L165.73 61.6423C166.391 61.6742 167.05 61.7168 167.706 61.7698L167.746 61.2714C168.41 61.3251 169.07 61.3894 169.728 61.4642L169.672 61.961C170.328 62.0356 170.982 62.1208 171.632 62.2163L171.705 61.7216C172.364 61.8184 173.02 61.9258 173.673 62.0436L173.584 62.5356C174.234 62.6528 174.88 62.7804 175.522 62.9181L175.627 62.4292C176.278 62.5689 176.926 62.7191 177.57 62.8794L177.449 63.3646C178.09 63.5242 178.727 63.6939 179.359 63.8737L179.496 63.3928C180.136 63.5745 180.771 63.7664 181.403 63.9684L181.25 64.4446C181.879 64.6458 182.504 64.857 183.125 65.0781L183.292 64.6071C183.919 64.8304 184.541 65.0636 185.159 65.3066L184.976 65.7719C185.589 66.0134 186.198 66.2646 186.803 66.5254L187.001 66.0663C187.612 66.33 188.218 66.6033 188.819 66.8861L188.606 67.3385C189.202 67.6194 189.794 67.9097 190.38 68.2092L190.608 67.764C191.2 68.0664 191.787 68.3782 192.368 68.6991L192.126 69.1368C192.704 69.4557 193.276 69.7836 193.842 70.1205L194.097 69.6908C194.669 70.0306 195.234 70.3794 195.794 70.737L195.525 71.1583C196.08 71.5134 196.63 71.8772 197.174 72.2496L197.456 71.8371C198.004 72.2127 198.547 72.5969 199.083 72.9895L198.787 73.3929C199.319 73.7825 199.844 74.1805 200.364 74.5867L200.672 74.1929C201.195 74.6024 201.712 75.0202 202.222 75.446L201.902 75.8299C202.408 76.2522 202.907 76.6826 203.4 77.1208L203.732 76.7472C204.228 77.1888 204.718 77.6382 205.2 78.0953L204.856 78.4583C205.335 78.9116 205.806 79.3724 206.271 79.8408L206.626 79.4887C207.093 79.9603 207.554 80.4394 208.007 80.9258L207.641 81.2666C208.09 81.7488 208.532 82.2383 208.967 82.7348L209.343 82.4055C209.78 82.9053 210.21 83.4121 210.632 83.9258L210.246 84.2432C210.664 84.7522 211.074 85.268 211.477 85.7905L211.873 85.4852C212.279 86.0112 212.676 86.5438 213.066 87.083L212.661 87.3759C213.047 87.9097 213.424 88.4498 213.794 88.9963L214.208 88.716C214.58 89.2658 214.944 89.8218 215.3 90.3838L214.877 90.6511C215.229 91.208 215.573 91.7709 215.909 92.3397L216.34 92.0856C216.677 92.6569 217.006 93.234 217.326 93.8167L216.887 94.0575C217.204 94.6346 217.513 95.2174 217.813 95.8055L218.258 95.5784C218.56 96.1699 218.853 96.7668 219.137 97.369L218.685 97.5823C218.965 98.1773 219.237 98.7775 219.5 99.3827L219.959 99.1834C220.223 99.7919 220.479 100.405 220.725 101.024L220.261 101.209C220.505 101.821 220.739 102.437 220.965 103.058L221.435 102.887C221.661 103.51 221.878 104.138 222.086 104.77L221.611 104.926C221.817 105.552 222.014 106.181 222.201 106.815L222.68 106.674C222.868 107.31 223.047 107.949 223.216 108.593L222.732 108.72C222.899 109.356 223.056 109.996 223.204 110.64L223.692 110.528C223.84 111.175 223.979 111.826 224.109 112.48L223.619 112.577C223.746 113.221 223.864 113.869 223.973 114.521L224.466 114.438C224.575 115.092 224.674 115.749 224.764 116.41L224.268 116.477C224.357 117.129 224.435 117.784 224.505 118.442L225.002 118.39C225.071 119.048 225.13 119.709 225.18 120.373L224.681 120.41C224.73 121.067 224.77 121.726 224.799 122.388L225.299 122.365Z" fill="white" fill-opacity="0.5" stroke="#E3DED6" stroke-dasharray="2 2"/>
<path d="M129.165 13V5.08H132.633C133.593 5.08 134.301 5.268 134.757 5.644C135.213 6.02 135.441 6.552 135.441 7.24C135.441 7.664 135.313 8.04 135.057 8.368C134.801 8.696 134.425 8.904 133.929 8.992V9.004C134.481 9.084 134.905 9.292 135.201 9.628C135.497 9.964 135.645 10.364 135.645 10.828C135.645 11.508 135.397 12.04 134.901 12.424C134.413 12.808 133.697 13 132.753 13H129.165ZM130.773 8.404H132.417C133.289 8.404 133.725 8.064 133.725 7.384C133.725 6.704 133.289 6.364 132.417 6.364H130.773V8.404ZM130.773 11.752H132.609C133.049 11.752 133.377 11.664 133.593 11.488C133.817 11.304 133.929 11.044 133.929 10.708C133.929 10.38 133.817 10.128 133.593 9.952C133.377 9.768 133.049 9.676 132.609 9.676H130.773V11.752ZM137.887 6.136C137.207 6.136 136.867 5.844 136.867 5.26C136.867 4.668 137.207 4.372 137.887 4.372C138.567 4.372 138.907 4.668 138.907 5.26C138.907 5.844 138.567 6.136 137.887 6.136ZM138.703 7V13H137.059V7H138.703ZM143.182 6.88C143.782 6.88 144.314 7.004 144.778 7.252C145.242 7.5 145.602 7.856 145.858 8.32C146.122 8.784 146.254 9.344 146.254 10C146.254 10.656 146.122 11.216 145.858 11.68C145.602 12.144 145.242 12.5 144.778 12.748C144.314 12.996 143.782 13.12 143.182 13.12C142.574 13.12 142.038 12.996 141.574 12.748C141.118 12.5 140.758 12.144 140.494 11.68C140.238 11.216 140.11 10.656 140.11 10C140.11 9.344 140.238 8.784 140.494 8.32C140.758 7.856 141.118 7.5 141.574 7.252C142.038 7.004 142.574 6.88 143.182 6.88ZM143.182 8.104C142.734 8.104 142.382 8.264 142.126 8.584C141.878 8.896 141.754 9.368 141.754 10C141.754 10.632 141.878 11.108 142.126 11.428C142.382 11.74 142.734 11.896 143.182 11.896C143.622 11.896 143.966 11.74 144.214 11.428C144.47 11.108 144.598 10.632 144.598 10C144.598 9.368 144.47 8.896 144.214 8.584C143.966 8.264 143.622 8.104 143.182 8.104ZM149.898 13.12C149.402 13.12 148.958 12.996 148.566 12.748C148.182 12.5 147.878 12.148 147.654 11.692C147.438 11.228 147.33 10.668 147.33 10.012C147.33 9.348 147.446 8.784 147.678 8.32C147.91 7.848 148.222 7.492 148.614 7.252C149.014 7.004 149.462 6.88 149.958 6.88C150.39 6.88 150.762 6.984 151.074 7.192C151.386 7.4 151.622 7.676 151.782 8.02V4.372H153.426V13H151.95L151.878 11.836C151.71 12.236 151.45 12.552 151.098 12.784C150.746 13.008 150.346 13.12 149.898 13.12ZM150.378 11.86C150.802 11.86 151.142 11.696 151.398 11.368C151.654 11.032 151.782 10.56 151.782 9.952C151.782 9.376 151.654 8.932 151.398 8.62C151.15 8.3 150.818 8.14 150.402 8.14C149.954 8.14 149.602 8.3 149.346 8.62C149.098 8.932 148.974 9.392 148.974 10C148.974 10.608 149.098 11.072 149.346 11.392C149.594 11.704 149.938 11.86 150.378 11.86ZM155.981 6.136C155.301 6.136 154.961 5.844 154.961 5.26C154.961 4.668 155.301 4.372 155.981 4.372C156.661 4.372 157.001 4.668 157.001 5.26C157.001 5.844 156.661 6.136 155.981 6.136ZM156.797 7V13H155.153V7H156.797ZM162.476 7H164.18L161.9 13H160.004L157.724 7H159.488L160.964 11.74L162.476 7ZM167.804 13.12C166.86 13.12 166.104 12.848 165.536 12.304C164.968 11.752 164.684 10.984 164.684 10C164.684 9.344 164.812 8.784 165.068 8.32C165.324 7.856 165.68 7.5 166.136 7.252C166.6 7.004 167.128 6.88 167.72 6.88C168.328 6.88 168.844 7.004 169.268 7.252C169.692 7.492 170.016 7.824 170.24 8.248C170.464 8.664 170.576 9.14 170.576 9.676C170.576 9.836 170.572 9.988 170.564 10.132C170.556 10.276 170.544 10.404 170.528 10.516H166.292C166.356 10.98 166.516 11.328 166.772 11.56C167.036 11.784 167.376 11.896 167.792 11.896C168.144 11.896 168.428 11.828 168.644 11.692C168.86 11.556 169.028 11.368 169.148 11.128L170.456 11.632C170.264 12.104 169.928 12.472 169.448 12.736C168.968 12.992 168.42 13.12 167.804 13.12ZM167.708 8.092C166.932 8.092 166.464 8.52 166.304 9.376H169.004C168.956 8.96 168.82 8.644 168.596 8.428C168.38 8.204 168.084 8.092 167.708 8.092ZM171.969 13V7H173.397L173.505 8.176C173.657 7.768 173.885 7.452 174.189 7.228C174.501 6.996 174.893 6.88 175.365 6.88C175.645 6.88 175.861 6.924 176.013 7.012L175.821 8.392C175.741 8.368 175.641 8.348 175.521 8.332C175.409 8.308 175.261 8.296 175.077 8.296C174.829 8.296 174.593 8.356 174.369 8.476C174.153 8.588 173.973 8.764 173.829 9.004C173.685 9.236 173.613 9.532 173.613 9.892V13H171.969ZM179.28 13.12C178.672 13.12 178.116 13.012 177.612 12.796C177.116 12.58 176.712 12.276 176.4 11.884L177.348 10.924C177.54 11.212 177.796 11.448 178.116 11.632C178.436 11.816 178.816 11.908 179.256 11.908C179.568 11.908 179.816 11.864 180 11.776C180.192 11.68 180.288 11.532 180.288 11.332C180.288 11.204 180.244 11.096 180.156 11.008C180.068 10.912 179.892 10.836 179.628 10.78L178.572 10.564C177.876 10.42 177.38 10.204 177.084 9.916C176.796 9.62 176.652 9.24 176.652 8.776C176.652 8.448 176.748 8.14 176.94 7.852C177.14 7.564 177.436 7.332 177.828 7.156C178.22 6.972 178.708 6.88 179.292 6.88C180.508 6.88 181.38 7.252 181.908 7.996L180.924 8.956C180.748 8.676 180.516 8.464 180.228 8.32C179.948 8.168 179.652 8.092 179.34 8.092C178.636 8.092 178.284 8.288 178.284 8.68C178.284 8.808 178.34 8.92 178.452 9.016C178.564 9.104 178.768 9.18 179.064 9.244L180.288 9.496C180.88 9.616 181.304 9.82 181.56 10.108C181.816 10.388 181.944 10.728 181.944 11.128C181.944 11.704 181.712 12.18 181.248 12.556C180.792 12.932 180.136 13.12 179.28 13.12ZM184.083 6.136C183.403 6.136 183.063 5.844 183.063 5.26C183.063 4.668 183.403 4.372 184.083 4.372C184.763 4.372 185.103 4.668 185.103 5.26C185.103 5.844 184.763 6.136 184.083 6.136ZM184.899 7V13H183.255V7H184.899ZM190.685 7V8.224H188.765V11.044C188.765 11.332 188.837 11.544 188.981 11.68C189.133 11.808 189.337 11.872 189.593 11.872C189.801 11.872 189.977 11.844 190.121 11.788C190.273 11.724 190.409 11.64 190.529 11.536L190.793 12.628C190.593 12.78 190.349 12.9 190.061 12.988C189.781 13.076 189.481 13.12 189.161 13.12C188.561 13.12 188.069 12.984 187.685 12.712C187.309 12.432 187.121 11.964 187.121 11.308V8.224H186.017V7H187.121V5.62L188.765 5.164V7H190.685ZM197.438 7L195.014 13.372C194.822 13.916 194.606 14.348 194.366 14.668C194.134 14.996 193.862 15.228 193.55 15.364C193.246 15.508 192.882 15.58 192.458 15.58C192.146 15.58 191.858 15.544 191.594 15.472C191.338 15.4 191.114 15.3 190.922 15.172L191.27 13.984C191.55 14.208 191.902 14.32 192.326 14.32C192.558 14.32 192.754 14.272 192.914 14.176C193.074 14.08 193.21 13.888 193.322 13.6L193.526 13.084L192.866 11.524L191.03 7H192.854L193.994 10.6L194.306 11.8L194.678 10.528L195.77 7H197.438Z" fill="#585858"/>
<path d="M136.857 249.959C136.617 250.735 136.197 251.315 135.597 251.699C134.997 252.075 134.297 252.263 133.497 252.263C132.713 252.263 132.033 252.099 131.457 251.771C130.889 251.443 130.449 250.975 130.137 250.367C129.833 249.759 129.681 249.031 129.681 248.183C129.681 247.335 129.837 246.607 130.149 245.999C130.461 245.391 130.901 244.923 131.469 244.595C132.037 244.267 132.705 244.103 133.473 244.103C134.281 244.103 134.973 244.275 135.549 244.619C136.133 244.955 136.533 245.467 136.749 246.155L135.249 246.791C135.113 246.311 134.905 245.971 134.625 245.771C134.345 245.563 133.985 245.459 133.545 245.459C132.889 245.459 132.365 245.695 131.973 246.167C131.589 246.631 131.397 247.303 131.397 248.183C131.397 249.055 131.581 249.727 131.949 250.199C132.317 250.671 132.849 250.907 133.545 250.907C133.977 250.907 134.349 250.791 134.661 250.559C134.981 250.327 135.205 249.975 135.333 249.503L136.857 249.959ZM140.837 246.023C141.437 246.023 141.969 246.147 142.433 246.395C142.897 246.643 143.257 246.999 143.513 247.463C143.777 247.927 143.909 248.487 143.909 249.143C143.909 249.799 143.777 250.359 143.513 250.823C143.257 251.287 142.897 251.643 142.433 251.891C141.969 252.139 141.437 252.263 140.837 252.263C140.229 252.263 139.693 252.139 139.229 251.891C138.773 251.643 138.413 251.287 138.149 250.823C137.893 250.359 137.765 249.799 137.765 249.143C137.765 248.487 137.893 247.927 138.149 247.463C138.413 246.999 138.773 246.643 139.229 246.395C139.693 246.147 140.229 246.023 140.837 246.023ZM140.837 247.247C140.389 247.247 140.037 247.407 139.781 247.727C139.533 248.039 139.409 248.511 139.409 249.143C139.409 249.775 139.533 250.251 139.781 250.571C140.037 250.883 140.389 251.039 140.837 251.039C141.277 251.039 141.621 250.883 141.869 250.571C142.125 250.251 142.253 249.775 142.253 249.143C142.253 248.511 142.125 248.039 141.869 247.727C141.621 247.407 141.277 247.247 140.837 247.247ZM145.284 252.143V246.143H146.76L146.82 247.223C147.02 246.823 147.292 246.523 147.636 246.323C147.988 246.123 148.376 246.023 148.8 246.023C149.232 246.023 149.62 246.123 149.964 246.323C150.316 246.515 150.58 246.811 150.756 247.211C150.94 246.811 151.224 246.515 151.608 246.323C151.992 246.123 152.388 246.023 152.796 246.023C153.188 246.023 153.544 246.103 153.864 246.263C154.192 246.423 154.452 246.663 154.644 246.983C154.836 247.303 154.932 247.711 154.932 248.207V252.143H153.288V248.531C153.288 248.091 153.188 247.779 152.988 247.595C152.796 247.411 152.552 247.319 152.256 247.319C151.888 247.319 151.576 247.455 151.32 247.727C151.064 247.991 150.936 248.387 150.936 248.915V252.143H149.292V248.531C149.292 248.091 149.192 247.779 148.992 247.595C148.8 247.411 148.552 247.319 148.248 247.319C148.04 247.319 147.832 247.375 147.624 247.487C147.424 247.599 147.256 247.775 147.12 248.015C146.992 248.255 146.928 248.571 146.928 248.963V252.143H145.284ZM156.628 252.143V246.143H158.104L158.164 247.223C158.364 246.823 158.636 246.523 158.98 246.323C159.332 246.123 159.72 246.023 160.144 246.023C160.576 246.023 160.964 246.123 161.308 246.323C161.66 246.515 161.924 246.811 162.1 247.211C162.284 246.811 162.568 246.515 162.952 246.323C163.336 246.123 163.732 246.023 164.14 246.023C164.532 246.023 164.888 246.103 165.208 246.263C165.536 246.423 165.796 246.663 165.988 246.983C166.18 247.303 166.276 247.711 166.276 248.207V252.143H164.632V248.531C164.632 248.091 164.532 247.779 164.332 247.595C164.14 247.411 163.896 247.319 163.6 247.319C163.232 247.319 162.92 247.455 162.664 247.727C162.408 247.991 162.28 248.387 162.28 248.915V252.143H160.636V248.531C160.636 248.091 160.536 247.779 160.336 247.595C160.144 247.411 159.896 247.319 159.592 247.319C159.384 247.319 159.176 247.375 158.968 247.487C158.768 247.599 158.6 247.775 158.464 248.015C158.336 248.255 158.272 248.571 158.272 248.963V252.143H156.628ZM170.06 252.263C169.66 252.263 169.3 252.191 168.98 252.047C168.66 251.903 168.404 251.675 168.212 251.363C168.028 251.051 167.936 250.639 167.936 250.127V246.143H169.58V249.731C169.58 250.195 169.676 250.519 169.868 250.703C170.06 250.879 170.336 250.967 170.696 250.967C171.04 250.967 171.344 250.843 171.608 250.595C171.88 250.339 172.016 249.931 172.016 249.371V246.143H173.66V252.143H172.196L172.136 251.099C171.936 251.491 171.66 251.783 171.308 251.975C170.956 252.167 170.54 252.263 170.06 252.263ZM175.39 252.143V246.143H176.866L176.926 247.271C177.11 246.855 177.378 246.543 177.73 246.335C178.09 246.127 178.502 246.023 178.966 246.023C179.59 246.023 180.106 246.207 180.514 246.575C180.922 246.935 181.126 247.479 181.126 248.207V252.143H179.482V248.675C179.482 248.163 179.378 247.811 179.17 247.619C178.97 247.419 178.714 247.319 178.402 247.319C178.178 247.319 177.958 247.375 177.742 247.487C177.534 247.591 177.362 247.763 177.226 248.003C177.098 248.243 177.034 248.563 177.034 248.963V252.143H175.39ZM183.648 245.279C182.968 245.279 182.628 244.987 182.628 244.403C182.628 243.811 182.968 243.515 183.648 243.515C184.328 243.515 184.668 243.811 184.668 244.403C184.668 244.987 184.328 245.279 183.648 245.279ZM184.464 246.143V252.143H182.82V246.143H184.464ZM190.25 246.143V247.367H188.33V250.187C188.33 250.475 188.402 250.687 188.546 250.823C188.698 250.951 188.902 251.015 189.158 251.015C189.366 251.015 189.542 250.987 189.686 250.931C189.838 250.867 189.974 250.783 190.094 250.679L190.358 251.771C190.158 251.923 189.914 252.043 189.626 252.131C189.346 252.219 189.046 252.263 188.726 252.263C188.126 252.263 187.634 252.127 187.25 251.855C186.874 251.575 186.686 251.107 186.686 250.451V247.367H185.582V246.143H186.686V244.763L188.33 244.307V246.143H190.25ZM197.003 246.143L194.579 252.515C194.387 253.059 194.171 253.491 193.931 253.811C193.699 254.139 193.427 254.371 193.115 254.507C192.811 254.651 192.447 254.723 192.023 254.723C191.711 254.723 191.423 254.687 191.159 254.615C190.903 254.543 190.679 254.443 190.487 254.315L190.835 253.127C191.115 253.351 191.467 253.463 191.891 253.463C192.123 253.463 192.319 253.415 192.479 253.319C192.639 253.223 192.775 253.031 192.887 252.743L193.091 252.227L192.431 250.667L190.595 246.143H192.419L193.559 249.743L193.871 250.943L194.243 249.671L195.335 246.143H197.003Z" fill="#585858"/>
<path d="M284.511 129.744C284.271 130.52 283.851 131.1 283.251 131.484C282.651 131.86 281.951 132.048 281.151 132.048C280.367 132.048 279.687 131.884 279.111 131.556C278.543 131.228 278.103 130.76 277.791 130.152C277.487 129.544 277.335 128.816 277.335 127.968C277.335 127.12 277.491 126.392 277.803 125.784C278.115 125.176 278.555 124.708 279.123 124.38C279.691 124.052 280.359 123.888 281.127 123.888C281.935 123.888 282.627 124.06 283.203 124.404C283.787 124.74 284.187 125.252 284.403 125.94L282.903 126.576C282.767 126.096 282.559 125.756 282.279 125.556C281.999 125.348 281.639 125.244 281.199 125.244C280.543 125.244 280.019 125.48 279.627 125.952C279.243 126.416 279.051 127.088 279.051 127.968C279.051 128.84 279.235 129.512 279.603 129.984C279.971 130.456 280.503 130.692 281.199 130.692C281.631 130.692 282.003 130.576 282.315 130.344C282.635 130.112 282.859 129.76 282.987 129.288L284.511 129.744ZM287.375 123.3V130.08C287.375 130.36 287.423 130.556 287.519 130.668C287.615 130.78 287.775 130.836 287.999 130.836C288.135 130.836 288.247 130.828 288.335 130.812C288.423 130.796 288.535 130.764 288.671 130.716L288.527 131.796C288.391 131.876 288.219 131.936 288.011 131.976C287.811 132.024 287.611 132.048 287.411 132.048C286.827 132.048 286.399 131.908 286.127 131.628C285.863 131.34 285.731 130.884 285.731 130.26V123.3H287.375ZM290.415 125.064C289.735 125.064 289.395 124.772 289.395 124.188C289.395 123.596 289.735 123.3 290.415 123.3C291.095 123.3 291.435 123.596 291.435 124.188C291.435 124.772 291.095 125.064 290.415 125.064ZM291.231 125.928V131.928H289.587V125.928H291.231ZM292.973 131.928V125.928H294.449L294.509 127.008C294.709 126.608 294.981 126.308 295.325 126.108C295.677 125.908 296.065 125.808 296.489 125.808C296.921 125.808 297.309 125.908 297.653 126.108C298.005 126.3 298.269 126.596 298.445 126.996C298.629 126.596 298.913 126.3 299.297 126.108C299.681 125.908 300.077 125.808 300.485 125.808C300.877 125.808 301.233 125.888 301.553 126.048C301.881 126.208 302.141 126.448 302.333 126.768C302.525 127.088 302.621 127.496 302.621 127.992V131.928H300.977V128.316C300.977 127.876 300.877 127.564 300.677 127.38C300.485 127.196 300.241 127.104 299.945 127.104C299.577 127.104 299.265 127.24 299.009 127.512C298.753 127.776 298.625 128.172 298.625 128.7V131.928H296.981V128.316C296.981 127.876 296.881 127.564 296.681 127.38C296.489 127.196 296.241 127.104 295.937 127.104C295.729 127.104 295.521 127.16 295.313 127.272C295.113 127.384 294.945 127.56 294.809 127.8C294.681 128.04 294.617 128.356 294.617 128.748V131.928H292.973ZM307.737 128.1C307.737 127.756 307.637 127.488 307.437 127.296C307.245 127.104 306.989 127.008 306.669 127.008C306.373 127.008 306.113 127.084 305.889 127.236C305.665 127.388 305.501 127.64 305.397 127.992L303.993 127.56C304.129 127.032 304.425 126.608 304.881 126.288C305.345 125.968 305.965 125.808 306.741 125.808C307.525 125.808 308.157 125.996 308.637 126.372C309.125 126.74 309.369 127.292 309.369 128.028V130.464C309.369 130.768 309.513 130.92 309.801 130.92C309.937 130.92 310.065 130.9 310.185 130.86L310.089 131.88C309.881 131.984 309.621 132.036 309.309 132.036C308.965 132.036 308.665 131.964 308.409 131.82C308.161 131.676 307.993 131.46 307.905 131.172C307.713 131.46 307.437 131.68 307.077 131.832C306.725 131.976 306.361 132.048 305.985 132.048C305.377 132.048 304.893 131.912 304.533 131.64C304.181 131.36 304.005 130.956 304.005 130.428C304.005 129.98 304.149 129.616 304.437 129.336C304.725 129.048 305.137 128.852 305.673 128.748L307.737 128.328V128.1ZM305.649 130.272C305.649 130.472 305.721 130.624 305.865 130.728C306.017 130.832 306.197 130.884 306.405 130.884C306.637 130.884 306.853 130.848 307.053 130.776C307.253 130.704 307.417 130.584 307.545 130.416C307.673 130.24 307.737 130.008 307.737 129.72V129.348L306.477 129.6C306.205 129.656 305.997 129.732 305.853 129.828C305.717 129.916 305.649 130.064 305.649 130.272ZM315.017 125.928V127.152H313.097V129.972C313.097 130.26 313.169 130.472 313.313 130.608C313.465 130.736 313.669 130.8 313.925 130.8C314.133 130.8 314.309 130.772 314.453 130.716C314.605 130.652 314.741 130.568 314.861 130.464L315.125 131.556C314.925 131.708 314.681 131.828 314.393 131.916C314.113 132.004 313.813 132.048 313.493 132.048C312.893 132.048 312.401 131.912 312.017 131.64C311.641 131.36 311.453 130.892 311.453 130.236V127.152H310.349V125.928H311.453V124.548L313.097 124.092V125.928H315.017ZM318.914 132.048C317.97 132.048 317.214 131.776 316.646 131.232C316.078 130.68 315.794 129.912 315.794 128.928C315.794 128.272 315.922 127.712 316.178 127.248C316.434 126.784 316.79 126.428 317.246 126.18C317.71 125.932 318.238 125.808 318.83 125.808C319.438 125.808 319.954 125.932 320.378 126.18C320.802 126.42 321.126 126.752 321.35 127.176C321.574 127.592 321.686 128.068 321.686 128.604C321.686 128.764 321.682 128.916 321.674 129.06C321.666 129.204 321.654 129.332 321.638 129.444H317.402C317.466 129.908 317.626 130.256 317.882 130.488C318.146 130.712 318.486 130.824 318.902 130.824C319.254 130.824 319.538 130.756 319.754 130.62C319.97 130.484 320.138 130.296 320.258 130.056L321.566 130.56C321.374 131.032 321.038 131.4 320.558 131.664C320.078 131.92 319.53 132.048 318.914 132.048ZM318.818 127.02C318.042 127.02 317.574 127.448 317.414 128.304H320.114C320.066 127.888 319.93 127.572 319.706 127.356C319.49 127.132 319.194 127.02 318.818 127.02Z" fill="#585858"/>
<path d="M15.8806 131.928L13.5766 124.008H15.3406L16.9006 130.548L18.4846 124.008H20.0686L21.6766 130.548L23.2246 124.008H24.9166L22.6126 131.928H20.7526L19.6486 127.608L19.2766 125.736H19.2526L18.8806 127.608L17.7886 131.928H15.8806ZM28.9647 128.1C28.9647 127.756 28.8647 127.488 28.6647 127.296C28.4727 127.104 28.2167 127.008 27.8967 127.008C27.6007 127.008 27.3407 127.084 27.1167 127.236C26.8927 127.388 26.7287 127.64 26.6247 127.992L25.2207 127.56C25.3567 127.032 25.6527 126.608 26.1087 126.288C26.5727 125.968 27.1927 125.808 27.9687 125.808C28.7527 125.808 29.3847 125.996 29.8647 126.372C30.3527 126.74 30.5967 127.292 30.5967 128.028V130.464C30.5967 130.768 30.7407 130.92 31.0287 130.92C31.1647 130.92 31.2927 130.9 31.4127 130.86L31.3167 131.88C31.1087 131.984 30.8487 132.036 30.5367 132.036C30.1927 132.036 29.8927 131.964 29.6367 131.82C29.3887 131.676 29.2207 131.46 29.1327 131.172C28.9407 131.46 28.6647 131.68 28.3047 131.832C27.9527 131.976 27.5887 132.048 27.2127 132.048C26.6047 132.048 26.1207 131.912 25.7607 131.64C25.4087 131.36 25.2327 130.956 25.2327 130.428C25.2327 129.98 25.3767 129.616 25.6647 129.336C25.9527 129.048 26.3647 128.852 26.9007 128.748L28.9647 128.328V128.1ZM26.8767 130.272C26.8767 130.472 26.9487 130.624 27.0927 130.728C27.2447 130.832 27.4247 130.884 27.6327 130.884C27.8647 130.884 28.0807 130.848 28.2807 130.776C28.4807 130.704 28.6447 130.584 28.7727 130.416C28.9007 130.24 28.9647 130.008 28.9647 129.72V129.348L27.7047 129.6C27.4327 129.656 27.2247 129.732 27.0807 129.828C26.9447 129.916 26.8767 130.064 26.8767 130.272ZM36.2449 125.928V127.152H34.3249V129.972C34.3249 130.26 34.3969 130.472 34.5409 130.608C34.6929 130.736 34.8969 130.8 35.1529 130.8C35.3609 130.8 35.5369 130.772 35.6809 130.716C35.8329 130.652 35.9689 130.568 36.0889 130.464L36.3529 131.556C36.1529 131.708 35.9089 131.828 35.6209 131.916C35.3409 132.004 35.0409 132.048 34.7209 132.048C34.1209 132.048 33.6289 131.912 33.2449 131.64C32.8689 131.36 32.6809 130.892 32.6809 130.236V127.152H31.5769V125.928H32.6809V124.548L34.3249 124.092V125.928H36.2449ZM40.1412 132.048C39.1972 132.048 38.4412 131.776 37.8732 131.232C37.3052 130.68 37.0212 129.912 37.0212 128.928C37.0212 128.272 37.1492 127.712 37.4052 127.248C37.6612 126.784 38.0172 126.428 38.4732 126.18C38.9372 125.932 39.4652 125.808 40.0572 125.808C40.6652 125.808 41.1812 125.932 41.6052 126.18C42.0292 126.42 42.3532 126.752 42.5772 127.176C42.8012 127.592 42.9132 128.068 42.9132 128.604C42.9132 128.764 42.9092 128.916 42.9012 129.06C42.8932 129.204 42.8812 129.332 42.8652 129.444H38.6292C38.6932 129.908 38.8532 130.256 39.1092 130.488C39.3732 130.712 39.7132 130.824 40.1292 130.824C40.4812 130.824 40.7652 130.756 40.9812 130.62C41.1972 130.484 41.3652 130.296 41.4852 130.056L42.7932 130.56C42.6012 131.032 42.2652 131.4 41.7852 131.664C41.3052 131.92 40.7572 132.048 40.1412 132.048ZM40.0452 127.02C39.2692 127.02 38.8012 127.448 38.6412 128.304H41.3412C41.2932 127.888 41.1572 127.572 40.9332 127.356C40.7172 127.132 40.4212 127.02 40.0452 127.02ZM44.3064 131.928V125.928H45.7344L45.8424 127.104C45.9944 126.696 46.2224 126.38 46.5264 126.156C46.8384 125.924 47.2304 125.808 47.7024 125.808C47.9824 125.808 48.1984 125.852 48.3504 125.94L48.1584 127.32C48.0784 127.296 47.9784 127.276 47.8584 127.26C47.7464 127.236 47.5984 127.224 47.4144 127.224C47.1664 127.224 46.9304 127.284 46.7064 127.404C46.4904 127.516 46.3104 127.692 46.1664 127.932C46.0224 128.164 45.9504 128.46 45.9504 128.82V131.928H44.3064Z" fill="#585858"/>
<path d="M166.379 32.2861V27.2701C166.379 27.0861 166.379 26.8981 166.379 26.7061C166.387 26.5061 166.395 26.3021 166.403 26.0941C166.131 26.3501 165.827 26.5701 165.491 26.7541C165.155 26.9301 164.811 27.0541 164.459 27.1261L164.243 25.7341C164.419 25.7101 164.623 25.6541 164.855 25.5661C165.087 25.4781 165.319 25.3701 165.551 25.2421C165.791 25.1141 166.007 24.9741 166.199 24.8221C166.399 24.6701 166.551 24.5181 166.655 24.3661H167.999V32.2861H166.379ZM172.823 32.4061C171.807 32.4061 171.023 32.0621 170.471 31.3741C169.927 30.6781 169.655 29.6621 169.655 28.3261C169.655 26.9901 169.927 25.9781 170.471 25.2901C171.023 24.5941 171.807 24.2461 172.823 24.2461C173.839 24.2461 174.619 24.5941 175.163 25.2901C175.715 25.9781 175.991 26.9901 175.991 28.3261C175.991 29.6621 175.715 30.6781 175.163 31.3741C174.619 32.0621 173.839 32.4061 172.823 32.4061ZM172.823 31.0741C173.335 31.0741 173.715 30.8541 173.963 30.4141C174.211 29.9661 174.335 29.2701 174.335 28.3261C174.335 27.3821 174.211 26.6901 173.963 26.2501C173.715 25.8021 173.335 25.5781 172.823 25.5781C172.311 25.5781 171.931 25.8021 171.683 26.2501C171.435 26.6901 171.311 27.3821 171.311 28.3261C171.311 29.2701 171.435 29.9661 171.683 30.4141C171.931 30.8541 172.311 31.0741 172.823 31.0741Z" fill="#585858"/>
<path d="M169.324 74.1913C168.628 74.1913 168.04 74.0473 167.56 73.7593C167.088 73.4713 166.7 73.0313 166.396 72.4393L167.884 71.6953C167.988 72.0473 168.152 72.3313 168.376 72.5473C168.6 72.7633 168.928 72.8713 169.36 72.8713C169.8 72.8713 170.144 72.7553 170.392 72.5233C170.648 72.2913 170.776 71.9593 170.776 71.5273C170.776 71.0953 170.656 70.7673 170.416 70.5433C170.184 70.3193 169.844 70.2073 169.396 70.2073C168.74 70.2073 168.256 70.3993 167.944 70.7833L166.648 70.5433L167.14 66.1513H171.928V67.4833H168.388L168.148 69.4153L168.112 69.5713H168.136C168.304 69.3873 168.532 69.2433 168.82 69.1393C169.116 69.0273 169.452 68.9713 169.828 68.9713C170.34 68.9713 170.78 69.0753 171.148 69.2833C171.524 69.4913 171.812 69.7833 172.012 70.1593C172.212 70.5273 172.312 70.9513 172.312 71.4313C172.312 72.0393 172.176 72.5513 171.904 72.9673C171.64 73.3753 171.28 73.6833 170.824 73.8913C170.376 74.0913 169.876 74.1913 169.324 74.1913Z" fill="#585858"/>
<path d="M169.708 139.762C168.692 139.762 167.908 139.418 167.356 138.73C166.812 138.034 166.54 137.018 166.54 135.682C166.54 134.346 166.812 133.334 167.356 132.646C167.908 131.95 168.692 131.602 169.708 131.602C170.724 131.602 171.504 131.95 172.048 132.646C172.6 133.334 172.876 134.346 172.876 135.682C172.876 137.018 172.6 138.034 172.048 138.73C171.504 139.418 170.724 139.762 169.708 139.762ZM169.708 138.43C170.22 138.43 170.6 138.21 170.848 137.77C171.096 137.322 171.22 136.626 171.22 135.682C171.22 134.738 171.096 134.046 170.848 133.606C170.6 133.158 170.22 132.934 169.708 132.934C169.196 132.934 168.816 133.158 168.568 133.606C168.32 134.046 168.196 134.738 168.196 135.682C168.196 136.626 168.32 137.322 168.568 137.77C168.816 138.21 169.196 138.43 169.708 138.43Z" fill="#585858"/>
<path d="M210.894 123.321C209.309 89.7685 178.067 70.9448 163.998 70.9448C142.895 70.9448 71.1436 101.102 71.1436 123.321C71.1436 150.741 141.488 203.217 163.998 203.217C183.694 203.217 212.605 159.535 210.894 123.321Z" fill="url(#paint0_diamond_2_5384)" fill-opacity="0.8"/>
<defs>
<radialGradient id="paint0_diamond_2_5384" cx="0" cy="0" r="1" gradientUnits="userSpaceOnUse" gradientTransform="translate(161.653 121.903) rotate(89.6555) scale(156.012 175.542)">
<stop stop-color="#316146"/>
<stop offset="1" stop-color="#CFD762" stop-opacity="0.62"/>
</radialGradient>
</defs>
</svg>
