<svg width="178" height="178" viewBox="0 0 178 178" fill="none" xmlns="http://www.w3.org/2000/svg">
<path d="M178 89C178 138.153 138.153 178 89 178C39.8467 178 0 138.153 0 89C0 39.8467 39.8467 0 89 0C138.153 0 178 39.8467 178 89Z" fill="#FBF7F2"/>
<path fill-rule="evenodd" clip-rule="evenodd" d="M82.3613 32C74.6293 32 68.3613 38.268 68.3613 46V53.9639H76.3613V46C76.3613 42.6863 79.0476 40 82.3613 40H88.6143V32H82.3613ZM94.8677 32C102.6 32 108.868 38.268 108.868 46V53.9639H100.868V46C100.868 42.6863 98.1814 40 94.8677 40H88.6147V32H94.8677Z" fill="#316146"/>
<path d="M39 88.609C39 84.357 42.4469 80.9102 46.6988 80.9102H59.5301V96.3077H46.6988C42.4469 96.3077 39 92.8609 39 88.609V88.609Z" fill="#CFD762"/>
<path d="M138.229 88.609C138.229 84.357 134.782 80.9102 130.53 80.9102H117.699V96.3077H130.53C134.782 96.3077 138.229 92.8609 138.229 88.609V88.609Z" fill="#CFD762"/>
<path fill-rule="evenodd" clip-rule="evenodd" d="M49.2651 60.3789H88.6145V60.379H127.964L119.856 142.5H88.6145L88.6145 142.499H57.373L49.2651 60.3789Z" fill="#FBF7F2"/>
<path fill-rule="evenodd" clip-rule="evenodd" d="M48.7134 59.8789H89.1146L128.516 59.879L120.309 143H87.9742L56.92 142.999L48.7134 59.8789ZM89.2549 142H119.403L127.412 60.879H88.1146L49.817 60.8789L57.8262 141.999L89.2549 142Z" fill="#316146"/>
<path fill-rule="evenodd" clip-rule="evenodd" d="M88.6145 46.6934H136.518V62.091H88.6146V62.0911H40.7109V46.6935H88.6145V46.6934Z" fill="#FBF7F2"/>
<path fill-rule="evenodd" clip-rule="evenodd" d="M87.6146 61.091H135.518V47.6934H89.6145L41.7109 47.6935V61.0911L87.6146 61.091ZM136.518 46.6934V62.091H88.6146L40.7109 62.0911V46.6935H88.6145L136.518 46.6934Z" fill="#316146"/>
<path fill-rule="evenodd" clip-rule="evenodd" d="M69.7954 80.9102H76.6388V128.814H69.7954V80.9102ZM85.1929 80.9102H92.0362V128.814H85.1929V80.9102ZM100.59 80.9102H107.434V128.814H100.59V80.9102Z" fill="#E6E6E6"/>
</svg>
