<svg width="48" height="48" viewBox="0 0 48 48" fill="none" xmlns="http://www.w3.org/2000/svg">
<g clip-path="url(#clip0_74_14808)">
<path d="M0 24C0 10.7452 10.7452 0 24 0V0C37.2548 0 48 10.7452 48 24V24C48 37.2548 37.2548 48 24 48V48C10.7452 48 0 37.2548 0 24V24Z" fill="#F3F4F6"/>
<path d="M48 41.988V48.002H0V42.01C2.7919 38.2789 6.41581 35.2507 10.5836 33.1661C14.7513 31.0815 19.348 29.9981 24.008 30.002C33.816 30.002 42.528 34.71 48 41.988ZM32.004 18C32.004 20.1217 31.1611 22.1566 29.6609 23.6569C28.1606 25.1571 26.1257 26 24.004 26C21.8823 26 19.8474 25.1571 18.3471 23.6569C16.8469 22.1566 16.004 20.1217 16.004 18C16.004 15.8783 16.8469 13.8434 18.3471 12.3431C19.8474 10.8429 21.8823 10 24.004 10C26.1257 10 28.1606 10.8429 29.6609 12.3431C31.1611 13.8434 32.004 15.8783 32.004 18Z" fill="#D1D5DB"/>
</g>
<defs>
<clipPath id="clip0_74_14808">
<path d="M0 24C0 10.7452 10.7452 0 24 0V0C37.2548 0 48 10.7452 48 24V24C48 37.2548 37.2548 48 24 48V48C10.7452 48 0 37.2548 0 24V24Z" fill="white"/>
</clipPath>
</defs>
</svg>
