<svg width="500" height="530" viewBox="0 0 500 530" fill="none" xmlns="http://www.w3.org/2000/svg">
<g clip-path="url(#clip0_2_2950)">
<path d="M236.999 291.623L237 291.623C237.92 291.917 238.877 292.066 239.84 292.066C241.928 292.064 243.964 291.366 245.647 290.07C247.33 288.774 248.573 286.949 249.189 284.859L236.999 291.623ZM236.999 291.623L28.6388 225.462C26.1664 224.674 24.0893 222.895 22.8687 220.51C21.6478 218.124 21.3859 215.329 22.1422 212.741L74.6515 33.7472L236.999 291.623ZM301.698 105.865L249.189 284.858L74.6516 33.7466C75.4134 31.1605 77.1282 29.0003 79.4131 27.7348C81.6974 26.4698 84.3683 26.1999 86.8418 26.9822L295.201 93.1429C297.674 93.9312 299.751 95.7097 300.972 98.0954C302.193 100.482 302.454 103.276 301.698 105.865Z" fill="white" stroke="#EEEAE5"/>
<path d="M270.871 263.876H53.0217C50.2163 263.872 47.5268 262.711 45.5431 260.648C43.5594 258.584 42.4436 255.786 42.4404 252.867V65.7214C42.4436 62.8028 43.5594 60.0046 45.5431 57.9408C47.5268 55.877 50.2163 54.7162 53.0217 54.7129H270.871C273.676 54.7162 276.366 55.8771 278.349 57.9409C280.333 60.0046 281.449 62.8028 281.452 65.7214V252.867C281.449 255.786 280.333 258.584 278.349 260.648C276.366 262.711 273.676 263.872 270.871 263.876ZM53.0217 56.008C50.5464 56.0109 48.1732 57.0352 46.4229 58.8562C44.6726 60.6772 43.6881 63.1462 43.6853 65.7214V252.867C43.6881 255.442 44.6726 257.911 46.4229 259.732C48.1732 261.553 50.5464 262.577 53.0217 262.58H270.871C273.346 262.577 275.719 261.553 277.47 259.732C279.22 257.911 280.204 255.442 280.207 252.867V65.7214C280.204 63.1462 279.22 60.6772 277.47 58.8562C275.719 57.0352 273.346 56.0109 270.871 56.008H53.0217Z" fill="#CFD762"/>
<path fill-rule="evenodd" clip-rule="evenodd" d="M161.945 241.858C161.78 241.858 161.622 241.79 161.505 241.668C161.389 241.547 161.323 241.382 161.323 241.21V211.379L95.6978 178.332C95.6243 178.295 95.5584 178.243 95.5041 178.18C95.4498 178.116 95.408 178.042 95.3812 177.962C95.3543 177.882 95.343 177.797 95.3477 177.712C95.3525 177.627 95.3733 177.544 95.4089 177.467C95.4445 177.391 95.4942 177.322 95.5553 177.266C95.6163 177.209 95.6875 177.166 95.7647 177.138C95.8419 177.11 95.9236 177.098 96.0052 177.103C96.0868 177.108 96.1666 177.13 96.2402 177.167L161.323 209.941V178.14L117.459 153.715C117.314 153.634 117.206 153.496 117.159 153.332C117.111 153.168 117.128 152.991 117.206 152.839C117.284 152.688 117.416 152.575 117.573 152.525C117.731 152.476 117.901 152.493 118.047 152.573L161.323 176.67V141.236L135.505 126.511C135.36 126.429 135.253 126.29 135.206 126.125C135.16 125.96 135.179 125.783 135.258 125.632C135.337 125.481 135.471 125.37 135.63 125.322C135.788 125.274 135.958 125.293 136.103 125.376L161.323 139.759V114.936C161.323 114.764 161.389 114.599 161.505 114.478C161.622 114.356 161.78 114.288 161.945 114.288C162.111 114.288 162.269 114.356 162.386 114.478C162.502 114.599 162.568 114.764 162.568 114.936V139.759L187.788 125.376C187.933 125.293 188.103 125.274 188.262 125.322C188.42 125.37 188.554 125.481 188.633 125.632C188.712 125.783 188.731 125.96 188.685 126.125C188.639 126.29 188.531 126.429 188.386 126.511L162.568 141.236V176.67L205.844 152.573C205.989 152.493 206.16 152.476 206.317 152.525C206.475 152.575 206.607 152.688 206.685 152.839C206.763 152.991 206.78 153.168 206.732 153.332C206.685 153.496 206.576 153.634 206.431 153.715L162.568 178.139V209.94L227.651 177.166C227.725 177.129 227.805 177.107 227.887 177.102C227.968 177.096 228.05 177.108 228.128 177.136C228.205 177.164 228.276 177.207 228.338 177.264C228.399 177.32 228.449 177.389 228.484 177.466C228.52 177.542 228.541 177.626 228.545 177.711C228.55 177.796 228.539 177.881 228.512 177.961C228.485 178.042 228.443 178.116 228.388 178.179C228.334 178.243 228.268 178.294 228.194 178.331L162.568 211.379V241.21C162.568 241.382 162.502 241.547 162.386 241.668C162.269 241.79 162.111 241.858 161.945 241.858Z" fill="#CFD762"/>
<path d="M172.527 263.552H151.364C150.291 263.551 149.263 263.107 148.505 262.318C147.746 261.529 147.32 260.459 147.318 259.343V245.096C147.32 243.98 147.746 242.911 148.505 242.121C149.263 241.332 150.291 240.888 151.364 240.887H172.527C173.599 240.888 174.628 241.332 175.386 242.121C176.144 242.911 176.571 243.98 176.572 245.096V259.343C176.571 260.459 176.144 261.529 175.386 262.318C174.628 263.107 173.599 263.551 172.527 263.552Z" fill="#CFD762"/>
<path d="M43.3657 102.776C48.3958 102.776 52.4735 98.5336 52.4735 93.3004C52.4735 88.0671 48.3958 83.8247 43.3657 83.8247C38.3355 83.8247 34.2578 88.0671 34.2578 93.3004C34.2578 98.5336 38.3355 102.776 43.3657 102.776Z" fill="#E99678"/>
<path d="M290.185 58.5548C290.185 58.918 290.175 59.276 290.145 59.6287C289.991 61.8148 289.371 63.9379 288.33 65.8432C287.288 67.7485 285.851 69.3882 284.124 70.6427C282.396 71.8972 280.421 72.7349 278.343 73.095C276.265 73.455 274.135 73.3283 272.11 72.7239C270.085 72.1196 268.215 71.0529 266.636 69.6015C265.057 68.1502 263.809 66.3507 262.983 64.3342C262.158 62.3177 261.774 60.1349 261.862 57.9449C261.949 55.7549 262.505 53.6127 263.489 51.6744C263.794 51.067 264.142 50.4845 264.531 49.932C266.226 47.4871 268.6 45.6417 271.334 44.6446C274.068 43.6475 277.03 43.5466 279.821 44.3557C282.611 45.1647 285.096 46.8448 286.941 49.1691C288.785 51.4935 289.9 54.3504 290.135 57.3545C290.17 57.7494 290.185 58.1494 290.185 58.5548Z" fill="#CFD762"/>
<path d="M237.725 272.442C242.755 272.442 246.833 268.199 246.833 262.966C246.833 257.733 242.755 253.49 237.725 253.49C232.695 253.49 228.617 257.733 228.617 262.966C228.617 268.199 232.695 272.442 237.725 272.442Z" fill="#FFB6B6"/>
<path d="M168.013 64.5739C173.043 64.5739 177.121 60.3315 177.121 55.0982C177.121 49.865 173.043 45.6226 168.013 45.6226C162.983 45.6226 158.905 49.865 158.905 55.0982C158.905 60.3315 162.983 64.5739 168.013 64.5739Z" fill="#E6E6E6"/>
<path d="M454.101 528.908C453.923 528.908 453.753 528.835 453.628 528.704C453.502 528.574 453.432 528.397 453.432 528.212V515.677C453.432 515.492 453.502 515.315 453.628 515.184C453.753 515.054 453.923 514.98 454.101 514.98C454.279 514.98 454.449 515.054 454.574 515.184C454.7 515.315 454.77 515.492 454.77 515.677V528.212C454.77 528.397 454.7 528.574 454.574 528.704C454.449 528.835 454.279 528.908 454.101 528.908Z" fill="#E6E6E6"/>
<path d="M454.102 512.2C455.95 512.2 457.448 510.641 457.448 508.718C457.448 506.795 455.95 505.236 454.102 505.236C452.253 505.236 450.755 506.795 450.755 508.718C450.755 510.641 452.253 512.2 454.102 512.2Z" fill="#E6E6E6"/>
<path d="M453.432 523.339C453.432 523.339 457.615 515.504 463.472 518.116L453.432 523.339Z" fill="#E6E6E6"/>
<path d="M273.375 528.908C273.198 528.908 273.028 528.835 272.902 528.704C272.777 528.574 272.706 528.397 272.706 528.212V515.677C272.706 515.492 272.777 515.315 272.902 515.184C273.028 515.054 273.198 514.98 273.375 514.98C273.553 514.98 273.723 515.054 273.849 515.184C273.974 515.315 274.045 515.492 274.045 515.677V528.212C274.045 528.397 273.974 528.574 273.849 528.704C273.723 528.835 273.553 528.908 273.375 528.908Z" fill="#E6E6E6"/>
<path d="M273.375 512.2C275.224 512.2 276.722 510.641 276.722 508.718C276.722 506.795 275.224 505.236 273.375 505.236C271.527 505.236 270.028 506.795 270.028 508.718C270.028 510.641 271.527 512.2 273.375 512.2Z" fill="#E6E6E6"/>
<path d="M272.706 523.339C272.706 523.339 276.89 515.504 282.746 518.116L272.706 523.339Z" fill="#E6E6E6"/>
<path d="M306.174 528.908C305.997 528.908 305.826 528.835 305.701 528.704C305.575 528.574 305.505 528.397 305.505 528.212V515.677C305.505 515.492 305.575 515.315 305.701 515.184C305.826 515.054 305.997 514.98 306.174 514.98C306.352 514.98 306.522 515.054 306.647 515.184C306.773 515.315 306.843 515.492 306.843 515.677V528.212C306.843 528.397 306.773 528.574 306.647 528.704C306.522 528.835 306.352 528.908 306.174 528.908Z" fill="#E6E6E6"/>
<path d="M306.174 512.2C308.022 512.2 309.521 510.641 309.521 508.718C309.521 506.795 308.022 505.236 306.174 505.236C304.326 505.236 302.827 506.795 302.827 508.718C302.827 510.641 304.326 512.2 306.174 512.2Z" fill="#E6E6E6"/>
<path d="M305.505 523.339C305.505 523.339 309.688 515.504 315.545 518.116L305.505 523.339Z" fill="#E6E6E6"/>
<path d="M499.33 529.605H244.305C244.128 529.605 243.957 529.531 243.832 529.401C243.706 529.27 243.636 529.093 243.636 528.908C243.636 528.724 243.706 528.546 243.832 528.416C243.957 528.285 244.128 528.212 244.305 528.212H499.33C499.508 528.212 499.678 528.285 499.803 528.416C499.929 528.546 499.999 528.724 499.999 528.908C499.999 529.093 499.929 529.27 499.803 529.401C499.678 529.531 499.508 529.605 499.33 529.605Z" fill="#CCCCCC"/>
<path d="M459.067 530.131C460.776 510.938 465.497 492.168 473.041 474.57C475.144 469.673 477.458 464.883 479.984 460.202C480.633 458.997 478.857 457.915 478.208 459.12C469.022 476.171 462.587 494.681 459.16 513.909C458.206 519.278 457.49 524.685 457.01 530.131C456.888 531.504 458.946 531.495 459.067 530.131H459.067Z" fill="#E6E6E6"/>
<path d="M484.965 463.64C492.159 463.64 497.991 457.56 497.991 450.06C497.991 442.56 492.159 436.48 484.965 436.48C477.772 436.48 471.94 442.56 471.94 450.06C471.94 457.56 477.772 463.64 484.965 463.64Z" fill="#E6E6E6"/>
<path d="M460.399 530.492C461.508 518.04 464.571 505.863 469.465 494.447C470.829 491.27 472.33 488.163 473.969 485.126C474.051 484.967 474.071 484.781 474.024 484.607C473.977 484.433 473.868 484.285 473.718 484.194C473.569 484.103 473.391 484.076 473.223 484.119C473.055 484.162 472.909 484.271 472.817 484.424C466.858 495.486 462.683 507.494 460.46 519.968C459.841 523.451 459.376 526.959 459.065 530.492C458.986 531.383 460.321 531.377 460.399 530.492Z" fill="#E6E6E6"/>
<path d="M477.201 487.355C481.868 487.355 485.651 483.411 485.651 478.545C485.651 473.68 481.868 469.735 477.201 469.735C472.534 469.735 468.751 473.68 468.751 478.545C468.751 483.411 472.534 487.355 477.201 487.355Z" fill="#E6E6E6"/>
<path d="M458.716 529.664C452.245 519.135 447.476 507.57 444.6 495.43C443.802 492.05 443.153 488.637 442.653 485.192C442.624 485.014 442.53 484.854 442.391 484.747C442.251 484.64 442.077 484.594 441.906 484.618C441.734 484.642 441.578 484.735 441.471 484.876C441.364 485.018 441.313 485.197 441.33 485.377C443.158 497.92 446.95 510.066 452.555 521.327C454.122 524.47 455.825 527.534 457.664 530.519C458.127 531.273 459.176 530.412 458.716 529.664V529.664Z" fill="#E6E6E6"/>
<path d="M441.319 486.738C445.986 486.738 449.769 482.794 449.769 477.928C449.769 473.063 445.986 469.118 441.319 469.118C436.652 469.118 432.869 473.063 432.869 477.928C432.869 482.794 436.652 486.738 441.319 486.738Z" fill="#E6E6E6"/>
<path d="M391.117 402.619C391.672 401.742 392.036 400.748 392.183 399.709C392.33 398.669 392.256 397.609 391.967 396.602C391.679 395.596 391.182 394.667 390.512 393.882C389.841 393.098 389.014 392.475 388.089 392.06L389.865 366.586L378.757 373.07L378.774 396.267C378.207 397.934 378.247 399.76 378.886 401.399C379.525 403.038 380.718 404.376 382.239 405.159C383.761 405.942 385.505 406.116 387.141 405.648C388.777 405.18 390.192 404.102 391.117 402.619Z" fill="#FFB6B6"/>
<path d="M388.353 303.595L391.39 384.66L379.051 383.945L376.309 298.891L378.911 297.614C379.901 297.128 380.991 296.906 382.084 296.966C383.176 297.027 384.237 297.368 385.173 297.961C386.108 298.553 386.888 299.378 387.443 300.361C387.998 301.344 388.31 302.455 388.353 303.595Z" fill="#316146"/>
<path d="M350.191 522.491H341.787L337.788 488.692H350.192L350.191 522.491Z" fill="#FFB6B6"/>
<path d="M335.784 519.984H351.992V530.624H325.578C325.578 529.227 325.842 527.843 326.355 526.552C326.868 525.261 327.62 524.088 328.567 523.1C329.515 522.112 330.64 521.329 331.878 520.794C333.116 520.259 334.443 519.984 335.784 519.984Z" fill="#316146"/>
<path d="M420.117 512.021L412.491 515.702L395.242 486.783L406.499 481.35L420.117 512.021Z" fill="#FFB6B6"/>
<path d="M406.035 516.059L420.744 508.959L425.031 518.615L401.061 530.185C400.498 528.917 400.18 527.545 400.125 526.149C400.07 524.753 400.28 523.359 400.742 522.048C401.204 520.736 401.909 519.532 402.817 518.504C403.725 517.477 404.818 516.646 406.035 516.059Z" fill="#316146"/>
<path d="M330.235 412.183L338.902 515.312L350.557 513.883L359.17 419.68L406.77 509.594L419.11 506.021C419.11 506.021 379.393 382.156 376.308 371.792C372.926 360.431 346.144 356.068 346.144 356.068L345.116 354.996C333.608 371.147 328.999 392.104 330.235 412.183Z" fill="#EEEAE5"/>
<path d="M376.411 288.663C385.71 288.663 393.248 280.804 393.248 271.109C393.248 261.413 385.71 253.554 376.411 253.554C367.112 253.554 359.573 261.413 359.573 271.109C359.573 280.804 367.112 288.663 376.411 288.663Z" fill="#FFB6B6"/>
<path d="M388.261 298.032L375.279 368.577C375.279 368.577 357.497 364.874 351.162 360.415C348.653 358.642 346.377 356.812 344.458 355.154C342.299 353.305 340.23 351.344 338.261 349.279C338.261 349.279 342.813 325.971 344.437 319.731C346.324 312.504 352.796 304.085 357.837 298.348C359.665 296.27 362 294.749 364.594 293.949C367.187 293.148 369.94 293.099 372.558 293.805L388.261 298.032Z" fill="#316146"/>
<path opacity="0.2" d="M351.163 360.421C348.655 358.648 346.378 356.819 344.459 355.16C345.151 344.482 360.24 322.125 366.355 322.125C366.355 322.125 367.801 356.583 351.163 360.421Z" fill="black"/>
<path d="M320.106 388.462C321.054 388.103 321.914 387.533 322.627 386.791C323.34 386.048 323.889 385.152 324.234 384.164C324.578 383.177 324.712 382.123 324.623 381.076C324.535 380.03 324.228 379.016 323.724 378.106L339.737 358.777L327.113 357.064L313.842 375.682C312.433 376.667 311.419 378.157 310.993 379.869C310.567 381.581 310.758 383.397 311.53 384.972C312.302 386.548 313.601 387.773 315.182 388.416C316.763 389.059 318.515 389.075 320.106 388.462Z" fill="#FFB6B6"/>
<path d="M364.875 294.624C364.177 294.639 363.483 294.722 362.8 294.872C361.419 295.201 360.137 295.883 359.07 296.856C358.003 297.829 357.184 299.063 356.687 300.447L336.89 343.567L315.639 367.153L326.264 376.087L359.855 344.639L373.275 306.556C373.704 305.181 373.813 303.719 373.592 302.291C373.372 300.864 372.829 299.511 372.008 298.346C371.187 297.18 370.113 296.234 368.872 295.587C367.632 294.94 366.262 294.61 364.875 294.624Z" fill="#316146"/>
<path d="M377.407 288.505C379.803 284.765 381.695 279.58 379.056 276.021C376.452 272.509 371.315 273.026 367.326 271.472C361.771 269.307 358.549 262.503 359.554 256.409C360.558 250.314 365.251 245.263 370.84 243.196C376.43 241.128 382.733 241.801 388.207 244.181C394.945 247.111 400.726 252.78 403.149 259.96C405.573 267.14 404.277 275.761 399.249 281.28C393.858 287.197 385.398 288.774 377.571 288.678" fill="black"/>
<path d="M403.847 267.812C404.533 271.808 408.738 274.078 412.602 274.577C416.466 275.076 420.464 274.436 424.225 275.484C430.857 277.331 435.232 283.981 437.639 290.683C440.047 297.386 441.114 304.619 444.243 310.99C447.371 317.361 453.436 322.977 460.277 322.382C458.937 325.899 456.588 328.9 453.552 330.975C450.515 333.05 446.939 334.097 443.311 333.974C439.682 333.852 436.178 332.565 433.277 330.289C430.376 328.014 428.219 324.861 427.101 321.26C424.588 313.171 427.472 303.525 423.078 296.363C420.646 292.4 416.447 290.068 412.397 287.991C408.348 285.914 404.099 283.782 401.384 280.023C398.669 276.265 398.127 270.33 401.472 267.172" fill="black"/>
</g>
<defs>
<clipPath id="clip0_2_2950">
<rect width="500" height="529" fill="white" transform="translate(0 0.606934)"/>
</clipPath>
</defs>
</svg>
