<svg width="143" height="138" viewBox="0 0 143 138" fill="none" xmlns="http://www.w3.org/2000/svg">
<rect width="143" height="138" rx="69" fill="#FBF7F2"/>
<g clip-path="url(#clip0_5093_109805)">
<path d="M123.107 124.544C122.459 124.771 121.763 124.827 121.086 124.709C120.41 124.591 119.775 124.301 119.244 123.869C117.89 122.742 117.465 120.886 117.121 119.167L116.1 114.083L118.237 115.543C119.775 116.593 121.347 117.677 122.412 119.198C123.476 120.719 123.941 122.796 123.085 124.442" fill="#E6E6E6"/>
<path d="M122.925 130.7C123.141 129.137 123.364 127.553 123.212 125.973C123.077 124.569 122.646 123.198 121.767 122.074C121.301 121.479 120.733 120.968 120.09 120.566C119.922 120.462 119.768 120.725 119.935 120.83C121.048 121.527 121.908 122.558 122.393 123.772C122.928 125.122 123.014 126.595 122.921 128.029C122.865 128.896 122.747 129.758 122.628 130.619C122.618 130.658 122.624 130.699 122.644 130.734C122.664 130.769 122.697 130.795 122.735 130.807C122.775 130.817 122.817 130.812 122.852 130.792C122.887 130.772 122.913 130.739 122.924 130.7L122.925 130.7Z" fill="#F2F2F2"/>
<path d="M115.176 104.729H25.7344V16H115.176V104.729Z" fill="white"/>
<path d="M115.176 104.729H25.7344V16H115.176V104.729ZM27.0559 103.418H113.855V17.311H27.0559V103.418Z" fill="#E5E5E5"/>
<path d="M99.3313 29.8813H60.5991V31.0783H99.3313V29.8813Z" fill="#E5E5E5"/>
<path d="M99.3313 32.9932H60.5991V34.1901H99.3313V32.9932Z" fill="#E5E5E5"/>
<path d="M99.3313 36.1057H60.5991V37.3026H99.3313V36.1057Z" fill="#E5E5E5"/>
<path d="M99.3313 56.6038H60.5991V57.8007H99.3313V56.6038Z" fill="#E5E5E5"/>
<path d="M99.3313 59.7153H60.5991V60.9123H99.3313V59.7153Z" fill="#E5E5E5"/>
<path d="M99.3313 62.8276H60.5991V64.0245H99.3313V62.8276Z" fill="#E5E5E5"/>
<path d="M99.3313 83.3254H60.5991V84.5223H99.3313V83.3254Z" fill="#E5E5E5"/>
<path d="M99.3313 86.437H60.5991V87.6339H99.3313V86.437Z" fill="#E5E5E5"/>
<path d="M99.3313 89.5491H60.5991V90.746H99.3313V89.5491Z" fill="#E5E5E5"/>
<path d="M45.0938 39.4179C44.4322 39.072 43.7415 38.7837 43.0296 38.5561L42.9388 37.56L39.2574 37.1665L38.7895 38.4398L37.4683 38.9316C37.421 38.9494 37.376 38.9726 37.3342 39.0009H37.3328C37.2591 39.0503 37.1963 39.1141 37.1483 39.1885C37.1002 39.2628 37.068 39.346 37.0535 39.4331C37.0394 39.5198 37.0427 39.6083 37.0633 39.6936L37.1331 39.9776C37.2337 40.0372 37.337 40.094 37.4404 40.1481L37.506 40.1813C37.6569 40.2589 37.8105 40.3323 37.9683 40.4002C38.0004 40.4141 38.0353 40.4279 38.0675 40.4418C38.0703 40.4432 38.0716 40.4432 38.0744 40.4446C38.1485 40.475 38.2225 40.5041 38.2979 40.5318C38.5456 40.6257 38.7983 40.7062 39.0548 40.7729C39.7096 40.946 40.3842 41.0336 41.0618 41.0334C41.309 41.0334 41.5534 41.0223 41.795 40.9987C42.3471 40.9482 42.8921 40.839 43.4207 40.6732C43.4221 40.6732 43.4235 40.6718 43.4249 40.6718C43.7588 40.5662 44.085 40.438 44.4011 40.288C44.4025 40.2866 44.4053 40.2866 44.4067 40.2852C44.4779 40.252 44.5464 40.216 44.6162 40.1813L44.6497 40.1647C44.7055 40.1356 44.7615 40.1065 44.8173 40.076C44.957 39.9998 45.0938 39.9195 45.2293 39.8336C45.267 39.8114 45.3033 39.7878 45.341 39.7629C45.3941 39.7283 45.4471 39.6922 45.4988 39.6548C45.3689 39.5717 45.2335 39.4927 45.0938 39.4179Z" fill="#EEEAE5"/>
<path d="M38.1849 40.0317L37.9544 38.9995H37.3525C37.3464 38.9996 37.3404 39.0001 37.3344 39.0009H37.3329C37.1166 39.0191 36.9083 39.0905 36.7268 39.2087C36.6037 39.2867 36.4943 39.384 36.4028 39.4969C36.5816 39.6313 36.7673 39.756 36.9587 39.8751L36.9671 39.8793C37.0215 39.9125 37.0774 39.9458 37.1333 39.9777C37.2338 40.0372 37.3372 40.094 37.4405 40.1481L37.5062 40.1813C37.657 40.2589 37.8106 40.3323 37.9684 40.4002C38.0006 40.4141 38.0355 40.4279 38.0676 40.4418C38.0704 40.4432 38.0718 40.4432 38.0746 40.4446C38.1486 40.4751 38.2226 40.5041 38.298 40.5319L38.1849 40.0317Z" fill="#EEEAE5"/>
<path d="M40.9537 36.5369C42.418 36.5369 43.6051 35.3593 43.6051 33.9066C43.6051 32.454 42.418 31.2764 40.9537 31.2764C39.4893 31.2764 38.3022 32.454 38.3022 33.9066C38.3022 35.3593 39.4893 36.5369 40.9537 36.5369Z" fill="#FFB8B8"/>
<path d="M39.1735 32.6252C39.448 32.9475 39.9125 33.0384 40.3409 33.0757C41.3427 33.1306 42.3473 33.0492 43.3269 32.8338C43.3876 33.4174 43.2221 34.0466 43.5686 34.5267C43.731 33.9455 43.8255 33.3477 43.8501 32.7451C43.8759 32.4865 43.8419 32.2255 43.7506 31.982C43.7017 31.86 43.6194 31.754 43.5128 31.6761C43.4063 31.5982 43.2799 31.5515 43.1479 31.5413C43.3455 31.3926 43.5768 31.2945 43.8217 31.2555L42.9798 30.8358L43.196 30.6156L41.6718 30.5231L42.1133 30.2449C41.4488 30.1543 40.7766 30.1333 40.1078 30.1821C39.7952 30.1822 39.4886 30.2668 39.2208 30.4267C38.9691 30.6052 38.8237 30.96 38.9799 31.2221C38.7843 31.254 38.6002 31.3349 38.4449 31.4571C38.2896 31.5793 38.1684 31.7388 38.0927 31.9205C37.9969 32.2094 37.9738 32.5171 38.0253 32.8168C38.0827 33.2977 38.1954 33.7705 38.3611 34.226L39.1735 32.6252Z" fill="#316146"/>
<path d="M48.4096 31.055C48.0376 29.9948 47.437 29.0279 46.6496 28.2217C45.8622 27.4154 44.9069 26.7893 43.8505 26.3869C42.7941 25.9845 41.6619 25.8156 40.533 25.8919C39.404 25.9682 38.3053 26.2878 37.3137 26.8286C36.322 27.3694 35.4612 28.1182 34.7913 29.0229C34.1213 29.9276 33.6584 30.9664 33.4347 32.0669C33.2111 33.1673 33.2321 34.3029 33.4963 35.3945C33.7605 36.486 34.2615 37.5073 34.9645 38.387C35.0343 38.4743 35.1069 38.5616 35.181 38.6461C35.1866 38.6516 35.1907 38.6572 35.1963 38.6627C35.3784 38.8708 35.5718 39.0688 35.7759 39.2557C35.829 39.3042 35.8849 39.3541 35.9407 39.4012C36.0468 39.4954 36.1558 39.5854 36.2689 39.6713C36.3136 39.706 36.3569 39.7406 36.403 39.7739C36.5817 39.9083 36.7675 40.033 36.9588 40.1521L36.9672 40.1563C37.0217 40.1895 37.0776 40.2228 37.1334 40.2546C37.234 40.3142 37.3373 40.371 37.4406 40.425L37.5063 40.4583C37.6572 40.5359 37.8108 40.6093 37.9686 40.6772C38.0007 40.6911 38.0356 40.7049 38.0678 40.7188C38.0706 40.7202 38.0719 40.7202 38.0747 40.7215C38.1488 40.752 38.2228 40.7811 38.2982 40.8088C38.5459 40.9027 38.7986 40.9832 39.0551 41.0499C39.7098 41.223 40.3845 41.3106 41.0621 41.3104C41.3093 41.3104 41.5537 41.2993 41.7953 41.2757C42.3474 41.2252 42.8924 41.116 43.421 40.9501C43.4223 40.9501 43.4238 40.9488 43.4251 40.9488C43.7591 40.8432 44.0853 40.715 44.4014 40.565C44.4028 40.5636 44.4056 40.5636 44.407 40.5622C44.4782 40.529 44.5467 40.4929 44.6165 40.4583L44.65 40.4417C44.7058 40.4126 44.7617 40.3835 44.8176 40.353C44.9573 40.2768 45.0941 40.1964 45.2296 40.1105C45.2673 40.0884 45.3036 40.0648 45.3413 40.0399C45.3944 40.0052 45.4474 39.9692 45.4991 39.9318C45.5675 39.8847 45.636 39.8362 45.703 39.7863C45.724 39.7711 45.7463 39.7559 45.7673 39.7392C47.0757 38.754 48.0361 37.3831 48.5108 35.823C48.9855 34.263 48.9501 32.5939 48.4096 31.055V31.055ZM45.5103 39.4026C45.4642 39.4386 45.4167 39.4732 45.3692 39.5051C45.3231 39.5397 45.2771 39.573 45.2296 39.6034C45.189 39.6325 45.1485 39.6603 45.1067 39.6866L45.0941 39.6949C45.0634 39.7157 45.0327 39.7351 45.0019 39.7545C44.886 39.8265 44.7687 39.8958 44.65 39.9623L44.6123 39.9831C44.5592 40.0122 44.5062 40.0399 44.4531 40.0676C44.4461 40.0718 44.4377 40.0745 44.4307 40.0787L44.4223 40.0828C44.3553 40.1175 44.2868 40.1507 44.2184 40.1826C43.9544 40.3087 43.6824 40.418 43.4042 40.5096C43.3679 40.522 43.3316 40.5345 43.2953 40.5456C42.795 40.7034 42.279 40.8075 41.7562 40.8559C41.5272 40.8767 41.2953 40.8878 41.0621 40.8878C40.4212 40.8891 39.783 40.8062 39.1641 40.6412C38.8465 40.5589 38.5352 40.4543 38.2326 40.3281C38.2172 40.3211 38.2004 40.3156 38.1851 40.3087C38.1683 40.3017 38.1529 40.2962 38.1376 40.2893C38.1208 40.2823 38.1055 40.2754 38.0887 40.2671C37.9574 40.2103 37.8275 40.1479 37.7005 40.0828L37.639 40.051C37.4839 39.9706 37.3317 39.8847 37.1837 39.7933C37.1404 39.7669 37.0957 39.7392 37.0538 39.7101C37.0427 39.7032 37.0328 39.6963 37.0217 39.6894C36.9225 39.6242 36.8234 39.5563 36.727 39.4857C36.6614 39.4372 36.5957 39.3887 36.5315 39.3388C36.4239 39.2585 36.3206 39.1726 36.22 39.0839C36.167 39.0396 36.1153 38.9911 36.065 38.9453C35.867 38.764 35.6796 38.5715 35.5036 38.369C35.4449 38.3025 35.3877 38.236 35.3332 38.1667C35.3208 38.153 35.3091 38.1387 35.2983 38.1238C34.3908 36.9878 33.845 35.6095 33.7305 34.1646C33.6159 32.7197 33.9377 31.2737 34.6549 30.011C35.3721 28.7482 36.4522 27.726 37.7574 27.0747C39.0626 26.4234 40.5338 26.1726 41.9833 26.3541C43.4328 26.5356 44.795 27.1413 45.8961 28.0939C46.9972 29.0465 47.7873 30.3029 48.1657 31.7028C48.5441 33.1028 48.4936 34.5828 48.0207 35.9541C47.5478 37.3254 46.6738 38.526 45.5103 39.4026L45.5103 39.4026Z" fill="#EEEAE5"/>
<path d="M48.4091 57.777C48.0371 56.7168 47.4365 55.7498 46.6491 54.9436C45.8617 54.1374 44.9064 53.5112 43.85 53.1088C42.7936 52.7064 41.6615 52.5375 40.5325 52.6138C39.4035 52.6901 38.3049 53.0097 37.3132 53.5505C36.3215 54.0913 35.4607 54.8401 34.7908 55.7448C34.1209 56.6496 33.6579 57.6884 33.4343 58.7888C33.2106 59.8892 33.2316 61.0248 33.4958 62.1164C33.76 63.2079 34.261 64.2292 34.964 65.1089C35.0338 65.1962 35.1064 65.2835 35.1804 65.368C35.186 65.3735 35.1902 65.3791 35.1957 65.3846C35.3778 65.5927 35.5713 65.7907 35.7754 65.9776C35.8285 66.0261 35.8843 66.076 35.9402 66.1231C36.0463 66.2173 36.1552 66.3074 36.2684 66.3933C36.4893 66.566 36.7196 66.7265 36.9583 66.874L36.9667 66.8782C37.1217 66.9738 37.2795 67.0624 37.4401 67.147L37.5058 67.1802C37.6566 67.2578 37.8102 67.3312 37.968 67.3991C38.0002 67.413 38.0351 67.4268 38.0672 67.4407C38.07 67.4421 38.0714 67.4421 38.0742 67.4434C38.3931 67.575 38.7207 67.6847 39.0546 67.7718C39.7093 67.9449 40.384 68.0325 41.0615 68.0323C41.3087 68.0323 41.5531 68.0212 41.7947 67.9976C42.3468 67.9471 42.8918 67.8379 43.4204 67.6721C43.4219 67.6721 43.4232 67.6707 43.4246 67.6707C43.7585 67.5651 44.0847 67.4369 44.4008 67.2869C44.4022 67.2855 44.4051 67.2855 44.4064 67.2841C44.4776 67.2509 44.5461 67.2149 44.6159 67.1802L44.6495 67.1636C44.7053 67.1345 44.7612 67.1054 44.817 67.0749C44.9567 66.9987 45.0936 66.9184 45.2291 66.8325C45.2668 66.8103 45.303 66.7867 45.3408 66.7618C45.4636 66.6814 45.5852 66.5955 45.7025 66.5082C45.7235 66.493 45.7458 66.4778 45.7668 66.4611C47.0752 65.4759 48.0355 64.105 48.5102 62.5449C48.9849 60.9849 48.9495 59.3158 48.4091 57.777V57.777Z" fill="white"/>
<path d="M43.6294 63.4954C44.2734 63.4954 44.7954 62.9775 44.7954 62.3386C44.7954 61.6998 44.2734 61.1819 43.6294 61.1819C42.9854 61.1819 42.4634 61.6998 42.4634 62.3386C42.4634 62.9775 42.9854 63.4954 43.6294 63.4954Z" fill="#316146"/>
<path d="M43.9543 61.2138C44.1561 61.2138 44.3544 61.2658 44.5299 61.3646C44.7054 61.4634 44.8521 61.6058 44.9555 61.7777C45.059 61.9496 45.1157 62.1452 45.1201 62.3453C45.1245 62.5455 45.0765 62.7434 44.9808 62.9196C45.0818 62.7941 45.1554 62.6491 45.1969 62.4939C45.2383 62.3386 45.2468 62.1765 45.2216 62.0179C45.1964 61.8592 45.1382 61.7075 45.0506 61.5724C44.9631 61.4373 44.8481 61.3217 44.7131 61.2331C44.5781 61.1445 44.4259 61.0848 44.2663 61.0578C44.1067 61.0307 43.9432 61.037 43.7862 61.0761C43.6291 61.1152 43.482 61.1863 43.3543 61.2849C43.2265 61.3835 43.1208 61.5075 43.0439 61.6488C43.153 61.5131 43.2914 61.4034 43.4491 61.3281C43.6067 61.2528 43.7794 61.2137 43.9544 61.2138L43.9543 61.2138Z" fill="#316146"/>
<path d="M41.4502 62.3363C43.342 62.3363 44.8756 60.815 44.8756 58.9383C44.8756 57.0616 43.342 55.5403 41.4502 55.5403C39.5585 55.5403 38.0249 57.0616 38.0249 58.9383C38.0249 60.815 39.5585 62.3363 41.4502 62.3363Z" fill="#316146"/>
<path d="M38.762 56.83C39.3522 56.1715 40.1772 55.7662 41.0629 55.6997C41.9486 55.6333 42.8257 55.9107 43.509 56.4736C43.4811 56.4471 43.4532 56.4205 43.4243 56.3949C42.7476 55.7936 41.8579 55.4835 40.9508 55.533C40.0437 55.5824 39.1936 55.9873 38.5874 56.6585C37.9813 57.3298 37.6687 58.2124 37.7185 59.1123C37.7684 60.0121 38.1765 60.8555 38.8531 61.4568C38.8597 61.4626 38.8662 61.4683 38.8727 61.4741C38.9018 61.4997 38.9317 61.524 38.9614 61.5485C38.3179 60.9411 37.9374 60.1095 37.9002 59.2292C37.863 58.3488 38.1721 57.4886 38.7621 56.8299L38.762 56.83Z" fill="#316146"/>
<path d="M41.4214 62.3072C42.6398 62.3072 43.6275 61.3274 43.6275 60.1187C43.6275 58.91 42.6398 57.9302 41.4214 57.9302C40.203 57.9302 39.2153 58.91 39.2153 60.1187C39.2153 61.3274 40.203 62.3072 41.4214 62.3072Z" fill="#A0616A"/>
<path d="M45.3688 65.8216V66.5559C45.2333 66.6418 45.0964 66.7222 44.9567 66.7984C44.9009 66.8288 44.845 66.8579 44.7892 66.887L44.7556 66.9037C44.6858 66.9383 44.6173 66.9743 44.5461 67.0076C44.5448 67.009 44.5419 67.009 44.5405 67.0103C44.2244 67.1604 43.8982 67.2886 43.5643 67.3941C43.5629 67.3941 43.5616 67.3955 43.5601 67.3955C43.0315 67.5614 42.4865 67.6705 41.9344 67.7211C41.6928 67.7446 41.4484 67.7557 41.2012 67.7557C40.5237 67.7559 39.849 67.6684 39.1943 67.4952C38.8604 67.4081 38.5328 67.2984 38.2139 67.1669C38.2111 67.1655 38.2097 67.1655 38.2069 67.1641C38.1748 67.1503 38.1399 67.1364 38.1077 67.1226C37.9499 67.0547 37.7963 66.9812 37.6455 66.9037L37.5799 66.8704C37.4192 66.7859 37.2614 66.6972 37.1064 66.6016L37.098 66.5975C36.8593 66.4499 36.629 66.2894 36.4081 66.1167C36.2949 66.0308 36.186 65.9407 36.0799 65.8465C36.024 65.7994 35.9682 65.7496 35.9151 65.7011C35.7111 65.5141 35.5175 65.3162 35.3354 65.1081C35.3596 64.9638 35.3951 64.8215 35.4416 64.6827L35.443 64.6813C35.4513 64.6577 35.4611 64.6346 35.4723 64.6121C35.48 64.5922 35.4889 64.5728 35.4988 64.5539C35.7488 64.0898 36.2014 63.9748 36.7628 63.9498C37.0799 63.936 37.4304 63.9512 37.8005 63.947C37.996 63.9457 38.1985 63.9387 38.401 63.9207C39.6789 63.8057 39.4471 63.0576 39.5044 62.6544C39.5616 62.2637 39.9164 62.6018 39.9401 62.6239L39.9415 62.6253C40.6646 62.961 41.4647 63.1002 42.2599 63.0285C42.3967 63.0119 42.5336 63.0022 42.6705 62.998C43.0308 62.9938 42.9526 63.0964 42.8283 63.1809C42.768 63.2203 42.705 63.2555 42.6398 63.2862C42.6398 63.2862 42.5825 63.6326 42.5239 64.1507C42.468 64.6467 43.4261 64.8795 43.5056 64.8975C43.5073 64.8986 43.5093 64.8991 43.5112 64.8989C43.8611 64.8089 44.2295 64.8185 44.5741 64.9266H44.5755C44.7724 64.9984 44.9481 65.1179 45.0866 65.2742C45.2252 65.4305 45.3221 65.6187 45.3688 65.8216Z" fill="#CFD762"/>
<path d="M38.2279 66.7117C38.2279 66.8143 38.2252 66.9126 38.221 67.0055C38.2196 67.0609 38.2168 67.1149 38.214 67.1662C38.2112 67.1648 38.2098 67.1648 38.207 67.1634C38.1749 67.1496 38.14 67.1357 38.1079 67.1219C37.9501 67.054 37.7964 66.9805 37.6456 66.9029L37.58 66.8697C37.4193 66.7852 37.2615 66.6965 37.1065 66.6009C37.1107 66.5524 37.1177 66.5039 37.1246 66.4554C37.14 66.3487 37.1526 66.2407 37.161 66.134C37.2159 65.3845 37.079 64.6334 36.7629 63.9505V63.9491C36.735 63.8937 36.7183 63.8632 36.7183 63.8632C36.7183 63.8632 37.1246 63.5168 37.7042 63.8632C37.7412 63.8848 37.7739 63.9129 37.8006 63.9463C38.1498 64.355 38.2447 65.7294 38.2279 66.7117Z" fill="#316146"/>
<path d="M44.5701 66.5235C44.5645 66.6787 44.5561 66.8408 44.5464 67.0057V67.0071C44.545 67.0084 44.5421 67.0084 44.5408 67.0098C44.2246 67.1599 43.8984 67.2881 43.5645 67.3936C43.5631 67.3936 43.5618 67.395 43.5603 67.395L43.545 67.0057L43.5436 66.9544L43.4696 65.0591C43.4676 65.0162 43.4744 64.9733 43.4896 64.9331C43.5048 64.8929 43.528 64.8561 43.5579 64.825C43.5878 64.794 43.6237 64.7692 43.6635 64.7523C43.7033 64.7354 43.7461 64.7266 43.7894 64.7266H44.4975C44.5324 64.7266 44.5575 64.7972 44.5743 64.9247V64.9261C44.6087 65.4581 44.6072 65.9917 44.5701 66.5235Z" fill="#316146"/>
<path d="M39.5342 57.3835V59.5726H40.0451L40.6952 58.8815L40.6082 59.5726H42.8665L42.7268 58.8815L43.0062 59.5726H43.3662V57.3835H39.5342Z" fill="#316146"/>
<path d="M39.1864 59.9755C39.2826 59.9755 39.3605 59.8337 39.3605 59.6588C39.3605 59.4838 39.2826 59.342 39.1864 59.342C39.0902 59.342 39.0122 59.4838 39.0122 59.6588C39.0122 59.8337 39.0902 59.9755 39.1864 59.9755Z" fill="#A0616A"/>
<path d="M43.6566 59.9755C43.7528 59.9755 43.8307 59.8337 43.8307 59.6588C43.8307 59.4838 43.7528 59.342 43.6566 59.342C43.5604 59.342 43.4824 59.4838 43.4824 59.6588C43.4824 59.8337 43.5604 59.9755 43.6566 59.9755Z" fill="#A0616A"/>
<path d="M45.8425 66.2311C45.7252 66.3184 45.6037 66.4043 45.4808 66.4846C45.4431 66.5096 45.4068 66.5331 45.3691 66.5553C45.2336 66.6412 45.0968 66.7216 44.9571 66.7978C44.9012 66.8282 44.8454 66.8573 44.7896 66.8864V65.3596C44.7896 65.3596 45.013 65.537 45.3691 65.8321C45.4138 65.8695 45.4599 65.9083 45.5088 65.9498C45.6121 66.0357 45.7239 66.13 45.8425 66.2311Z" fill="#CFD762"/>
<path d="M48.4091 57.777C48.0371 56.7168 47.4365 55.7498 46.6491 54.9436C45.8617 54.1374 44.9064 53.5112 43.85 53.1088C42.7936 52.7064 41.6615 52.5375 40.5325 52.6138C39.4035 52.6901 38.3049 53.0097 37.3132 53.5505C36.3215 54.0913 35.4607 54.8401 34.7908 55.7448C34.1209 56.6496 33.6579 57.6884 33.4343 58.7888C33.2106 59.8892 33.2316 61.0248 33.4958 62.1164C33.76 63.2079 34.261 64.2292 34.964 65.1089C35.0338 65.1962 35.1064 65.2835 35.1804 65.368C35.186 65.3735 35.1902 65.3791 35.1957 65.3846C35.3778 65.5927 35.5713 65.7907 35.7754 65.9776C35.8285 66.0261 35.8843 66.076 35.9402 66.1231C36.0463 66.2173 36.1552 66.3074 36.2684 66.3933C36.4893 66.566 36.7196 66.7265 36.9583 66.874L36.9667 66.8782C37.1217 66.9738 37.2795 67.0624 37.4401 67.147L37.5058 67.1802C37.6566 67.2578 37.8102 67.3312 37.968 67.3991C38.0002 67.413 38.0351 67.4268 38.0672 67.4407C38.07 67.4421 38.0714 67.4421 38.0742 67.4434C38.3931 67.575 38.7207 67.6847 39.0546 67.7718C39.7093 67.9449 40.384 68.0325 41.0615 68.0323C41.3087 68.0323 41.5531 68.0212 41.7947 67.9976C42.3468 67.9471 42.8918 67.8379 43.4204 67.6721C43.4219 67.6721 43.4232 67.6707 43.4246 67.6707C43.7585 67.5651 44.0847 67.4369 44.4008 67.2869C44.4022 67.2855 44.4051 67.2855 44.4064 67.2841C44.4776 67.2509 44.5461 67.2149 44.6159 67.1802L44.6495 67.1636C44.7053 67.1345 44.7612 67.1054 44.817 67.0749C44.9567 66.9987 45.0936 66.9184 45.2291 66.8325C45.2668 66.8103 45.303 66.7867 45.3408 66.7618C45.4636 66.6814 45.5852 66.5955 45.7025 66.5082C45.7235 66.493 45.7458 66.4778 45.7668 66.4611C47.0752 65.4759 48.0355 64.105 48.5102 62.5449C48.9849 60.9849 48.9495 59.3158 48.4091 57.777V57.777ZM45.5097 66.1245C45.4636 66.1605 45.4162 66.1951 45.3687 66.227C45.3226 66.2616 45.2765 66.2949 45.2291 66.3254C45.1886 66.3545 45.1481 66.3822 45.1061 66.4085C45.0712 66.432 45.0363 66.4542 45.0014 66.4764C44.8855 66.5484 44.7682 66.6177 44.6495 66.6842L44.6117 66.705C44.5586 66.7341 44.5056 66.7618 44.4525 66.7895C44.4455 66.7937 44.4371 66.7964 44.4302 66.8006L44.4218 66.8047C44.3548 66.8394 44.2864 66.8726 44.2179 66.9045C43.9538 67.0307 43.6818 67.1399 43.4037 67.2315C43.3674 67.2439 43.331 67.2564 43.2947 67.2675C42.7944 67.4254 42.2784 67.5294 41.7557 67.5778C41.5266 67.5986 41.2947 67.6097 41.0615 67.6097C40.4207 67.611 39.7824 67.5281 39.1635 67.3631C38.8459 67.2808 38.5346 67.1762 38.232 67.05C38.1999 67.0375 38.1678 67.0236 38.137 67.0112C38.1203 67.0042 38.1049 66.9973 38.0881 66.989C37.9569 66.9322 37.827 66.8699 37.6999 66.8047L37.6385 66.7729C37.4835 66.6925 37.3312 66.6066 37.1831 66.5152C37.1287 66.4819 37.0742 66.4473 37.0212 66.4113C36.8535 66.3018 36.6902 66.184 36.5309 66.0607C36.4234 65.9804 36.3201 65.8945 36.2195 65.8058C36.1664 65.7615 36.1147 65.713 36.0645 65.6673C35.8665 65.4859 35.679 65.2934 35.503 65.0909C35.4444 65.0244 35.3871 64.9579 35.3326 64.8886C35.3202 64.8749 35.3086 64.8606 35.2977 64.8457C34.3903 63.7097 33.8445 62.3314 33.7299 60.8865C33.6153 59.4416 33.9371 57.9956 34.6544 56.7329C35.3716 55.4701 36.4516 54.448 37.7568 53.7967C39.062 53.1454 40.5332 52.8945 41.9827 53.076C43.4322 53.2575 44.7944 53.8632 45.8955 54.8158C46.9966 55.7684 47.7868 57.0248 48.1652 58.4248C48.5436 59.8247 48.4931 61.3047 48.0201 62.676C47.5472 64.0473 46.6732 65.2479 45.5097 66.1245V66.1245Z" fill="#EEEAE5"/>
<path d="M41.1059 90.5053C42.7895 90.5053 44.1542 89.1514 44.1542 87.4813C44.1542 85.8112 42.7895 84.4573 41.1059 84.4573C39.4224 84.4573 38.0576 85.8112 38.0576 87.4813C38.0576 89.1514 39.4224 90.5053 41.1059 90.5053Z" fill="#316146"/>
<path d="M38.7264 85.8506C39.219 85.3619 39.3188 84.6687 38.9494 84.3022C38.5799 83.9357 37.8811 84.0347 37.3885 84.5234C36.8959 85.0121 36.7961 85.7053 37.1655 86.0718C37.535 86.4383 38.2338 86.3393 38.7264 85.8506Z" fill="#316146"/>
<path d="M44.2829 84.8901C44.4881 84.4134 44.1352 83.807 43.4945 83.5355C42.8539 83.264 42.1682 83.4303 41.9629 83.907C41.7577 84.3836 42.1106 84.9901 42.7513 85.2616C43.3919 85.533 44.0776 85.3667 44.2829 84.8901Z" fill="#316146"/>
<path d="M44.7523 93.3464L44.3931 92.7858C44.2407 92.4481 43.9596 92.1841 43.6114 92.0515C43.2632 91.919 42.8762 91.9288 42.5352 92.0787C42.1942 92.2287 41.927 92.5066 41.7921 92.8516C41.6573 93.1965 41.6657 93.5805 41.8157 93.9193L41.9178 94.2826L42.034 94.6947C42.5046 94.6358 42.9688 94.5353 43.4213 94.3943C43.4227 94.3942 43.4239 94.3936 43.4248 94.3926C43.7593 94.2876 44.0858 94.1592 44.402 94.0084C44.4037 94.0066 44.4054 94.0066 44.4072 94.0049C44.4776 93.9717 44.5463 93.9368 44.6167 93.9018C44.6282 93.8967 44.6394 93.8909 44.6502 93.8844C44.7065 93.8564 44.7629 93.8267 44.8175 93.797C44.8738 93.7673 44.9283 93.7359 44.9811 93.7027L44.7523 93.3464Z" fill="#CACACA"/>
<path d="M41.2023 90.7694C42.6311 90.7694 43.7894 89.6204 43.7894 88.2029C43.7894 86.7855 42.6311 85.6365 41.2023 85.6365C39.7735 85.6365 38.6152 86.7855 38.6152 88.2029C38.6152 89.6204 39.7735 90.7694 41.2023 90.7694Z" fill="#FFB6B6"/>
<path d="M44.9388 93.2369C44.6534 92.7662 44.2992 92.34 43.8877 91.9724C43.6058 91.7226 43.241 91.5846 42.8631 91.5847H39.2187C39.0087 91.5846 38.8009 91.6273 38.6082 91.71C38.4154 91.7927 38.2419 91.9138 38.0982 92.0657C37.9544 92.2176 37.8437 92.3971 37.7726 92.5931C37.7016 92.7892 37.6719 92.9976 37.6852 93.2055C37.6932 93.3227 37.7145 93.4387 37.7487 93.5513C37.7747 93.6328 37.807 93.7123 37.8455 93.7888L38.0251 94.1451C38.0392 94.1503 38.0533 94.1573 38.0673 94.1626C38.0708 94.1643 38.0726 94.1643 38.0743 94.166C38.1482 94.1957 38.2223 94.2254 38.2979 94.2534C38.5456 94.3473 38.7984 94.4278 39.055 94.4944C39.468 94.6044 39.8897 94.6798 40.3155 94.7197C40.5638 94.7424 40.812 94.7546 41.062 94.7546C41.3103 94.7546 41.5532 94.7424 41.7961 94.7197C41.8754 94.7127 41.9546 94.704 42.0338 94.6952C42.5044 94.6363 42.9686 94.5358 43.4211 94.3948C43.4225 94.3947 43.4237 94.3941 43.4246 94.3931C43.7591 94.2881 44.0856 94.1597 44.4018 94.0089C44.4035 94.0071 44.4052 94.0071 44.4071 94.0054C44.4775 93.9722 44.5461 93.9373 44.6165 93.9023C44.628 93.8972 44.6392 93.8914 44.65 93.8849C44.7063 93.8569 44.7627 93.8272 44.8173 93.7975C44.8736 93.7678 44.9281 93.7364 44.9809 93.7032C45.0373 93.6735 45.0901 93.6404 45.1447 93.6072C45.0779 93.4762 45.0092 93.3539 44.9388 93.2369Z" fill="#CACACA"/>
<path d="M39.8789 92.0525C39.5416 91.896 39.1556 91.8784 38.8053 92.0034C38.4549 92.1284 38.1687 92.3859 38.0092 92.7197L37.6852 93.2052L37.5303 93.4375L37.2944 93.7903C37.3437 93.8165 37.3912 93.8427 37.4406 93.8689L37.5056 93.9021C37.6571 93.9789 37.8102 94.0523 37.9687 94.1204C37.9863 94.1291 38.0057 94.1361 38.025 94.1449C38.0391 94.1501 38.0532 94.1571 38.0673 94.1623C38.0708 94.1641 38.0726 94.1641 38.0743 94.1658C38.1482 94.1955 38.2222 94.2252 38.2979 94.2532C38.5456 94.3471 38.7984 94.4276 39.055 94.4942C39.468 94.6042 39.8897 94.6796 40.3155 94.7195L40.4387 94.3055L40.5585 93.9108C40.7163 93.5749 40.7334 93.1906 40.606 92.8423C40.4786 92.4939 40.2171 92.2099 39.8789 92.0525Z" fill="#CACACA"/>
<path d="M38.4839 86.5884C39.0751 86.9927 39.7768 87.2078 40.4948 87.2049C40.2386 87.3811 39.9471 87.5001 39.6401 87.5537C40.5948 87.7569 41.5814 87.7624 42.5382 87.5699C42.7509 87.5361 42.9562 87.4661 43.1449 87.3632C43.239 87.3111 43.321 87.2399 43.3855 87.1543C43.45 87.0687 43.4956 86.9706 43.5194 86.8663C43.583 86.506 43.2999 86.1786 43.0058 85.958C42.5555 85.6253 42.0362 85.3961 41.4856 85.287C40.935 85.1778 40.3668 85.1914 39.8222 85.3269C39.4593 85.3993 39.1291 85.5844 38.8793 85.8555C38.7584 85.9934 38.6855 86.1662 38.6712 86.3484C38.6569 86.5306 38.7021 86.7125 38.8 86.8673L38.4839 86.5884Z" fill="#316146"/>
<path d="M48.4106 84.4987C48.0387 83.4384 47.4381 82.4714 46.6507 81.665C45.8633 80.8587 44.908 80.2324 43.8516 79.8299C42.7951 79.4275 41.6629 79.2585 40.5338 79.3347C39.4047 79.411 38.306 79.7307 37.3143 80.2715C36.3226 80.8123 35.4617 81.5612 34.7917 82.466C34.1217 83.3708 33.6588 84.4096 33.4352 85.5102C33.2115 86.6107 33.2326 87.7464 33.4969 88.838C33.7612 89.9296 34.2623 90.9509 34.9654 91.8306C35.034 91.918 35.108 92.0053 35.1819 92.0891C35.1862 92.0953 35.1909 92.1012 35.196 92.1066C35.3784 92.3146 35.5723 92.5123 35.777 92.6987C35.8298 92.7476 35.8843 92.7982 35.9407 92.8454C36.0463 92.9397 36.1555 93.0288 36.2699 93.1143C36.3139 93.1493 36.3579 93.1842 36.4037 93.2174C36.5815 93.3519 36.7681 93.4759 36.9583 93.5964C36.9616 93.5964 36.9647 93.5977 36.9671 93.5999C37.0217 93.6331 37.078 93.6662 37.1344 93.6977C37.1871 93.7291 37.2417 93.7606 37.2946 93.7902C37.3438 93.8164 37.3914 93.8427 37.4407 93.8688L37.5058 93.902C37.6573 93.9789 37.8104 94.0522 37.9689 94.1203C37.9864 94.1291 38.0059 94.1361 38.0252 94.1448C38.0393 94.15 38.0534 94.157 38.0674 94.1623C38.0709 94.164 38.0727 94.164 38.0744 94.1658C38.1484 94.1954 38.2224 94.2251 38.298 94.2531C38.5458 94.347 38.7985 94.4275 39.0551 94.4941C39.4682 94.6041 39.8898 94.6795 40.3156 94.7194C40.5639 94.7421 40.8122 94.7543 41.0621 94.7543C41.3104 94.7543 41.5533 94.7421 41.7963 94.7194C41.8755 94.7124 41.9547 94.7037 42.034 94.6949C42.5045 94.636 42.9688 94.5355 43.4213 94.3945C43.4226 94.3944 43.4238 94.3938 43.4248 94.3928C43.7592 94.2878 44.0858 94.1594 44.4019 94.0086C44.4037 94.0068 44.4054 94.0068 44.4072 94.0051C44.4776 93.9719 44.5463 93.937 44.6167 93.902C44.6282 93.8969 44.6393 93.8911 44.6501 93.8846C44.7064 93.8566 44.7628 93.8269 44.8174 93.7972C44.8737 93.7675 44.9283 93.7361 44.9811 93.7029C45.0375 93.6732 45.0903 93.64 45.1448 93.6069C45.173 93.5894 45.2012 93.5719 45.2293 93.5545C45.2681 93.5318 45.3033 93.5091 45.342 93.4829C45.3948 93.4497 45.4477 93.413 45.4987 93.3763C45.5674 93.3292 45.636 93.2803 45.7029 93.2296C45.7255 93.215 45.7472 93.1993 45.7681 93.1825C47.0755 92.1965 48.0352 90.8257 48.5098 89.266C48.9844 87.7063 48.9497 86.0377 48.4106 84.4987L48.4106 84.4987ZM45.5111 92.8454C45.4652 92.8821 45.4177 92.917 45.3702 92.9484C45.3226 92.9834 45.2769 93.0165 45.2294 93.048C45.1889 93.0759 45.1484 93.1039 45.1062 93.1301C45.1023 93.1334 45.0982 93.1363 45.0938 93.1388C45.0639 93.1598 45.0322 93.179 45.0022 93.1982C44.9811 93.2104 44.96 93.2244 44.9389 93.2366C44.8772 93.275 44.8156 93.3117 44.7523 93.3466C44.7188 93.3676 44.6836 93.3868 44.6501 93.406C44.6378 93.413 44.6255 93.42 44.6132 93.427C44.5586 93.4567 44.5058 93.4829 44.4529 93.5108C44.446 93.516 44.4371 93.5178 44.4319 93.523C44.4286 93.5231 44.4254 93.5243 44.423 93.5265C44.3561 93.5615 44.2874 93.5946 44.2188 93.6261C43.9545 93.7523 43.6822 93.8614 43.4036 93.9527C43.3685 93.9649 43.3315 93.9789 43.2963 93.9894C42.8473 94.1307 42.3857 94.2289 41.9177 94.2828C41.865 94.2898 41.8104 94.295 41.7558 94.3002C41.527 94.3212 41.2963 94.3317 41.0621 94.3317C40.8544 94.3317 40.6449 94.3229 40.4389 94.3055C40.0083 94.2699 39.5817 94.1963 39.1643 94.0854C38.8466 94.0033 38.5353 93.8982 38.233 93.771C38.2171 93.7641 38.2013 93.7588 38.1854 93.7518C38.1678 93.7448 38.1537 93.7396 38.1379 93.7326C38.1203 93.7256 38.1062 93.7186 38.0886 93.7099C37.9741 93.661 37.8597 93.6069 37.7488 93.551C37.7329 93.5422 37.7171 93.5353 37.7013 93.5265L37.6397 93.4951C37.6027 93.4759 37.5657 93.4567 37.5305 93.4375C37.4125 93.3746 37.2963 93.3065 37.1837 93.2366C37.1414 93.2104 37.0957 93.1825 37.0534 93.1545L37.0217 93.1336C36.9231 93.0672 36.8246 93.0008 36.7277 92.9292C36.6625 92.8803 36.5956 92.8332 36.5323 92.7825C36.4249 92.7022 36.321 92.6166 36.2207 92.5275C36.1678 92.4839 36.115 92.4349 36.0658 92.3895C35.8675 92.2083 35.68 92.0159 35.5041 91.8132C35.446 91.7468 35.3879 91.6805 35.3333 91.6106C35.321 91.5966 35.3105 91.5827 35.2981 91.5669C34.3905 90.4309 33.8445 89.0524 33.7298 87.6073C33.6151 86.1622 33.9369 84.716 34.6541 83.4531C35.3713 82.1901 36.4515 81.1677 37.7568 80.5163C39.0622 79.8648 40.5335 79.6138 41.9832 79.7953C43.4329 79.9768 44.7953 80.5825 45.8966 81.5352C46.9979 82.4879 47.7882 83.7445 48.1667 85.1446C48.5452 86.5447 48.4947 88.0249 48.0217 89.3964C47.5488 90.7679 46.6747 91.9686 45.5111 92.8454H45.5111Z" fill="#EEEAE5"/>
<path d="M54.0784 46.7893C51.3693 44.5216 48.0541 43.0838 44.5364 42.6511C41.0186 42.2183 37.4498 42.8092 34.2644 44.3519C31.079 45.8945 28.4142 48.3223 26.5943 51.34C24.7745 54.3577 23.878 57.835 24.014 61.3489C24.1499 64.8628 25.3125 68.2617 27.3602 71.1321C29.408 74.0024 32.2525 76.2205 35.5478 77.5163C38.8431 78.8121 42.447 79.1298 45.921 78.4308C49.395 77.7318 52.5892 76.0461 55.1151 73.579L77.5446 92.354C77.886 92.6387 78.3274 92.7775 78.7718 92.74C79.2163 92.7024 79.6276 92.4916 79.9156 92.1536C80.2036 91.8157 80.3447 91.3783 80.3081 90.9373C80.2716 90.4963 80.0602 90.0877 79.7204 89.801L79.7179 89.7989L57.2884 71.0239C59.894 67.3141 61.0092 62.7727 60.4154 58.2898C59.8216 53.8068 57.5616 49.7054 54.0784 46.7893ZM52.6325 69.216C50.8851 71.2703 48.5629 72.7645 45.9596 73.5095C43.3562 74.2546 40.5886 74.2171 38.0067 73.4018C35.4248 72.5865 33.1446 71.0299 31.4545 68.929C29.7643 66.8281 28.7401 64.2772 28.5114 61.5989C28.2827 58.9205 28.8597 56.235 30.1695 53.882C31.4792 51.529 33.463 49.6141 35.8698 48.3795C38.2766 47.1449 40.9984 46.6461 43.691 46.946C46.3836 47.246 48.9261 48.3313 50.9969 50.0648C53.7738 52.3892 55.5062 55.7128 55.8129 59.3043C56.1196 62.8959 54.9756 66.4612 52.6325 69.216Z" fill="#EEEAE5"/>
<path opacity="0.3" d="M33.3274 70.8386C30.6993 68.6385 29.0013 65.5383 28.5706 62.1537C28.14 58.7691 29.0081 55.3476 31.0027 52.5686C30.7408 52.8303 30.4875 53.1044 30.243 53.3908C29.0828 54.7548 28.2048 56.3322 27.6591 58.0328C27.1134 59.7335 26.9107 61.5241 27.0626 63.3024C27.2144 65.0808 27.7179 66.8121 28.5442 68.3974C29.3706 69.9827 30.5036 71.3911 31.8785 72.542C33.2535 73.693 34.8436 74.564 36.5579 75.1054C38.2722 75.6467 40.0772 75.8478 41.8698 75.6971C43.6625 75.5465 45.4077 75.047 47.0057 74.2273C48.6038 73.4075 50.0235 72.2836 51.1837 70.9196C51.4276 70.6327 51.6573 70.339 51.8729 70.0384C49.447 72.4564 46.1932 73.8809 42.7576 74.0292C39.322 74.1774 35.9558 73.0385 33.3274 70.8386Z" fill="black"/>
<path d="M99.2961 93.0558C99.4713 92.8436 99.5975 92.5959 99.6658 92.3301C99.734 92.0643 99.7427 91.7868 99.6912 91.5174C99.6397 91.2479 99.5292 90.9929 99.3676 90.7703C99.206 90.5477 98.9972 90.363 98.7559 90.2292L94.6675 73.6287L91.6851 74.5731L96.0998 91.0604C95.9 91.4775 95.8614 91.9528 95.9913 92.3963C96.1212 92.8397 96.4105 93.2205 96.8045 93.4665C97.1985 93.7125 97.6698 93.8065 98.129 93.7308C98.5882 93.6551 99.0035 93.4149 99.2961 93.0558H99.2961Z" fill="#FFB6B6"/>
<path d="M97.1829 82.4371L95.0033 84.3024L91.954 86.9102L90.6072 80.0743L90.4664 79.3634L90.3555 78.7993L93.4452 73.4602L96.0209 73.6067L96.197 73.6172L96.2005 73.6558L96.241 74.0139L96.7692 78.7258L96.7815 78.8395L97.1829 82.4371Z" fill="#EEEAE5"/>
<path d="M82.9367 128.838L80.7784 128.838L79.7515 120.579L82.9372 120.579L82.9367 128.838Z" fill="#FFB6B6"/>
<path d="M83.4875 130.913L76.5278 130.913V130.826C76.5279 130.113 76.8133 129.43 77.3213 128.926C77.8293 128.422 78.5183 128.138 79.2367 128.138H79.2369L83.4876 128.139L83.4875 130.913Z" fill="#316146"/>
<path d="M105.472 129.013L103.314 129.013L102.287 120.754L105.472 120.754L105.472 129.013Z" fill="#FFB6B6"/>
<path d="M106.022 131.088L99.0625 131.088V131C99.0626 130.288 99.348 129.604 99.856 129.1C100.364 128.596 101.053 128.313 101.771 128.313H101.772L106.022 128.313L106.022 131.088Z" fill="#316146"/>
<path d="M107.197 125.725L101.387 126.599L92.935 98.2211L83.9579 126.773L77.4438 125.9L85.8945 92.7161V90.0963L87.0389 86.1666L86.9191 85.103L86.0864 77.6646L85.7255 74.4387L85.7021 74.2304C85.6825 74.0555 85.7292 73.8796 85.8331 73.737C85.937 73.5944 86.0907 73.4953 86.2642 73.4589L88.9755 72.8931H93.4068L96.0212 73.6074L96.2008 73.6563L96.2818 73.679L96.2413 74.0143L95.6286 79.1107L95.5952 79.3901L95.0036 84.3031L94.8733 85.3807C99.9789 89.0484 100.155 92.7161 100.155 92.7161L107.197 125.725Z" fill="#224632"/>
<path d="M90.6552 70.6833C93.0433 70.6833 94.9793 68.7627 94.9793 66.3936C94.9793 64.0245 93.0433 62.104 90.6552 62.104C88.267 62.104 86.3311 64.0245 86.3311 66.3936C86.3311 68.7627 88.267 70.6833 90.6552 70.6833Z" fill="#FFB6B6"/>
<path d="M95.197 84.3952L86.6431 85.5049L86.8029 86.7171L95.3568 85.6074L95.197 84.3952Z" fill="#EEEAE5"/>
<path d="M75.1697 85.8696C75.2514 85.9221 75.3289 85.9809 75.4014 86.0455L83.862 83.9059L84.4392 81.8811L87.6334 82.3458L86.9627 86.0289C86.9086 86.3264 86.7586 86.5985 86.5352 86.8042C86.3119 87.01 86.0273 87.1384 85.7242 87.17L75.8456 88.2021C75.6845 88.5383 75.4241 88.818 75.099 89.0039C74.7738 89.1898 74.3993 89.2731 74.0253 89.2427C73.6513 89.2123 73.2954 89.0697 73.0051 88.8338C72.7148 88.5978 72.5037 88.2798 72.4001 87.922C72.2964 87.5642 72.3049 87.1836 72.4247 86.8307C72.5444 86.4779 72.7695 86.1695 73.0702 85.9467C73.3708 85.7239 73.7328 85.5972 74.1078 85.5834C74.4828 85.5697 74.8532 85.6695 75.1697 85.8696Z" fill="#FFB6B6"/>
<path d="M88.1831 74.5514L86.6866 73.4162C86.282 73.264 85.7276 73.6965 85.6302 74.1148L83.5176 82.6728L87.919 85.8165L88.5352 84.8559L88.1831 74.5514Z" fill="#EEEAE5"/>
<g opacity="0.2">
<path opacity="0.2" d="M96.7695 78.7264C96.396 78.8735 96.0152 79.0017 95.6287 79.1106C95.5054 79.1473 95.3787 79.1823 95.2537 79.2154C94.4297 79.4422 93.583 79.5781 92.729 79.6206C92.3614 79.6361 91.9932 79.6261 91.627 79.5909C91.2338 79.5521 90.8453 79.476 90.4668 79.3639C90.4544 79.3604 90.4403 79.3569 90.428 79.3534C89.6408 79.1317 88.9191 78.7249 88.3241 78.1675C88.1912 78.0391 88.0671 77.902 87.9527 77.7571C87.6239 77.3577 87.3827 76.8946 87.2445 76.3976C87.1063 75.9005 87.074 75.3802 87.1498 74.8701C87.1646 74.7777 87.1846 74.6861 87.2098 74.5959C87.2761 74.3501 87.3638 74.1105 87.472 73.8798C87.5196 73.7716 87.5724 73.665 87.6288 73.5602L89.6181 72.8931H93.4068L96.0213 73.6074L96.1973 73.6179L96.2008 73.6563L96.2818 73.679L96.2413 74.0143L96.7695 78.7264Z" fill="black"/>
</g>
<path d="M87.342 62.842C86.5333 62.7436 85.6458 62.8132 85.0155 63.3253C84.3852 63.8374 84.1818 64.902 84.7786 65.4522C85.3069 65.9394 86.133 65.8248 86.8407 65.9633C87.4503 66.0989 87.9964 66.4334 88.3917 66.9133C88.7869 67.3932 89.0085 67.9908 89.0209 68.6105C89.0103 70.3874 87.2913 71.733 86.9825 73.4834C86.7718 74.678 87.2796 75.9352 88.1577 76.779C89.0357 77.6228 90.2427 78.0789 91.4589 78.2024C92.675 78.3259 93.9047 78.1373 95.0866 77.8273C96.2734 77.516 97.4418 77.0745 98.4377 76.3623C99.4335 75.6502 100.25 74.6463 100.57 73.4705C100.889 72.2947 100.66 70.9466 99.8358 70.0438C98.8923 69.0101 97.3227 68.6546 96.5066 67.5191C95.5918 66.2463 95.9303 64.4337 95.1899 63.0538C94.6955 62.1324 93.7595 61.504 92.7618 61.173C91.764 60.842 90.6986 60.7766 89.647 60.7446C89.0942 60.7277 88.5246 60.7221 88.0096 60.922C87.4946 61.1219 87.0419 61.5775 87.0152 62.1255C86.9885 62.6734 87.342 62.842 87.342 62.842Z" fill="#316146"/>
<path d="M127.824 131.159H60.7469C60.7002 131.159 60.6554 131.141 60.6224 131.108C60.5894 131.075 60.5708 131.031 60.5708 130.984C60.5708 130.938 60.5894 130.894 60.6224 130.861C60.6554 130.828 60.7002 130.81 60.7469 130.81H127.824C127.871 130.81 127.915 130.828 127.948 130.861C127.981 130.894 128 130.938 128 130.984C128 131.031 127.981 131.075 127.948 131.108C127.915 131.141 127.871 131.159 127.824 131.159Z" fill="#CACACA"/>
</g>
<defs>
<clipPath id="clip0_5093_109805">
<rect width="104" height="115.159" fill="white" transform="translate(24 16)"/>
</clipPath>
</defs>
</svg>
