<svg width="505" height="561" viewBox="0 0 505 561" fill="none" xmlns="http://www.w3.org/2000/svg">
<g clip-path="url(#clip0_12_15964)">
<path d="M481.243 528.443C478.096 529.542 474.716 529.818 471.43 529.242C468.143 528.667 465.062 527.261 462.481 525.16C455.91 519.68 453.847 510.653 452.173 502.293L447.215 477.568L457.596 484.67C465.061 489.777 472.695 495.047 477.864 502.445C483.034 509.842 485.29 519.941 481.137 527.944" fill="#E6E6E6"/>
<path d="M480.356 558.377C481.407 550.773 482.487 543.073 481.751 535.387C481.096 528.562 479 521.896 474.733 516.43C472.468 513.534 469.712 511.053 466.588 509.098C465.774 508.588 465.025 509.87 465.835 510.378C471.239 513.771 475.419 518.781 477.772 524.686C480.371 531.253 480.788 538.412 480.337 545.387C480.066 549.606 479.492 553.795 478.913 557.982C478.867 558.172 478.895 558.372 478.991 558.541C479.088 558.711 479.247 558.837 479.435 558.894C479.625 558.946 479.829 558.92 480.001 558.823C480.173 558.726 480.299 558.565 480.353 558.376L480.356 558.377Z" fill="#F2F2F2"/>
<path d="M442.731 432.084H8.4209V0.607422H442.731V432.084Z" fill="white"/>
<path d="M442.731 432.084H8.4209V0.607422H442.731V432.084ZM14.8377 425.709H436.314V6.98246H14.8377V425.709Z" fill="#E5E5E5"/>
<path d="M365.792 68.1104H177.718V73.9307H365.792V68.1104Z" fill="#E5E5E5"/>
<path d="M365.792 83.2422H177.718V89.0626H365.792V83.2422Z" fill="#E5E5E5"/>
<path d="M365.792 98.3789H177.718V104.199H365.792V98.3789Z" fill="#E5E5E5"/>
<path d="M365.792 198.058H177.718V203.878H365.792V198.058Z" fill="#E5E5E5"/>
<path d="M365.792 213.188H177.718V219.009H365.792V213.188Z" fill="#E5E5E5"/>
<path d="M365.792 228.323H177.718V234.144H365.792V228.323Z" fill="#E5E5E5"/>
<path d="M365.792 328.002H177.718V333.822H365.792V328.002Z" fill="#E5E5E5"/>
<path d="M365.792 343.133H177.718V348.953H365.792V343.133Z" fill="#E5E5E5"/>
<path d="M365.792 358.266H177.718V364.086H365.792V358.266Z" fill="#E5E5E5"/>
<path d="M102.426 114.485C99.2135 112.803 95.8598 111.401 92.403 110.295L91.9623 105.451L74.086 103.537L71.8141 109.729L65.3987 112.121C65.1691 112.207 64.9506 112.32 64.7477 112.457H64.7407C64.3827 112.698 64.0778 113.008 63.8446 113.37C63.6114 113.731 63.4548 114.136 63.3844 114.559C63.3159 114.981 63.3321 115.411 63.4321 115.826L63.7712 117.207C64.2593 117.497 64.7612 117.773 65.2629 118.036L65.5818 118.198C66.3143 118.575 67.0603 118.932 67.8265 119.262C67.9825 119.33 68.1521 119.397 68.308 119.464C68.3216 119.471 68.3282 119.471 68.3418 119.478C68.7014 119.626 69.0607 119.767 69.4269 119.902C70.6299 120.359 71.8569 120.75 73.1025 121.075C76.2816 121.916 79.5577 122.342 82.8478 122.341C84.0481 122.341 85.2349 122.287 86.4081 122.173C89.0888 121.927 91.7353 121.396 94.302 120.589C94.3087 120.589 94.3156 120.583 94.3222 120.583C95.9437 120.07 97.5276 119.446 99.0628 118.716C99.0694 118.71 99.083 118.71 99.0899 118.703C99.4356 118.541 99.7681 118.366 100.107 118.198L100.27 118.117C100.541 117.975 100.812 117.834 101.084 117.686C101.762 117.315 102.426 116.924 103.084 116.507C103.267 116.399 103.444 116.284 103.627 116.163C103.884 115.995 104.142 115.819 104.393 115.637C103.762 115.233 103.105 114.849 102.426 114.485Z" fill="#EEEAE5"/>
<path d="M68.8778 117.471L67.7589 112.451H64.836C64.8065 112.452 64.7771 112.454 64.7479 112.458H64.7409C63.6905 112.546 62.6789 112.894 61.7978 113.469C61.2002 113.848 60.6688 114.321 60.2246 114.87C61.0925 115.523 61.9945 116.13 62.9237 116.709L62.9644 116.729C63.2286 116.891 63.5002 117.053 63.7714 117.208C64.2596 117.497 64.7615 117.774 65.2632 118.036L65.5821 118.198C66.3145 118.575 67.0606 118.932 67.8268 119.263C67.9828 119.33 68.1523 119.397 68.3083 119.465C68.3219 119.471 68.3285 119.472 68.3421 119.478C68.7017 119.627 69.061 119.768 69.4272 119.903L68.8778 117.471Z" fill="#EEEAE5"/>
<path d="M82.3229 100.475C89.4333 100.475 95.1975 94.7483 95.1975 87.6842C95.1975 80.6201 89.4333 74.8936 82.3229 74.8936C75.2124 74.8936 69.4482 80.6201 69.4482 87.6842C69.4482 94.7483 75.2124 100.475 82.3229 100.475Z" fill="#FFB8B8"/>
<path d="M73.679 81.4543C75.0118 83.0212 77.2672 83.4634 79.3478 83.6447C84.2122 83.9116 89.0905 83.5159 93.8468 82.4685C94.1415 85.3064 93.338 88.3663 95.0205 90.7007C95.8092 87.8745 96.2678 84.9675 96.3873 82.0371C96.5129 80.7798 96.3476 79.5106 95.9042 78.3265C95.6671 77.733 95.2671 77.2176 94.7498 76.8387C94.2326 76.4598 93.6187 76.2327 92.9779 76.1832C93.9371 75.4603 95.0606 74.9831 96.2494 74.7937L92.1614 72.7527L93.2112 71.682L85.8101 71.232L87.9537 69.8791C84.7274 69.4387 81.4635 69.3363 78.2156 69.5737C76.6979 69.5744 75.2089 69.9855 73.9086 70.7631C72.6866 71.6313 71.9805 73.3567 72.7391 74.6313C71.7893 74.7862 70.8951 75.1795 70.1411 75.7738C69.3872 76.3682 68.7984 77.1439 68.4307 78.0276C67.9656 79.4321 67.8533 80.9283 68.1036 82.3858C68.3825 84.7243 68.9295 87.0235 69.7341 89.2385L73.679 81.4543Z" fill="#316146"/>
<path d="M118.526 73.8176C116.72 68.662 113.803 63.96 109.98 60.0394C106.156 56.1187 101.518 53.0739 96.3884 51.1171C91.2587 49.1604 85.7611 48.3389 80.279 48.7098C74.7969 49.0808 69.4622 50.6353 64.647 53.265C59.8318 55.8947 55.6518 59.5362 52.3988 63.9357C49.1457 68.3352 46.8978 73.3867 45.8117 78.738C44.7257 84.0892 44.8276 89.6114 46.1105 94.9195C47.3934 100.228 49.8263 105.194 53.2397 109.472C53.5787 109.896 53.9314 110.321 54.291 110.732C54.3182 110.759 54.3384 110.786 54.3655 110.813C55.2495 111.824 56.189 112.787 57.1798 113.696C57.4377 113.932 57.709 114.174 57.9801 114.404C58.4954 114.862 59.0245 115.3 59.5739 115.717C59.7908 115.886 60.001 116.054 60.2249 116.216C61.0928 116.869 61.9948 117.476 62.924 118.055L62.9647 118.075C63.2289 118.237 63.5005 118.399 63.7717 118.554C64.2599 118.843 64.7618 119.12 65.2635 119.382L65.5823 119.544C66.3148 119.921 67.0609 120.279 67.8271 120.609C67.9831 120.676 68.1526 120.743 68.3086 120.811C68.3222 120.818 68.3288 120.818 68.3423 120.824C68.702 120.973 69.0613 121.114 69.4275 121.249C70.6305 121.705 71.8574 122.097 73.1031 122.421C76.2821 123.263 79.5583 123.689 82.8483 123.688C84.0487 123.688 85.2355 123.634 86.4087 123.519C89.0894 123.273 91.7358 122.743 94.3026 121.936C94.3092 121.936 94.3162 121.929 94.3228 121.929C95.9442 121.416 97.5282 120.792 99.0633 120.063C99.0699 120.056 99.0835 120.056 99.0905 120.05C99.4362 119.888 99.7686 119.713 100.108 119.544L100.27 119.463C100.541 119.322 100.813 119.18 101.084 119.032C101.762 118.662 102.427 118.271 103.085 117.853C103.268 117.745 103.444 117.631 103.627 117.509C103.885 117.341 104.143 117.166 104.394 116.984C104.726 116.755 105.058 116.519 105.384 116.277C105.485 116.202 105.594 116.128 105.696 116.048C112.049 111.256 116.713 104.59 119.018 97.0037C121.322 89.4174 121.151 81.3008 118.526 73.8176V73.8176ZM104.448 114.41C104.224 114.585 103.994 114.754 103.763 114.909C103.539 115.077 103.315 115.239 103.085 115.387C102.888 115.529 102.691 115.663 102.488 115.791L102.427 115.832C102.278 115.933 102.129 116.027 101.979 116.122C101.416 116.472 100.847 116.809 100.27 117.132L100.087 117.233C99.8296 117.375 99.5719 117.51 99.3143 117.644C99.2802 117.664 99.2395 117.678 99.2057 117.698L99.165 117.718C98.8395 117.887 98.507 118.049 98.1749 118.203C96.8926 118.817 95.572 119.348 94.2212 119.793C94.0447 119.854 93.8685 119.915 93.6924 119.969C91.2629 120.736 88.7573 121.242 86.219 121.478C85.1067 121.579 83.9809 121.633 82.8484 121.633C79.7365 121.639 76.6375 121.236 73.6322 120.434C72.0899 120.034 70.5783 119.525 69.1089 118.911C69.0341 118.877 68.9527 118.85 68.8781 118.817C68.797 118.783 68.7222 118.756 68.6477 118.722C68.5662 118.689 68.4917 118.655 68.4102 118.614C67.7728 118.338 67.142 118.035 66.5251 117.718L66.2267 117.563C65.4737 117.173 64.7346 116.755 64.0157 116.31C63.8054 116.182 63.5886 116.048 63.3849 115.906C63.331 115.872 63.2833 115.839 63.229 115.805C62.7475 115.488 62.2661 115.158 61.7982 114.815C61.4796 114.579 61.1607 114.343 60.8488 114.1C60.3266 113.71 59.8246 113.292 59.3365 112.861C59.0789 112.645 58.8279 112.409 58.5838 112.187C57.6223 111.305 56.712 110.369 55.8576 109.384C55.5728 109.061 55.2947 108.737 55.0301 108.401C54.9699 108.334 54.9133 108.264 54.8605 108.192C50.4543 102.668 47.804 95.9653 47.2476 88.9389C46.6913 81.9126 48.254 74.8808 51.7366 68.7403C55.2192 62.5999 60.4638 57.6291 66.8016 54.462C73.1393 51.2948 80.2829 50.0748 87.3215 50.9574C94.36 51.8401 100.974 54.7855 106.321 59.418C111.668 64.0505 115.505 70.1601 117.342 76.9677C119.179 83.7753 118.934 90.9724 116.638 97.641C114.341 104.31 110.098 110.148 104.448 114.41L104.448 114.41Z" fill="#EEEAE5"/>
<path d="M118.526 203.762C116.72 198.606 113.803 193.904 109.98 189.984C106.156 186.063 101.518 183.018 96.3884 181.061C91.2587 179.105 85.7611 178.283 80.279 178.654C74.7969 179.025 69.4622 180.58 64.647 183.209C59.8318 185.839 55.6519 189.481 52.3988 193.88C49.1457 198.279 46.8978 203.331 45.8117 208.682C44.7257 214.034 44.8276 219.556 46.1105 224.864C47.3934 230.172 49.8263 235.138 53.2396 239.416C53.5787 239.841 53.9314 240.265 54.2906 240.676C54.3178 240.703 54.338 240.73 54.3651 240.757C55.2493 241.769 56.189 242.731 57.1798 243.64C57.4374 243.876 57.7086 244.119 57.9798 244.348C58.4954 244.806 59.0242 245.244 59.5735 245.662C60.6461 246.502 61.7645 247.282 62.9236 247.999L62.9644 248.02C63.717 248.485 64.4833 248.916 65.2634 249.327L65.582 249.489C66.3145 249.866 67.0605 250.223 67.8267 250.553C67.9827 250.62 68.1522 250.688 68.3082 250.755C68.3218 250.762 68.3287 250.762 68.3423 250.769C69.8906 251.408 71.4813 251.942 73.103 252.365C76.282 253.207 79.558 253.633 82.848 253.632C84.0484 253.632 85.2351 253.578 86.4083 253.464C89.089 253.218 91.7355 252.687 94.3022 251.88C94.3092 251.88 94.3158 251.873 94.3224 251.873C95.9439 251.36 97.5278 250.737 99.063 250.007C99.0696 250.001 99.0835 250.001 99.0901 249.994C99.4358 249.832 99.7683 249.657 100.107 249.488L100.27 249.408C100.541 249.266 100.813 249.125 101.084 248.976C101.762 248.606 102.427 248.215 103.085 247.797C103.268 247.689 103.444 247.575 103.627 247.454C104.224 247.063 104.814 246.645 105.383 246.221C105.485 246.147 105.594 246.073 105.696 245.992C112.049 241.201 116.712 234.534 119.017 226.948C121.322 219.362 121.15 211.245 118.526 203.762V203.762Z" fill="white"/>
<path d="M95.3153 231.57C98.4423 231.57 100.977 229.052 100.977 225.945C100.977 222.839 98.4423 220.32 95.3153 220.32C92.1883 220.32 89.6533 222.839 89.6533 225.945C89.6533 229.052 92.1883 231.57 95.3153 231.57Z" fill="#316146"/>
<path d="M96.8929 220.476C97.8729 220.476 98.8361 220.728 99.6883 221.209C100.541 221.69 101.253 222.382 101.755 223.218C102.257 224.054 102.533 225.005 102.554 225.978C102.576 226.952 102.342 227.914 101.877 228.771C102.368 228.161 102.726 227.456 102.927 226.701C103.128 225.946 103.169 225.157 103.047 224.386C102.924 223.614 102.642 222.876 102.217 222.219C101.792 221.562 101.233 221.001 100.578 220.57C99.922 220.139 99.1831 219.849 98.4082 219.717C97.6333 219.586 96.8392 219.616 96.0768 219.806C95.3143 219.996 94.6 220.342 93.9795 220.822C93.359 221.301 92.8458 221.904 92.4727 222.591C93.002 221.931 93.6744 221.398 94.4398 221.032C95.2052 220.665 96.044 220.475 96.8936 220.476L96.8929 220.476Z" fill="#316146"/>
<path d="M84.7342 225.934C93.9201 225.934 101.367 218.536 101.367 209.41C101.367 200.284 93.9201 192.886 84.7342 192.886C75.5482 192.886 68.1016 200.284 68.1016 209.41C68.1016 218.536 75.5482 225.934 84.7342 225.934Z" fill="#316146"/>
<path d="M71.6816 199.158C74.5475 195.956 78.5536 193.985 82.8543 193.662C87.155 193.339 91.414 194.688 94.7323 197.425C94.5966 197.297 94.461 197.167 94.3206 197.043C91.035 194.118 86.7147 192.611 82.3101 192.851C77.9055 193.091 73.7774 195.06 70.834 198.325C67.8906 201.589 66.3729 205.881 66.6149 210.257C66.8569 214.633 68.8387 218.734 72.1243 221.658C72.1559 221.686 72.1876 221.714 72.2193 221.742C72.3604 221.867 72.5055 221.984 72.65 222.104C69.5252 219.15 67.6775 215.106 67.4969 210.825C67.3164 206.544 68.8171 202.361 71.6822 199.158L71.6816 199.158Z" fill="#316146"/>
<path d="M84.5941 225.793C90.5103 225.793 95.3063 221.028 95.3063 215.15C95.3063 209.273 90.5103 204.508 84.5941 204.508C78.6779 204.508 73.8818 209.273 73.8818 215.15C73.8818 221.028 78.6779 225.793 84.5941 225.793Z" fill="#A0616A"/>
<path d="M103.763 242.882V246.453C103.105 246.871 102.441 247.261 101.763 247.632C101.491 247.78 101.22 247.922 100.949 248.063L100.786 248.144C100.447 248.312 100.115 248.488 99.7689 248.649C99.7623 248.656 99.7484 248.656 99.7418 248.663C98.2066 249.392 96.6227 250.016 95.0012 250.529C94.9946 250.529 94.988 250.536 94.981 250.536C92.4143 251.342 89.7679 251.873 87.0871 252.119C85.9139 252.234 84.7271 252.287 83.5268 252.287C80.2368 252.288 76.9608 251.863 73.7819 251.021C72.1601 250.597 70.5695 250.064 69.0211 249.424C69.0076 249.417 69.0006 249.417 68.987 249.411C68.831 249.343 68.6615 249.276 68.5055 249.208C67.7393 248.878 66.9933 248.521 66.2608 248.144L65.9422 247.982C65.1621 247.571 64.3959 247.14 63.6432 246.675L63.6025 246.655C62.4434 245.937 61.325 245.157 60.2524 244.317C59.703 243.899 59.1742 243.461 58.6586 243.003C58.3874 242.774 58.1162 242.532 57.8586 242.296C56.8678 241.387 55.9281 240.424 55.0439 239.412C55.1612 238.711 55.3336 238.019 55.5595 237.344L55.5661 237.337C55.6067 237.222 55.6543 237.11 55.7085 237C55.7459 236.904 55.789 236.809 55.8374 236.717C57.0513 234.46 59.2487 233.901 61.9749 233.78C63.5144 233.712 65.2164 233.787 67.0138 233.766C67.9632 233.76 68.9463 233.726 69.9298 233.638C76.1349 233.079 75.0094 229.441 75.2872 227.48C75.5654 225.581 77.2879 227.224 77.4032 227.332L77.4098 227.339C80.9213 228.972 84.8063 229.648 88.6674 229.3C89.3319 229.219 89.9965 229.172 90.6611 229.151C92.4108 229.131 92.031 229.63 91.4277 230.041C91.1348 230.232 90.8288 230.403 90.5121 230.553C90.5121 230.553 90.234 232.237 89.9492 234.757C89.678 237.169 94.3301 238.301 94.7165 238.388C94.7245 238.394 94.7341 238.396 94.7437 238.395C96.4426 237.957 98.2313 238.004 99.9047 238.53H99.9114C100.868 238.879 101.721 239.46 102.393 240.22C103.066 240.98 103.537 241.895 103.763 242.882Z" fill="#CFD762"/>
<path d="M69.0885 247.211C69.0885 247.71 69.0752 248.188 69.0547 248.639C69.0481 248.909 69.0345 249.172 69.0209 249.421C69.0074 249.414 69.0004 249.414 68.9868 249.408C68.8309 249.34 68.6613 249.273 68.5053 249.205C67.7391 248.875 66.9931 248.518 66.2606 248.141L65.9421 247.979C65.1619 247.568 64.3957 247.137 63.643 246.672C63.6632 246.436 63.6973 246.201 63.731 245.965C63.8056 245.446 63.8668 244.92 63.9075 244.402C64.1742 240.757 63.5093 237.104 61.9747 233.783V233.777C61.839 233.507 61.7578 233.359 61.7578 233.359C61.7578 233.359 63.731 231.675 66.5453 233.359C66.7251 233.464 66.8839 233.601 67.0136 233.763C68.709 235.751 69.1699 242.434 69.0885 247.211Z" fill="#316146"/>
<path d="M99.8836 246.295C99.8564 247.05 99.8157 247.838 99.7683 248.64V248.646C99.7617 248.653 99.7478 248.653 99.7412 248.66C98.206 249.389 96.6221 250.013 95.0006 250.526C94.994 250.526 94.9874 250.533 94.9805 250.533L94.9059 248.64L94.899 248.39L94.5397 239.174C94.5301 238.965 94.5631 238.757 94.6368 238.561C94.7105 238.365 94.8234 238.187 94.9685 238.035C95.1136 237.884 95.2881 237.764 95.4813 237.682C95.6745 237.599 95.8825 237.557 96.0927 237.557H99.5309C99.7004 237.557 99.8226 237.9 99.9041 238.52V238.527C100.071 241.114 100.064 243.709 99.8836 246.295Z" fill="#316146"/>
<path d="M75.4316 201.85V212.495H77.9124L81.0692 209.134L80.6468 212.495H91.6126L90.9345 209.134L92.2908 212.495H94.0391V201.85H75.4316Z" fill="#316146"/>
<path d="M73.7412 214.453C74.2082 214.453 74.5869 213.764 74.5869 212.913C74.5869 212.063 74.2082 211.373 73.7412 211.373C73.2741 211.373 72.8955 212.063 72.8955 212.913C72.8955 213.764 73.2741 214.453 73.7412 214.453Z" fill="#A0616A"/>
<path d="M95.4482 214.453C95.9152 214.453 96.2938 213.764 96.2938 212.913C96.2938 212.063 95.9152 211.373 95.4482 211.373C94.9812 211.373 94.6025 212.063 94.6025 212.913C94.6025 213.764 94.9812 214.453 95.4482 214.453Z" fill="#A0616A"/>
<path d="M106.061 244.874C105.492 245.298 104.902 245.716 104.305 246.107C104.122 246.228 103.946 246.342 103.763 246.45C103.105 246.868 102.44 247.259 101.762 247.629C101.491 247.777 101.219 247.919 100.948 248.06V240.636C100.948 240.636 102.033 241.498 103.762 242.933C103.979 243.115 104.203 243.304 104.441 243.506C104.942 243.924 105.485 244.382 106.061 244.874Z" fill="#CFD762"/>
<path d="M118.526 203.762C116.72 198.606 113.803 193.904 109.98 189.984C106.156 186.063 101.518 183.018 96.3884 181.061C91.2587 179.105 85.7611 178.283 80.279 178.654C74.7969 179.025 69.4622 180.58 64.647 183.209C59.8318 185.839 55.6519 189.481 52.3988 193.88C49.1457 198.279 46.8978 203.331 45.8117 208.682C44.7257 214.034 44.8276 219.556 46.1105 224.864C47.3934 230.172 49.8263 235.138 53.2396 239.416C53.5787 239.841 53.9314 240.265 54.2906 240.676C54.3178 240.703 54.338 240.73 54.3651 240.757C55.2493 241.769 56.189 242.731 57.1798 243.64C57.4374 243.876 57.7086 244.119 57.9798 244.348C58.4954 244.806 59.0242 245.244 59.5735 245.662C60.6461 246.502 61.7645 247.282 62.9236 247.999L62.9644 248.02C63.717 248.485 64.4833 248.916 65.2634 249.327L65.582 249.489C66.3145 249.866 67.0605 250.223 67.8267 250.553C67.9827 250.62 68.1522 250.688 68.3082 250.755C68.3218 250.762 68.3287 250.762 68.3423 250.769C69.8906 251.408 71.4813 251.942 73.103 252.365C76.282 253.207 79.558 253.633 82.848 253.632C84.0484 253.632 85.2351 253.578 86.4083 253.464C89.089 253.218 91.7355 252.687 94.3022 251.88C94.3092 251.88 94.3158 251.873 94.3224 251.873C95.9439 251.36 97.5278 250.737 99.063 250.007C99.0696 250.001 99.0835 250.001 99.0901 249.994C99.4358 249.832 99.7683 249.657 100.107 249.488L100.27 249.408C100.541 249.266 100.813 249.125 101.084 248.976C101.762 248.606 102.427 248.215 103.085 247.797C103.268 247.689 103.444 247.575 103.627 247.454C104.224 247.063 104.814 246.645 105.383 246.221C105.485 246.147 105.594 246.073 105.696 245.992C112.049 241.201 116.712 234.534 119.017 226.948C121.322 219.362 121.15 211.245 118.526 203.762V203.762ZM104.448 244.355C104.224 244.53 103.993 244.698 103.763 244.853C103.539 245.022 103.315 245.183 103.085 245.331C102.888 245.473 102.691 245.608 102.488 245.736C102.318 245.85 102.149 245.958 101.979 246.066C101.416 246.416 100.847 246.753 100.27 247.076L100.087 247.178C99.8292 247.319 99.5716 247.454 99.3139 247.589C99.2798 247.609 99.2391 247.622 99.2054 247.642L99.1647 247.663C98.8392 247.831 98.507 247.993 98.1746 248.148C96.8923 248.761 95.5716 249.292 94.2208 249.738C94.0447 249.798 93.8682 249.859 93.692 249.913C91.2625 250.681 88.757 251.187 86.2186 251.422C85.1063 251.523 83.9805 251.577 82.848 251.577C79.7361 251.583 76.6371 251.18 73.6319 250.378C72.0895 249.978 70.5779 249.469 69.1086 248.855C68.9526 248.794 68.7966 248.727 68.6473 248.666C68.5662 248.633 68.4913 248.599 68.4099 248.559C67.7724 248.282 67.142 247.979 66.5247 247.663L66.2264 247.508C65.4737 247.117 64.7343 246.699 64.0154 246.255C63.7512 246.093 63.4866 245.924 63.229 245.749C62.415 245.217 61.6216 244.644 60.8484 244.045C60.3262 243.654 59.8246 243.236 59.3361 242.805C59.0785 242.589 58.8275 242.354 58.5835 242.131C57.622 241.249 56.7118 240.313 55.8573 239.328C55.5725 239.005 55.2943 238.682 55.0297 238.345C54.9696 238.278 54.913 238.208 54.8602 238.136C50.454 232.612 47.8037 225.91 47.2473 218.883C46.6909 211.857 48.2537 204.825 51.7363 198.685C55.2189 192.544 60.4635 187.573 66.8012 184.406C73.1389 181.239 80.2826 180.019 87.3211 180.902C94.3596 181.784 100.974 184.73 106.321 189.362C111.667 193.995 115.504 200.104 117.342 206.912C119.179 213.72 118.934 220.917 116.637 227.585C114.341 234.254 110.097 240.092 104.448 244.355V244.355Z" fill="#EEEAE5"/>
<path d="M83.0617 362.915C91.2366 362.915 97.8636 356.331 97.8636 348.209C97.8636 340.088 91.2366 333.504 83.0617 333.504C74.8868 333.504 68.2598 340.088 68.2598 348.209C68.2598 356.331 74.8868 362.915 83.0617 362.915Z" fill="#316146"/>
<path d="M71.5081 340.28C73.9001 337.904 74.3848 334.533 72.5909 332.751C70.7969 330.968 67.4036 331.45 65.0117 333.826C62.6197 336.203 62.1349 339.574 63.9289 341.356C65.7229 343.138 69.1162 342.657 71.5081 340.28Z" fill="#316146"/>
<path d="M98.4896 335.609C99.4862 333.291 97.7723 330.342 94.6615 329.022C91.5507 327.702 88.221 328.511 87.2244 330.829C86.2278 333.146 87.9417 336.096 91.0525 337.416C94.1633 338.736 97.4929 337.927 98.4896 335.609Z" fill="#316146"/>
<path d="M100.768 376.733L99.0236 374.006C98.2836 372.364 96.9186 371.08 95.2276 370.436C93.5366 369.791 91.6575 369.839 90.0017 370.568C88.346 371.297 87.0486 372.648 86.3938 374.326C85.7389 376.004 85.78 377.871 86.508 379.518L87.0039 381.285L87.5683 383.289C89.853 383.003 92.1074 382.514 94.3046 381.828C94.3111 381.828 94.3171 381.825 94.3217 381.82C95.9458 381.309 97.5314 380.685 99.0666 379.951C99.0749 379.943 99.0833 379.943 99.092 379.934C99.4339 379.773 99.7674 379.603 100.109 379.433C100.165 379.408 100.219 379.38 100.272 379.348C100.545 379.212 100.819 379.068 101.084 378.924C101.357 378.779 101.622 378.626 101.879 378.465L100.768 376.733Z" fill="#CACACA"/>
<path d="M83.531 364.2C90.4689 364.2 96.0932 358.612 96.0932 351.72C96.0932 344.827 90.4689 339.239 83.531 339.239C76.593 339.239 70.9688 344.827 70.9688 351.72C70.9688 358.612 76.593 364.2 83.531 364.2Z" fill="#FFB6B6"/>
<path d="M101.673 376.199C100.287 373.91 98.5674 371.838 96.5692 370.05C95.2006 368.836 93.4293 368.164 91.5939 368.165H73.8977C72.878 368.165 71.8691 368.372 70.9332 368.774C69.9974 369.177 69.1545 369.765 68.4567 370.504C67.7588 371.242 67.2209 372.115 66.876 373.069C66.5311 374.022 66.3867 375.036 66.4517 376.047C66.4903 376.617 66.5936 377.181 66.7597 377.728C66.8859 378.125 67.043 378.511 67.2297 378.883L68.1017 380.616C68.1702 380.641 68.2386 380.675 68.3067 380.701C68.3238 380.709 68.3326 380.709 68.3409 380.718C68.6999 380.862 69.0592 381.006 69.4266 381.142C70.6296 381.599 71.8568 381.99 73.1028 382.314C75.1085 382.849 77.156 383.216 79.2235 383.41C80.429 383.52 81.6345 383.58 82.8484 383.58C84.0539 383.58 85.2335 383.52 86.4132 383.41C86.7981 383.376 87.1825 383.334 87.5674 383.291C89.8522 383.004 92.1066 382.516 94.3038 381.83C94.3103 381.829 94.3163 381.826 94.3209 381.822C95.945 381.311 97.5305 380.687 99.0657 379.953C99.074 379.945 99.0824 379.945 99.0912 379.936C99.4331 379.775 99.7665 379.605 100.108 379.435C100.164 379.41 100.219 379.382 100.271 379.35C100.544 379.214 100.818 379.07 101.083 378.926C101.357 378.781 101.621 378.628 101.878 378.467C102.152 378.323 102.408 378.161 102.673 378C102.348 377.363 102.015 376.768 101.673 376.199Z" fill="#CACACA"/>
<path d="M77.1041 370.439C75.4665 369.678 73.5922 369.592 71.891 370.2C70.1897 370.808 68.8 372.06 68.0256 373.683L66.4523 376.044L65.7001 377.174L64.5547 378.89C64.7939 379.017 65.0247 379.144 65.2643 379.272L65.5803 379.433C66.3158 379.807 67.0592 380.164 67.829 380.495C67.9141 380.537 68.0085 380.571 68.1024 380.614C68.1708 380.639 68.2393 380.673 68.3073 380.699C68.3244 380.707 68.3332 380.707 68.3415 380.716C68.7005 380.86 69.0599 381.004 69.4272 381.14C70.6302 381.597 71.8575 381.988 73.1035 382.312C75.1092 382.847 77.1566 383.214 79.2242 383.408L79.8227 381.395L80.4042 379.476C81.1706 377.842 81.2535 375.973 80.6349 374.279C80.0162 372.585 78.7464 371.204 77.1041 370.439Z" fill="#CACACA"/>
<path d="M70.3311 343.868C73.2017 345.833 76.609 346.879 80.0954 346.866C78.8517 347.722 77.4359 348.301 75.9455 348.562C80.581 349.55 85.3718 349.576 90.0181 348.64C91.0509 348.476 92.0474 348.136 92.964 347.635C93.4208 347.382 93.8187 347.036 94.132 346.619C94.4453 346.203 94.6669 345.726 94.7824 345.219C95.0911 343.467 93.7167 341.875 92.2885 340.802C90.1016 339.184 87.5802 338.07 84.9066 337.539C82.2331 337.008 79.4742 337.074 76.8295 337.733C75.0674 338.085 73.4639 338.985 72.2511 340.303C71.6643 340.974 71.31 341.814 71.2406 342.7C71.1713 343.586 71.3904 344.471 71.8659 345.224L70.3311 343.868Z" fill="#316146"/>
<path d="M118.532 333.707C116.726 328.551 113.809 323.849 109.986 319.927C106.162 316.006 101.524 312.961 96.3941 311.004C91.2641 309.046 85.7662 308.225 80.2837 308.595C74.8012 308.966 69.4661 310.521 64.6505 313.151C59.8349 315.781 55.6547 319.422 52.4015 323.822C49.1482 328.222 46.9003 333.274 45.8144 338.626C44.7285 343.977 44.8307 349.5 46.114 354.808C47.3973 360.117 49.8308 365.083 53.2447 369.361C53.5778 369.786 53.9372 370.211 54.2962 370.618C54.3168 370.648 54.3397 370.677 54.3647 370.703C55.25 371.715 56.1918 372.676 57.1856 373.582C57.4419 373.82 57.707 374.066 57.9808 374.296C58.4934 374.754 59.0235 375.188 59.5791 375.604C59.7929 375.774 60.0066 375.943 60.2291 376.105C61.0923 376.759 61.9985 377.362 62.9219 377.948C62.9377 377.948 62.9528 377.954 62.9644 377.965C63.2295 378.126 63.5033 378.288 63.7767 378.44C64.033 378.593 64.2981 378.746 64.5548 378.891C64.794 379.018 65.0248 379.145 65.2644 379.273L65.5804 379.434C66.3159 379.808 67.0594 380.164 67.8291 380.496C67.9142 380.538 68.0086 380.572 68.1025 380.615C68.1709 380.64 68.2394 380.674 68.3075 380.7C68.3246 380.708 68.3333 380.708 68.3416 380.717C68.7006 380.861 69.06 381.005 69.4273 381.141C70.6304 381.598 71.8576 381.989 73.1036 382.313C75.1093 382.848 77.1567 383.215 79.2243 383.409C80.4298 383.519 81.6353 383.579 82.8492 383.579C84.0547 383.579 85.2343 383.519 86.414 383.409C86.7988 383.375 87.1833 383.332 87.5681 383.29C89.8529 383.003 92.1073 382.514 94.3045 381.829C94.311 381.828 94.317 381.825 94.3216 381.821C95.9457 381.31 97.5313 380.686 99.0665 379.952C99.0748 379.944 99.0831 379.944 99.0919 379.935C99.4338 379.774 99.7673 379.604 100.109 379.434C100.165 379.409 100.219 379.381 100.272 379.349C100.545 379.213 100.819 379.069 101.084 378.924C101.357 378.78 101.622 378.627 101.879 378.466C102.152 378.321 102.409 378.16 102.674 377.999C102.811 377.914 102.948 377.829 103.084 377.744C103.272 377.634 103.443 377.523 103.631 377.396C103.888 377.234 104.144 377.056 104.392 376.878C104.725 376.648 105.059 376.411 105.384 376.164C105.493 376.093 105.599 376.017 105.7 375.935C112.049 371.14 116.709 364.474 119.013 356.89C121.318 349.305 121.149 341.191 118.532 333.707L118.532 333.707ZM104.452 374.296C104.23 374.474 103.999 374.644 103.768 374.797C103.537 374.967 103.315 375.128 103.084 375.281C102.888 375.417 102.691 375.553 102.486 375.68C102.467 375.696 102.447 375.711 102.426 375.723C102.281 375.825 102.127 375.918 101.981 376.011C101.879 376.071 101.776 376.139 101.674 376.198C101.374 376.385 101.075 376.563 100.768 376.733C100.605 376.835 100.434 376.929 100.272 377.022C100.212 377.056 100.152 377.09 100.092 377.124C99.827 377.268 99.5707 377.396 99.314 377.532C99.2802 377.557 99.2372 377.566 99.2117 377.591C99.1958 377.591 99.1806 377.597 99.1687 377.608C98.844 377.778 98.5105 377.939 98.1774 378.092C96.8938 378.706 95.5715 379.236 94.2189 379.68C94.0482 379.74 93.8687 379.808 93.6976 379.859C91.5174 380.546 89.2758 381.024 87.0038 381.286C86.7475 381.32 86.4825 381.345 86.2174 381.371C85.1062 381.472 83.9863 381.523 82.8492 381.523C81.8403 381.523 80.823 381.481 79.8229 381.396C77.7319 381.223 75.6606 380.865 73.6338 380.326C72.0909 379.926 70.5794 379.415 69.1114 378.797C69.0342 378.763 68.9574 378.738 68.8806 378.704C68.7951 378.67 68.7266 378.644 68.6498 378.61C68.5642 378.576 68.4958 378.542 68.4102 378.5C67.8546 378.262 67.299 377.999 66.7605 377.727C66.6833 377.685 66.6065 377.651 66.5297 377.608L66.2304 377.455C66.0509 377.362 65.8714 377.268 65.7003 377.175C65.1276 376.869 64.5632 376.538 64.0164 376.198C63.8111 376.071 63.589 375.935 63.3836 375.799L63.2296 375.697C62.7508 375.374 62.2724 375.052 61.802 374.703C61.4856 374.466 61.1608 374.236 60.8532 373.99C60.3318 373.599 59.8272 373.183 59.3401 372.75C59.0833 372.538 58.827 372.3 58.5879 372.079C57.6252 371.198 56.7146 370.262 55.8608 369.276C55.5787 368.954 55.2965 368.631 55.0314 368.291C54.9717 368.223 54.9204 368.155 54.8603 368.079C50.453 362.555 47.8019 355.851 47.2449 348.824C46.688 341.797 48.2505 334.764 51.7332 328.622C55.2159 322.481 60.4609 317.509 66.7993 314.341C73.1377 311.173 80.2822 309.953 87.3217 310.835C94.3612 311.718 100.977 314.663 106.324 319.296C111.672 323.929 115.509 330.039 117.347 336.848C119.185 343.656 118.94 350.854 116.643 357.524C114.347 364.193 110.103 370.032 104.452 374.296H104.452Z" fill="#EEEAE5"/>
<path d="M146.052 150.331C132.898 139.304 116.8 132.312 99.7184 130.208C82.6369 128.103 65.3079 130.977 49.8402 138.478C34.3724 145.98 21.4329 157.786 12.596 172.461C3.75919 187.135 -0.593946 204.045 0.0663524 221.132C0.72665 238.22 6.3719 254.748 16.3152 268.706C26.2585 282.665 40.071 293.451 56.0721 299.752C72.0732 306.053 89.5729 307.598 106.442 304.199C123.311 300.8 138.821 292.603 151.086 280.605L259.999 371.906C261.657 373.29 263.8 373.965 265.958 373.782C268.116 373.6 270.113 372.574 271.512 370.931C272.91 369.288 273.596 367.161 273.418 365.016C273.24 362.872 272.214 360.885 270.564 359.491L270.552 359.481L161.64 268.18C174.292 250.14 179.707 228.056 176.823 206.256C173.94 184.456 162.966 164.512 146.052 150.331ZM139.031 259.389C130.546 269.379 119.27 276.645 106.629 280.268C93.9878 283.891 80.5489 283.709 68.0119 279.744C55.4749 275.779 44.4028 268.21 36.1958 257.993C27.9889 247.777 23.0156 235.372 21.9049 222.348C20.7943 209.324 23.5961 196.264 29.9561 184.822C36.3161 173.38 45.9486 164.068 57.6355 158.064C69.3225 152.061 82.539 149.635 95.6137 151.093C108.688 152.552 121.034 157.83 131.09 166.259C144.574 177.563 152.985 193.725 154.475 211.19C155.964 228.655 150.409 245.993 139.031 259.389Z" fill="#EEEAE5"/>
<path opacity="0.3" d="M45.2909 267.28C32.5293 256.581 24.2843 241.505 22.1931 225.047C20.1019 208.588 24.3174 191.949 34.0027 178.436C32.7307 179.708 31.5011 181.041 30.3138 182.434C24.6802 189.067 20.4167 196.737 17.7669 205.007C15.1171 213.277 14.1328 221.985 14.8703 230.633C15.6077 239.281 18.0525 247.699 22.0649 255.409C26.0774 263.118 31.5789 269.966 38.2555 275.563C44.9321 281.16 52.653 285.396 60.9773 288.028C69.3015 290.661 78.0662 291.639 86.7709 290.906C95.4756 290.174 103.95 287.745 111.71 283.758C119.469 279.772 126.363 274.307 131.997 267.673C133.181 266.279 134.297 264.85 135.343 263.388C123.564 275.147 107.764 282.074 91.0816 282.795C74.399 283.516 58.0536 277.978 45.2909 267.28Z" fill="black"/>
<path d="M365.621 375.318C366.471 374.286 367.084 373.081 367.416 371.789C367.747 370.496 367.789 369.147 367.539 367.837C367.289 366.526 366.753 365.286 365.968 364.204C365.183 363.122 364.169 362.223 362.997 361.572L343.145 280.847L328.663 285.44L350.1 365.614C349.13 367.643 348.942 369.954 349.573 372.111C350.204 374.267 351.609 376.119 353.522 377.315C355.435 378.511 357.723 378.968 359.953 378.6C362.183 378.232 364.2 377.064 365.621 375.318H365.621Z" fill="#FFB6B6"/>
<path d="M355.359 323.682L344.776 332.752L329.969 345.433L323.43 312.192L322.746 308.735L322.207 305.992L337.21 280.028L349.717 280.741L350.572 280.792L350.589 280.98L350.786 282.721L353.35 305.634L353.41 306.187L355.359 323.682Z" fill="#EEEAE5"/>
<path d="M286.183 549.323L275.703 549.322L270.717 509.16L286.186 509.161L286.183 549.323Z" fill="#FFB6B6"/>
<path d="M288.857 559.413L255.062 559.412V558.987C255.063 555.522 256.449 552.198 258.915 549.747C261.382 547.296 264.728 545.92 268.216 545.919H268.217L288.857 545.92L288.857 559.413Z" fill="#316146"/>
<path d="M395.609 550.173L385.129 550.172L380.143 510.01L395.612 510.011L395.609 550.173Z" fill="#FFB6B6"/>
<path d="M398.282 560.262L364.487 560.261V559.836C364.488 556.37 365.873 553.047 368.34 550.596C370.807 548.146 374.153 546.769 377.641 546.769H377.642L398.282 546.769L398.282 560.262Z" fill="#316146"/>
<path d="M403.985 534.185L375.774 538.431L334.731 400.436L291.14 539.28L259.51 535.034L300.544 373.666V360.926L306.101 341.817L305.519 336.644L301.476 300.473L299.724 284.786L299.61 283.773C299.515 282.922 299.741 282.067 300.246 281.373C300.751 280.68 301.497 280.198 302.34 280.021L315.505 277.27H337.022L349.717 280.743L350.589 280.981L350.982 281.091L350.786 282.722L347.811 307.505L347.648 308.864L344.776 332.755L344.143 337.995C368.935 355.83 369.79 373.666 369.79 373.666L403.985 534.185Z" fill="#224632"/>
<path d="M323.663 266.523C335.259 266.523 344.66 257.184 344.66 245.664C344.66 234.143 335.259 224.804 323.663 224.804C312.067 224.804 302.666 234.143 302.666 245.664C302.666 257.184 312.067 266.523 323.663 266.523Z" fill="#FFB6B6"/>
<path d="M345.716 333.202L304.181 338.599L304.957 344.494L346.492 339.097L345.716 333.202Z" fill="#EEEAE5"/>
<path d="M248.468 340.373C248.865 340.628 249.241 340.914 249.593 341.228L290.676 330.824L293.478 320.978L308.989 323.237L305.732 341.147C305.469 342.594 304.741 343.917 303.656 344.918C302.572 345.919 301.19 346.543 299.718 346.697L251.75 351.715C250.968 353.351 249.703 354.711 248.125 355.615C246.546 356.519 244.727 356.924 242.911 356.776C241.095 356.628 239.367 355.935 237.957 354.787C236.547 353.64 235.523 352.094 235.019 350.354C234.516 348.614 234.557 346.763 235.139 345.047C235.72 343.331 236.813 341.832 238.273 340.748C239.733 339.665 241.491 339.048 243.312 338.981C245.133 338.914 246.931 339.4 248.468 340.373Z" fill="#FFB6B6"/>
<path d="M311.658 285.334L304.392 279.814C302.427 279.073 299.735 281.177 299.263 283.211L289.004 324.827L310.376 340.115L313.368 335.443L311.658 285.334Z" fill="#EEEAE5"/>
<g opacity="0.2">
<path opacity="0.2" d="M353.351 305.636C351.538 306.351 349.689 306.975 347.812 307.505C347.213 307.683 346.598 307.853 345.991 308.014C341.99 309.117 337.879 309.778 333.732 309.985C331.947 310.06 330.159 310.011 328.38 309.84C326.471 309.651 324.585 309.282 322.747 308.736C322.687 308.719 322.618 308.702 322.558 308.685C318.736 307.607 315.232 305.629 312.342 302.918C311.697 302.294 311.094 301.627 310.539 300.923C308.942 298.98 307.771 296.729 307.1 294.311C306.429 291.894 306.272 289.364 306.64 286.884C306.712 286.434 306.809 285.989 306.931 285.55C307.253 284.355 307.68 283.19 308.205 282.068C308.436 281.541 308.692 281.023 308.966 280.514L318.626 277.27H337.023L349.718 280.743L350.573 280.794L350.59 280.981L350.983 281.091L350.787 282.722L353.351 305.636Z" fill="black"/>
</g>
<path d="M307.574 228.393C303.648 227.915 299.338 228.253 296.278 230.743C293.217 233.234 292.229 238.411 295.127 241.086C297.693 243.455 301.704 242.898 305.14 243.572C308.1 244.231 310.752 245.858 312.672 248.191C314.591 250.525 315.667 253.431 315.727 256.444C315.676 265.085 307.328 271.629 305.829 280.141C304.806 285.95 307.272 292.063 311.535 296.167C315.799 300.27 321.66 302.488 327.565 303.089C333.47 303.689 339.442 302.772 345.18 301.265C350.943 299.751 356.617 297.604 361.453 294.141C366.288 290.678 370.252 285.796 371.805 280.078C373.357 274.36 372.242 267.805 368.242 263.415C363.66 258.388 356.039 256.659 352.076 251.137C347.634 244.948 349.277 236.133 345.682 229.423C343.282 224.943 338.736 221.887 333.892 220.277C329.047 218.667 323.873 218.35 318.767 218.194C316.083 218.112 313.317 218.084 310.816 219.057C308.316 220.029 306.118 222.244 305.988 224.909C305.858 227.573 307.574 228.393 307.574 228.393Z" fill="#316146"/>
<path d="M504.146 560.609H178.435C178.208 560.609 177.991 560.52 177.83 560.361C177.67 560.201 177.58 559.985 177.58 559.76C177.58 559.535 177.67 559.319 177.83 559.159C177.991 559 178.208 558.911 178.435 558.911H504.146C504.372 558.911 504.59 559 504.75 559.159C504.91 559.319 505 559.535 505 559.76C505 559.985 504.91 560.201 504.75 560.361C504.59 560.52 504.372 560.609 504.146 560.609Z" fill="#CACACA"/>
</g>
<defs>
<clipPath id="clip0_12_15964">
<rect width="505" height="560" fill="white" transform="translate(0 0.607422)"/>
</clipPath>
</defs>
</svg>
