<svg width="143" height="138" viewBox="0 0 143 138" fill="none" xmlns="http://www.w3.org/2000/svg">
<rect width="143" height="138" rx="69" fill="#FBF7F2"/>
<g clip-path="url(#clip0_5093_109825)">
<path d="M73.4223 78.9813L73.4218 78.9811L30.0833 64.5786C29.6775 64.4432 29.3243 64.1332 29.1131 63.7011C28.9014 63.2682 28.855 62.7573 28.9871 62.2838C28.9871 62.2838 28.9871 62.2838 28.9871 62.2837L39.9088 23.3192C40.0418 22.8465 40.338 22.4633 40.7181 22.243C41.0961 22.0239 41.5328 21.9789 41.937 22.1127C41.9371 22.1127 41.9371 22.1127 41.9371 22.1127L85.275 36.515C85.2752 36.5151 85.2754 36.5152 85.2756 36.5152C85.6812 36.6507 86.0341 36.9606 86.2453 37.3926C86.457 37.8255 86.5034 38.3365 86.3712 38.81L75.4495 77.7745C75.3421 78.1561 75.1271 78.4826 74.844 78.7107C74.5618 78.9382 74.2261 79.0568 73.8863 79.0572C73.7296 79.0571 73.5733 79.0317 73.4223 78.9813Z" fill="white" stroke="#EEEAE5"/>
<path d="M80.3407 73.3115H35.028C34.4445 73.3108 33.8851 73.0581 33.4725 72.6088C33.0599 72.1595 32.8278 71.5504 32.8271 70.915V30.175C32.8278 29.5397 33.0599 28.9305 33.4725 28.4813C33.8851 28.032 34.4445 27.7793 35.028 27.7786H80.3407C80.9242 27.7793 81.4836 28.032 81.8962 28.4813C82.3088 28.9305 82.5409 29.5397 82.5416 30.175V70.915C82.5409 71.5504 82.3088 72.1595 81.8962 72.6088C81.4836 73.0581 80.9242 73.3108 80.3407 73.3115ZM35.028 28.0605C34.5132 28.0611 34.0196 28.2841 33.6555 28.6805C33.2914 29.0769 33.0867 29.6144 33.0861 30.175V70.915C33.0867 71.4756 33.2914 72.0131 33.6555 72.4095C34.0196 72.8059 34.5132 73.0289 35.028 73.0295H80.3407C80.8555 73.0289 81.3492 72.8059 81.7132 72.4095C82.0773 72.0131 82.2821 71.4756 82.2827 70.915V30.175C82.2821 29.6144 82.0773 29.0769 81.7132 28.6805C81.3492 28.2841 80.8555 28.0611 80.3407 28.0605H35.028Z" fill="#CFD762"/>
<path fill-rule="evenodd" clip-rule="evenodd" d="M57.6846 68.5184C57.6502 68.5184 57.6173 68.5036 57.593 68.4771C57.5688 68.4507 57.5551 68.4148 57.5551 68.3774V61.8835L43.9051 54.6894C43.8898 54.6813 43.8761 54.6701 43.8648 54.6562C43.8535 54.6424 43.8448 54.6263 43.8392 54.6088C43.8336 54.5913 43.8313 54.5728 43.8323 54.5543C43.8332 54.5359 43.8376 54.5178 43.845 54.5011C43.8524 54.4845 43.8627 54.4695 43.8754 54.4572C43.8881 54.4449 43.9029 54.4355 43.919 54.4294C43.935 54.4233 43.952 54.4207 43.969 54.4218C43.986 54.4229 44.0026 54.4276 44.0179 54.4357L57.5551 61.5703V54.6475L48.4315 49.3305C48.4013 49.3128 48.3788 49.2828 48.3689 49.247C48.3591 49.2113 48.3626 49.1728 48.3788 49.1399C48.3949 49.107 48.4224 49.0824 48.4552 49.0715C48.488 49.0606 48.5234 49.0644 48.5537 49.0819L57.5551 54.3276V46.6138L52.1849 43.4084C52.1548 43.3905 52.1325 43.3602 52.1229 43.3243C52.1132 43.2884 52.1171 43.2498 52.1336 43.2171C52.1501 43.1843 52.1779 43.16 52.2109 43.1495C52.2438 43.139 52.2793 43.1432 52.3094 43.1612L57.5551 46.2923V40.8885C57.5551 40.8511 57.5688 40.8153 57.593 40.7888C57.6173 40.7624 57.6502 40.7476 57.6846 40.7476C57.7189 40.7476 57.7518 40.7624 57.7761 40.7888C57.8004 40.8153 57.814 40.8511 57.814 40.8885V46.2923L63.0598 43.1612C63.09 43.1432 63.1254 43.139 63.1583 43.1495C63.1913 43.16 63.2191 43.1843 63.2356 43.2171C63.2521 43.2498 63.256 43.2884 63.2464 43.3243C63.2367 43.3602 63.2144 43.3905 63.1843 43.4084L57.814 46.6139V54.3276L66.8155 49.0819C66.8457 49.0644 66.8811 49.0606 66.9139 49.0715C66.9467 49.0824 66.9742 49.107 66.9904 49.1399C67.0065 49.1728 67.0101 49.2113 67.0002 49.247C66.9903 49.2828 66.9678 49.3128 66.9377 49.3305L57.814 54.6475V61.5703L71.3514 54.4355C71.3667 54.4274 71.3833 54.4226 71.4003 54.4215C71.4173 54.4204 71.4344 54.4229 71.4505 54.429C71.4666 54.4351 71.4814 54.4445 71.4941 54.4568C71.5069 54.4692 71.5172 54.4841 71.5246 54.5008C71.5321 54.5175 71.5364 54.5356 71.5374 54.5541C71.5384 54.5726 71.536 54.5911 71.5304 54.6086C71.5248 54.6261 71.516 54.6423 71.5047 54.6561C71.4933 54.6699 71.4796 54.6812 71.4643 54.6892L57.814 61.8834V68.3774C57.814 68.4148 57.8004 68.4507 57.7761 68.4771C57.7518 68.5036 57.7189 68.5184 57.6846 68.5184Z" fill="#CFD762"/>
<path d="M59.8854 73.241H55.4836C55.2605 73.2407 55.0466 73.1441 54.8888 72.9723C54.7311 72.8006 54.6423 72.5677 54.6421 72.3247V69.2234C54.6423 68.9805 54.7311 68.7476 54.8888 68.5758C55.0466 68.404 55.2605 68.3074 55.4836 68.3071H59.8854C60.1085 68.3074 60.3224 68.404 60.4802 68.5758C60.6379 68.7476 60.7267 68.9805 60.7269 69.2234V72.3247C60.7267 72.5677 60.6379 72.8006 60.4802 72.9723C60.3224 73.1441 60.1085 73.2407 59.8854 73.241Z" fill="#CFD762"/>
<path d="M33.0199 38.2415C34.0662 38.2415 34.9144 37.318 34.9144 36.1787C34.9144 35.0395 34.0662 34.116 33.0199 34.116C31.9737 34.116 31.1255 35.0395 31.1255 36.1787C31.1255 37.318 31.9737 38.2415 33.0199 38.2415Z" fill="#E99678"/>
<path d="M84.3581 28.615C84.3581 28.6941 84.356 28.772 84.3497 28.8488C84.3179 29.3247 84.1889 29.7868 83.9722 30.2016C83.7556 30.6164 83.4567 30.9733 83.0974 31.2464C82.738 31.5195 82.3272 31.7019 81.8949 31.7803C81.4627 31.8586 81.0198 31.831 80.5985 31.6995C80.1773 31.5679 79.7883 31.3357 79.4599 31.0198C79.1315 30.7038 78.872 30.3121 78.7002 29.8731C78.5284 29.4341 78.4487 28.959 78.4669 28.4822C78.4851 28.0055 78.6007 27.5391 78.8054 27.1172C78.8687 26.985 78.9412 26.8582 79.0222 26.7379C79.3746 26.2057 79.8684 25.8039 80.4371 25.5869C81.0057 25.3698 81.6218 25.3478 82.2023 25.524C82.7828 25.7001 83.2997 26.0658 83.6833 26.5718C84.0669 27.0778 84.2988 27.6997 84.3476 28.3537C84.355 28.4397 84.3581 28.5267 84.3581 28.615Z" fill="#CFD762"/>
<path d="M73.4467 75.1763C74.4929 75.1763 75.3411 74.2528 75.3411 73.1136C75.3411 71.9743 74.4929 71.0508 73.4467 71.0508C72.4004 71.0508 71.5522 71.9743 71.5522 73.1136C71.5522 74.2528 72.4004 75.1763 73.4467 75.1763Z" fill="#FFB6B6"/>
<path d="M58.9467 29.9251C59.9929 29.9251 60.8411 29.0016 60.8411 27.8623C60.8411 26.7231 59.9929 25.7996 58.9467 25.7996C57.9004 25.7996 57.0522 26.7231 57.0522 27.8623C57.0522 29.0016 57.9004 29.9251 58.9467 29.9251Z" fill="#E6E6E6"/>
<path d="M118.453 131.007C118.416 131.007 118.381 130.991 118.355 130.962C118.329 130.934 118.314 130.895 118.314 130.855V128.126C118.314 128.086 118.329 128.048 118.355 128.019C118.381 127.991 118.416 127.975 118.453 127.975C118.49 127.975 118.526 127.991 118.552 128.019C118.578 128.048 118.592 128.086 118.592 128.126V130.855C118.592 130.895 118.578 130.934 118.552 130.962C118.526 130.991 118.49 131.007 118.453 131.007Z" fill="#E6E6E6"/>
<path d="M118.453 127.369C118.837 127.369 119.149 127.03 119.149 126.611C119.149 126.193 118.837 125.854 118.453 125.854C118.069 125.854 117.757 126.193 117.757 126.611C117.757 127.03 118.069 127.369 118.453 127.369Z" fill="#E6E6E6"/>
<path d="M118.314 129.794C118.314 129.794 119.184 128.089 120.402 128.657L118.314 129.794Z" fill="#E6E6E6"/>
<path d="M80.8619 131.007C80.825 131.007 80.7895 130.991 80.7634 130.962C80.7373 130.934 80.7227 130.895 80.7227 130.855V128.126C80.7227 128.086 80.7373 128.048 80.7634 128.019C80.7895 127.991 80.825 127.975 80.8619 127.975C80.8988 127.975 80.9342 127.991 80.9603 128.019C80.9864 128.048 81.0011 128.086 81.0011 128.126V130.855C81.0011 130.895 80.9864 130.934 80.9603 130.962C80.9342 130.991 80.8988 131.007 80.8619 131.007Z" fill="#E6E6E6"/>
<path d="M80.8622 127.369C81.2466 127.369 81.5583 127.03 81.5583 126.611C81.5583 126.193 81.2466 125.854 80.8622 125.854C80.4777 125.854 80.166 126.193 80.166 126.611C80.166 127.03 80.4777 127.369 80.8622 127.369Z" fill="#E6E6E6"/>
<path d="M80.7227 129.794C80.7227 129.794 81.5928 128.089 82.811 128.657L80.7227 129.794Z" fill="#E6E6E6"/>
<path d="M87.6841 131.007C87.6472 131.007 87.6118 130.991 87.5857 130.962C87.5596 130.934 87.5449 130.895 87.5449 130.855V128.126C87.5449 128.086 87.5596 128.048 87.5857 128.019C87.6118 127.991 87.6472 127.975 87.6841 127.975C87.7211 127.975 87.7565 127.991 87.7826 128.019C87.8087 128.048 87.8233 128.086 87.8233 128.126V130.855C87.8233 130.895 87.8087 130.934 87.7826 130.962C87.7565 130.991 87.7211 131.007 87.6841 131.007Z" fill="#E6E6E6"/>
<path d="M87.6839 127.369C88.0684 127.369 88.3801 127.03 88.3801 126.611C88.3801 126.193 88.0684 125.854 87.6839 125.854C87.2995 125.854 86.9878 126.193 86.9878 126.611C86.9878 127.03 87.2995 127.369 87.6839 127.369Z" fill="#E6E6E6"/>
<path d="M87.5449 129.794C87.5449 129.794 88.4151 128.089 89.6333 128.657L87.5449 129.794Z" fill="#E6E6E6"/>
<path d="M127.861 131.158H74.8155C74.7786 131.158 74.7432 131.142 74.717 131.114C74.6909 131.086 74.6763 131.047 74.6763 131.007C74.6763 130.967 74.6909 130.928 74.717 130.9C74.7432 130.871 74.7786 130.855 74.8155 130.855H127.861C127.898 130.855 127.933 130.871 127.959 130.9C127.985 130.928 128 130.967 128 131.007C128 131.047 127.985 131.086 127.959 131.114C127.933 131.142 127.898 131.158 127.861 131.158Z" fill="#CCCCCC"/>
<path d="M119.486 131.273C119.842 127.095 120.823 123.009 122.393 119.178C122.83 118.112 123.311 117.069 123.837 116.05C123.972 115.788 123.602 115.552 123.467 115.814C121.557 119.526 120.218 123.556 119.505 127.741C119.307 128.91 119.158 130.087 119.058 131.273C119.033 131.572 119.461 131.57 119.486 131.273H119.486Z" fill="#E6E6E6"/>
<path d="M124.873 116.798C126.369 116.798 127.582 115.475 127.582 113.842C127.582 112.209 126.369 110.886 124.873 110.886C123.377 110.886 122.164 112.209 122.164 113.842C122.164 115.475 123.377 116.798 124.873 116.798Z" fill="#E6E6E6"/>
<path d="M119.763 131.351C119.994 128.641 120.631 125.99 121.649 123.505C121.932 122.813 122.245 122.137 122.586 121.476C122.603 121.441 122.607 121.401 122.597 121.363C122.587 121.325 122.565 121.293 122.533 121.273C122.502 121.253 122.465 121.247 122.43 121.257C122.396 121.266 122.365 121.29 122.346 121.323C121.106 123.731 120.238 126.345 119.776 129.06C119.647 129.819 119.55 130.582 119.486 131.351C119.469 131.545 119.747 131.544 119.763 131.351Z" fill="#E6E6E6"/>
<path d="M123.258 121.961C124.228 121.961 125.015 121.102 125.015 120.043C125.015 118.984 124.228 118.125 123.258 118.125C122.287 118.125 121.5 118.984 121.5 120.043C121.5 121.102 122.287 121.961 123.258 121.961Z" fill="#E6E6E6"/>
<path d="M119.413 131.171C118.067 128.879 117.075 126.361 116.477 123.719C116.311 122.983 116.176 122.24 116.072 121.49C116.066 121.451 116.046 121.417 116.017 121.393C115.988 121.37 115.952 121.36 115.916 121.365C115.881 121.37 115.848 121.39 115.826 121.421C115.804 121.452 115.793 121.491 115.797 121.53C116.177 124.261 116.965 126.905 118.131 129.356C118.457 130.041 118.811 130.708 119.194 131.357C119.29 131.521 119.508 131.334 119.413 131.171V131.171Z" fill="#E6E6E6"/>
<path d="M115.794 121.827C116.765 121.827 117.552 120.968 117.552 119.909C117.552 118.85 116.765 117.991 115.794 117.991C114.824 117.991 114.037 118.85 114.037 119.909C114.037 120.968 114.824 121.827 115.794 121.827Z" fill="#E6E6E6"/>
<path d="M105.352 103.515C105.468 103.324 105.543 103.108 105.574 102.881C105.604 102.655 105.589 102.424 105.529 102.205C105.469 101.986 105.366 101.784 105.226 101.613C105.087 101.442 104.915 101.307 104.722 101.216L105.092 95.6707L102.781 97.0822L102.785 102.132C102.667 102.495 102.675 102.892 102.808 103.249C102.941 103.606 103.189 103.897 103.506 104.068C103.822 104.238 104.185 104.276 104.525 104.174C104.866 104.072 105.16 103.838 105.352 103.515Z" fill="#FFB6B6"/>
<path d="M104.777 81.9581L105.409 99.6052L102.842 99.4496L102.272 80.934L102.813 80.6561C103.019 80.5503 103.246 80.5019 103.473 80.5151C103.7 80.5282 103.921 80.6026 104.116 80.7316C104.31 80.8605 104.472 81.04 104.588 81.254C104.703 81.4681 104.768 81.71 104.777 81.9581Z" fill="#316146"/>
<path d="M96.8395 129.61H95.0915L94.2598 122.252H96.8398L96.8395 129.61Z" fill="#FFB6B6"/>
<path d="M93.8429 129.064H97.2143V131.38H91.7202C91.7202 131.076 91.7751 130.775 91.8818 130.494C91.9885 130.213 92.1448 129.957 92.3419 129.742C92.5391 129.527 92.7731 129.357 93.0306 129.24C93.2881 129.124 93.5642 129.064 93.8429 129.064Z" fill="#316146"/>
<path d="M111.384 127.331L109.798 128.132L106.21 121.836L108.551 120.654L111.384 127.331Z" fill="#FFB6B6"/>
<path d="M108.455 128.21L111.515 126.664L112.406 128.766L107.421 131.285C107.303 131.009 107.237 130.71 107.226 130.406C107.215 130.102 107.258 129.799 107.354 129.513C107.45 129.228 107.597 128.966 107.786 128.742C107.975 128.518 108.202 128.337 108.455 128.21Z" fill="#316146"/>
<path d="M92.6885 105.597L94.4913 128.047L96.9154 127.736L98.7069 107.229L108.608 126.802L111.174 126.024C111.174 126.024 102.913 99.06 102.272 96.8039C101.568 94.3307 95.9977 93.3809 95.9977 93.3809L95.7838 93.1475C93.3902 96.6635 92.4314 101.226 92.6885 105.597Z" fill="#EEEAE5"/>
<path d="M102.293 78.7075C104.227 78.7075 105.795 76.9966 105.795 74.886C105.795 72.7754 104.227 71.0645 102.293 71.0645C100.359 71.0645 98.791 72.7754 98.791 74.886C98.791 76.9966 100.359 78.7075 102.293 78.7075Z" fill="#FFB6B6"/>
<path d="M104.758 80.747L102.058 96.104C102.058 96.104 98.3595 95.298 97.0419 94.3272C96.5201 93.9413 96.0466 93.543 95.6474 93.182C95.1983 92.7795 94.7681 92.3527 94.3584 91.903C94.3584 91.903 95.3052 86.8291 95.6431 85.4708C96.0355 83.8974 97.3818 82.0647 98.4303 80.8158C98.8104 80.3634 99.2962 80.0323 99.8356 79.8581C100.375 79.6839 100.948 79.6731 101.492 79.8268L104.758 80.747Z" fill="#316146"/>
<path opacity="0.2" d="M97.042 94.3284C96.5201 93.9425 96.0467 93.5442 95.6475 93.1832C95.7914 90.8586 98.9299 85.9917 100.202 85.9917C100.202 85.9917 100.503 93.4929 97.042 94.3284Z" fill="black"/>
<path d="M90.5819 100.433C90.779 100.355 90.958 100.231 91.1063 100.069C91.2547 99.9073 91.3687 99.7121 91.4405 99.4972C91.5122 99.2823 91.5399 99.0528 91.5216 98.8249C91.5032 98.5971 91.4393 98.3764 91.3344 98.1784L94.6651 93.9706L92.0394 93.5977L89.279 97.6506C88.9859 97.865 88.775 98.1894 88.6864 98.5621C88.5977 98.9349 88.6375 99.3302 88.7981 99.6731C88.9587 100.016 89.2289 100.283 89.5577 100.423C89.8865 100.563 90.2509 100.566 90.5819 100.433Z" fill="#FFB6B6"/>
<path d="M99.894 80.0052C99.7489 80.0085 99.6045 80.0265 99.4625 80.0591C99.175 80.1308 98.9084 80.2792 98.6865 80.491C98.4645 80.7028 98.2942 80.9714 98.1909 81.2728L94.0731 90.6595L89.6528 95.7941L91.863 97.739L98.8499 90.8929L101.641 82.6026C101.73 82.3033 101.753 81.985 101.707 81.6742C101.661 81.3635 101.548 81.069 101.378 80.8153C101.207 80.5615 100.983 80.3557 100.725 80.2149C100.467 80.074 100.182 80.0022 99.894 80.0052Z" fill="#316146"/>
<path d="M102.5 78.673C102.999 77.8589 103.392 76.73 102.844 75.9554C102.302 75.1908 101.233 75.3034 100.404 74.9651C99.2482 74.4938 98.578 73.0125 98.787 71.6858C98.996 70.3592 99.972 69.2595 101.135 68.8095C102.297 68.3595 103.608 68.5058 104.747 69.024C106.148 69.6619 107.351 70.8959 107.855 72.4589C108.359 74.022 108.09 75.8988 107.044 77.1002C105.922 78.3883 104.163 78.7316 102.535 78.7107" fill="black"/>
<path d="M108 74.1682C108.143 75.0381 109.017 75.5322 109.821 75.6408C110.625 75.7494 111.456 75.6102 112.239 75.8383C113.618 76.2404 114.528 77.688 115.029 79.147C115.529 80.6061 115.752 82.1808 116.402 83.5677C117.053 84.9545 118.314 86.1772 119.737 86.0475C119.459 86.8133 118.97 87.4665 118.339 87.9182C117.707 88.3698 116.963 88.5979 116.208 88.5712C115.454 88.5445 114.725 88.2643 114.121 87.769C113.518 87.2736 113.069 86.5872 112.837 85.8033C112.314 84.0425 112.914 81.9426 112 80.3834C111.494 79.5207 110.621 79.0132 109.778 78.561C108.936 78.1088 108.052 77.6447 107.488 76.8265C106.923 76.0083 106.81 74.7162 107.506 74.0288" fill="black"/>
</g>
<defs>
<clipPath id="clip0_5093_109825">
<rect width="104" height="115.159" fill="white" transform="translate(24 16)"/>
</clipPath>
</defs>
</svg>
