<svg width="112" height="98" viewBox="0 0 112 98" fill="none" xmlns="http://www.w3.org/2000/svg">
<path d="M107.497 37.2293C107.459 37.2294 107.421 37.2175 107.389 37.1952L54.7704 0.55024C54.6103 0.439241 54.42 0.37992 54.2252 0.380252C54.0303 0.380584 53.8402 0.440551 53.6805 0.552096L1.44108 37.1949C1.39975 37.2236 1.34871 37.2348 1.29913 37.226C1.24956 37.2172 1.20549 37.1892 1.17658 37.1479C1.14767 37.1067 1.13628 37.0557 1.1449 37.0061C1.15351 36.9565 1.18141 36.9123 1.22253 36.8833L53.462 0.24052C53.6857 0.0843832 53.9518 0.000450214 54.2246 1.80609e-06C54.4973 -0.000446601 54.7637 0.0826113 54.9879 0.238012L107.606 36.8829C107.64 36.9061 107.665 36.9392 107.678 36.9776C107.691 37.0159 107.691 37.0574 107.679 37.0961C107.667 37.1347 107.643 37.1685 107.61 37.1925C107.577 37.2164 107.538 37.2294 107.497 37.2293H107.497Z" fill="black"/>
<path d="M4.42627 38.528L54.2768 1.58252L104.506 41.1568L56.8454 69.4104L30.9699 63.5126L4.42627 38.528Z" fill="#E6E6E6"/>
<path d="M107.403 36.8486H107.365L85.5227 46.1752L55.6384 58.9361C55.5216 58.9852 55.3963 59.0108 55.2696 59.0115C55.1429 59.0121 55.0174 58.9878 54.9001 58.9399L24.0683 46.1486L1.68974 36.8638L1.65556 36.8486H1.61748C1.26438 36.849 0.925847 36.9895 0.676165 37.2391C0.426483 37.4888 0.286036 37.8274 0.285645 38.1805V96.0199C0.286036 96.373 0.426483 96.7115 0.676165 96.9612C0.925847 97.2109 1.26438 97.3513 1.61748 97.3517H107.403C107.756 97.3513 108.094 97.2109 108.344 96.9612C108.594 96.7115 108.734 96.373 108.735 96.0199V38.1805C108.734 37.8274 108.594 37.4888 108.344 37.2391C108.094 36.9895 107.756 36.849 107.403 36.8486V36.8486Z" fill="white"/>
<path d="M107.117 36.8486H107.079L85.237 46.1752L55.3527 58.9361C55.236 58.9852 55.1106 59.0108 54.984 59.0115C54.8573 59.0121 54.7317 58.9878 54.6145 58.9399L23.7827 46.1486L1.40412 36.8638L1.36992 36.8486H1.33182C0.978717 36.849 0.640202 36.9895 0.390521 37.2391C0.140839 37.4888 0.000391401 37.8274 0 38.1805V96.0199C0.000391401 96.373 0.140839 96.7115 0.390521 96.9612C0.640202 97.2109 0.978717 97.3513 1.33182 97.3517H107.117C107.47 97.3513 107.809 97.2109 108.058 96.9612C108.308 96.7115 108.449 96.373 108.449 96.0199V38.1805C108.449 37.8274 108.308 37.4888 108.058 37.2391C107.809 36.9895 107.47 36.849 107.117 36.8486V36.8486ZM108.068 96.0199C108.068 96.2722 107.968 96.5141 107.79 96.6925C107.611 96.8708 107.369 96.9711 107.117 96.9712H1.33182C1.07955 96.9711 0.837636 96.8708 0.659253 96.6925C0.48087 96.5141 0.380627 96.2722 0.380525 96.0199V38.1805C0.380871 37.9345 0.476279 37.6981 0.646833 37.5208C0.817388 37.3435 1.04987 37.239 1.29568 37.2292L23.7827 46.5596L54.4681 59.2919C54.8002 59.427 55.1724 59.4249 55.5031 59.2861L85.237 46.5881L107.155 37.2292C107.401 37.2398 107.632 37.3445 107.803 37.5217C107.973 37.6989 108.068 37.9349 108.068 38.1805V96.0199Z" fill="black"/>
</svg>
