<svg width="195" height="179" viewBox="0 0 195 179" fill="none" xmlns="http://www.w3.org/2000/svg">
<path d="M186.5 89C186.5 138.153 146.653 178 97.5 178C48.3467 178 8.5 138.153 8.5 89C8.5 39.8467 48.3467 0 97.5 0C146.653 0 186.5 39.8467 186.5 89Z" fill="#FBF7F2"/>
<path d="M133.225 48.4778C132.919 47.7542 132.407 47.1359 131.752 46.6993C131.097 46.2627 130.328 46.0271 129.54 46.0215H55.9871C54.9299 46.022 53.916 46.4407 53.1684 47.1856C52.4208 47.9304 52.0006 48.9405 52 49.9938V142.7C52.0006 143.753 52.4208 144.763 53.1684 145.508C53.916 146.253 54.9299 146.672 55.9871 146.672H129.542C130.599 146.671 131.613 146.252 132.36 145.507C133.108 144.763 133.528 143.753 133.53 142.7V49.9938C133.531 49.4735 133.429 48.958 133.227 48.4778H133.225ZM132.641 142.7C132.64 143.519 132.313 144.305 131.732 144.884C131.15 145.463 130.362 145.789 129.54 145.79H55.9871C55.1646 145.79 54.3759 145.465 53.7942 144.885C53.2126 144.306 52.8857 143.52 52.8854 142.701V49.9944C52.8865 49.1751 53.2137 48.3898 53.7951 47.8105C54.3766 47.2312 55.1649 46.9053 55.9871 46.9042H129.542C130.162 46.9065 130.767 47.0927 131.279 47.4389C131.792 47.7851 132.19 48.2757 132.421 48.8481C132.466 48.9621 132.505 49.0785 132.538 49.1967C132.608 49.4568 132.644 49.725 132.644 49.9944L132.641 142.7Z" fill="#1D1D1B"/>
<path d="M117.875 67.9088H95.7201C95.4871 67.9091 95.2563 67.8637 95.0409 67.7751C94.8256 67.6866 94.6298 67.5565 94.4649 67.3925C94.3001 67.2285 94.1693 67.0337 94.08 66.8193C93.9908 66.6048 93.9448 66.375 93.9448 66.1429C93.9448 65.9107 93.9908 65.6809 94.08 65.4664C94.1693 65.252 94.3001 65.0572 94.4649 64.8932C94.6298 64.7292 94.8256 64.5992 95.0409 64.5106C95.2563 64.422 95.4871 64.3766 95.7201 64.377H117.875C118.108 64.3766 118.339 64.422 118.554 64.5106C118.77 64.5992 118.965 64.7292 119.13 64.8932C119.295 65.0572 119.426 65.252 119.515 65.4664C119.604 65.6809 119.65 65.9107 119.65 66.1429C119.65 66.375 119.604 66.6048 119.515 66.8193C119.426 67.0337 119.295 67.2285 119.13 67.3925C118.965 67.5565 118.77 67.6866 118.554 67.7751C118.339 67.8637 118.108 67.9091 117.875 67.9088Z" fill="#1D1D1B"/>
<path d="M117.875 77.1793H95.7201C95.4871 77.1796 95.2563 77.1342 95.0409 77.0456C94.8256 76.9571 94.6298 76.827 94.4649 76.663C94.3001 76.499 94.1693 76.3042 94.08 76.0898C93.9908 75.8754 93.9448 75.6455 93.9448 75.4134C93.9448 75.1812 93.9908 74.9514 94.08 74.737C94.1693 74.5225 94.3001 74.3277 94.4649 74.1637C94.6298 73.9997 94.8256 73.8697 95.0409 73.7811C95.2563 73.6925 95.4871 73.6471 95.7201 73.6475H117.875C118.108 73.6471 118.339 73.6925 118.554 73.7811C118.77 73.8697 118.965 73.9997 119.13 74.1637C119.295 74.3277 119.426 74.5225 119.515 74.737C119.604 74.9514 119.65 75.1812 119.65 75.4134C119.65 75.6455 119.604 75.8754 119.515 76.0898C119.426 76.3042 119.295 76.499 119.13 76.663C118.965 76.827 118.77 76.9571 118.554 77.0456C118.339 77.1342 118.108 77.1796 117.875 77.1793Z" fill="#1D1D1B"/>
<path d="M84.3524 82.4583H68.1616C67.6329 82.4577 67.126 82.2483 66.7521 81.8758C66.3783 81.5033 66.168 80.9983 66.1675 80.4716V61.4359C66.168 60.9092 66.3783 60.4042 66.7521 60.0317C67.126 59.6593 67.6329 59.4498 68.1616 59.4492H84.3524C84.8811 59.4498 85.388 59.6593 85.7618 60.0317C86.1357 60.4042 86.346 60.9092 86.3465 61.4359V80.4716C86.346 80.9983 86.1357 81.5033 85.7618 81.8758C85.388 82.2483 84.8811 82.4578 84.3524 82.4583Z" fill="#316146"/>
<path d="M117.721 96.1617H67.6509C67.1808 96.1617 66.73 95.9757 66.3976 95.6445C66.0652 95.3133 65.8784 94.8641 65.8784 94.3958C65.8784 93.9274 66.0652 93.4783 66.3976 93.1471C66.73 92.8159 67.1808 92.6299 67.6509 92.6299H117.721C118.191 92.6299 118.642 92.8159 118.975 93.1471C119.307 93.4783 119.494 93.9274 119.494 94.3958C119.494 94.8641 119.307 95.3133 118.975 95.6445C118.642 95.9757 118.191 96.1617 117.721 96.1617Z" fill="#999999"/>
<path d="M117.721 105.433H67.6511C67.1815 105.432 66.7313 105.246 66.3995 104.915C66.0677 104.584 65.8813 104.135 65.8813 103.667C65.8813 103.199 66.0677 102.751 66.3995 102.42C66.7313 102.088 67.1815 101.902 67.6511 101.901H117.721C117.954 101.901 118.185 101.946 118.401 102.035C118.616 102.124 118.812 102.254 118.977 102.418C119.141 102.582 119.272 102.776 119.362 102.991C119.451 103.205 119.497 103.435 119.497 103.667C119.497 103.899 119.451 104.129 119.362 104.344C119.272 104.558 119.141 104.753 118.977 104.917C118.812 105.081 118.616 105.211 118.401 105.3C118.185 105.388 117.954 105.434 117.721 105.433Z" fill="#999999"/>
<path d="M117.721 114.704H67.6511C67.1815 114.703 66.7313 114.517 66.3995 114.186C66.0677 113.854 65.8813 113.406 65.8813 112.938C65.8813 112.47 66.0677 112.021 66.3995 111.69C66.7313 111.359 67.1815 111.173 67.6511 111.172H117.721C117.954 111.172 118.185 111.217 118.401 111.306C118.616 111.394 118.812 111.524 118.977 111.688C119.141 111.852 119.272 112.047 119.362 112.261C119.451 112.476 119.497 112.706 119.497 112.938C119.497 113.17 119.451 113.4 119.362 113.614C119.272 113.829 119.141 114.023 118.977 114.187C118.812 114.351 118.616 114.481 118.401 114.57C118.185 114.659 117.954 114.704 117.721 114.704Z" fill="#999999"/>
<path d="M117.721 123.974H67.6511C67.1815 123.973 66.7313 123.787 66.3995 123.456C66.0677 123.125 65.8813 122.676 65.8813 122.208C65.8813 121.74 66.0677 121.292 66.3995 120.961C66.7313 120.629 67.1815 120.443 67.6511 120.442H117.721C117.954 120.442 118.185 120.487 118.401 120.576C118.616 120.665 118.812 120.795 118.977 120.959C119.141 121.123 119.272 121.317 119.362 121.532C119.451 121.746 119.497 121.976 119.497 122.208C119.497 122.44 119.451 122.67 119.362 122.885C119.272 123.099 119.141 123.294 118.977 123.458C118.812 123.622 118.616 123.752 118.401 123.841C118.185 123.929 117.954 123.975 117.721 123.974Z" fill="#999999"/>
<path d="M117.721 133.245H67.6511C67.1815 133.244 66.7313 133.058 66.3995 132.727C66.0677 132.395 65.8813 131.947 65.8813 131.479C65.8813 131.011 66.0677 130.562 66.3995 130.231C66.7313 129.9 67.1815 129.714 67.6511 129.713H117.721C117.954 129.713 118.185 129.758 118.401 129.847C118.616 129.935 118.812 130.065 118.977 130.229C119.141 130.393 119.272 130.588 119.362 130.802C119.451 131.017 119.497 131.247 119.497 131.479C119.497 131.711 119.451 131.941 119.362 132.155C119.272 132.37 119.141 132.564 118.977 132.728C118.812 132.892 118.616 133.022 118.401 133.111C118.185 133.2 117.954 133.245 117.721 133.245Z" fill="#999999"/>
<path d="M128.374 79.5606C142.388 79.5606 153.749 68.2423 153.749 54.2803C153.749 40.3184 142.388 29 128.374 29C114.36 29 103 40.3184 103 54.2803C103 68.2423 114.36 79.5606 128.374 79.5606Z" fill="#316146"/>
<path d="M127.883 71.6817C129.532 71.6817 130.869 70.3499 130.869 68.707C130.869 67.0642 129.532 65.7324 127.883 65.7324C126.234 65.7324 124.897 67.0642 124.897 68.707C124.897 70.3499 126.234 71.6817 127.883 71.6817Z" fill="white"/>
<path d="M127.564 37.6682C125.313 37.6904 123.16 38.5869 121.562 40.1668C119.965 41.7467 119.049 43.8853 119.011 46.1275C119.01 46.1704 119.01 46.4722 119.01 46.8669C119.01 47.4457 119.241 48.0007 119.651 48.4099C120.062 48.8191 120.619 49.0491 121.2 49.0491C121.781 49.049 122.339 48.8188 122.75 48.4092C123.161 47.9996 123.391 47.4441 123.391 46.865V46.8636C123.391 46.5951 123.391 46.4093 123.391 46.3978C123.391 45.6794 123.578 44.9733 123.935 44.349C124.292 43.7247 124.806 43.2037 125.426 42.8372C126.046 42.4708 126.752 42.2715 127.473 42.259C128.194 42.2465 128.905 42.4212 129.538 42.7659C130.171 43.1106 130.702 43.6135 131.081 44.225C131.459 44.8366 131.671 45.5357 131.696 46.2537C131.721 46.9717 131.558 47.6839 131.223 48.32C130.888 48.9562 130.393 49.4945 129.785 49.882L129.786 49.8829C129.786 49.8829 126.669 51.8824 125.719 54.6252L125.719 54.6254C125.552 55.1873 125.468 55.7703 125.468 56.3564C125.468 56.5973 125.482 58.7051 125.51 60.4159C125.519 61.0062 125.761 61.5691 126.184 61.9831C126.606 62.3971 127.175 62.6291 127.768 62.6289C128.064 62.6289 128.358 62.5707 128.632 62.4576C128.906 62.3445 129.155 62.1788 129.365 61.9698C129.574 61.7609 129.741 61.5128 129.854 61.2398C129.968 60.9668 130.026 60.6742 130.026 60.3788L130.026 60.365C130.016 58.7982 130.011 56.9738 130.011 56.8414C130.011 55.1572 131.642 53.4791 132.982 52.3848C134.532 51.1336 135.622 49.4051 136.08 47.4702C136.179 47.0714 136.233 46.663 136.242 46.2523C136.242 45.125 136.019 44.0088 135.586 42.9672C135.153 41.9257 134.519 40.9794 133.719 40.1823C132.919 39.3851 131.969 38.7528 130.923 38.3214C129.878 37.89 128.758 37.668 127.626 37.668C127.605 37.668 127.585 37.668 127.564 37.6682Z" fill="white"/>
</svg>
