<svg width="24" height="21" viewBox="0 0 24 21" fill="none" xmlns="http://www.w3.org/2000/svg">
<path fill-rule="evenodd" clip-rule="evenodd" d="M10.5282 1.2833C10.9775 1.03035 11.4844 0.897461 12 0.897461C12.5156 0.897461 13.0225 1.03035 13.4718 1.2833C13.9211 1.53626 14.2976 1.90074 14.565 2.34158L14.5679 2.34633L23.0379 16.4863L23.046 16.5001C23.3079 16.9538 23.4465 17.4681 23.448 17.9919C23.4495 18.5158 23.3137 19.0308 23.0543 19.4859C22.7949 19.941 22.4209 20.3203 21.9694 20.5859C21.5179 20.8516 21.0048 20.9944 20.481 21.0001L20.47 21.0003L3.519 21.0002C2.99519 20.9944 2.48203 20.8516 2.03056 20.5859C1.57909 20.3203 1.20504 19.941 0.94564 19.4859C0.686236 19.0308 0.550517 18.5158 0.551983 17.9919C0.55345 17.4681 0.692052 16.9538 0.954 16.5001L0.962123 16.4863L9.43212 2.34633L10.29 2.86019L9.43499 2.34158C9.7024 1.90074 10.0789 1.53626 10.5282 1.2833ZM11.1462 3.37684L2.68268 17.506C2.5975 17.6558 2.55246 17.8251 2.55198 17.9975C2.55149 18.1721 2.59673 18.3438 2.68319 18.4955C2.76966 18.6472 2.89434 18.7736 3.04483 18.8622C3.19401 18.95 3.36338 18.9975 3.53639 19.0002H20.4636C20.6366 18.9975 20.806 18.95 20.9551 18.8622C21.1056 18.7736 21.2303 18.6472 21.3168 18.4955C21.4033 18.3438 21.4485 18.1721 21.448 17.9975C21.4475 17.8251 21.4025 17.6559 21.3173 17.5061L12.855 3.37883L12.8538 3.37684C12.7647 3.23079 12.6397 3.11001 12.4906 3.02607C12.3408 2.94176 12.1719 2.89746 12 2.89746C11.8281 2.89746 11.6592 2.94176 11.5094 3.02607C11.3603 3.11001 11.2353 3.23079 11.1462 3.37684Z" fill="#BF3300"/>
<path fill-rule="evenodd" clip-rule="evenodd" d="M12 7C12.5523 7 13 7.44772 13 8V12C13 12.5523 12.5523 13 12 13C11.4477 13 11 12.5523 11 12V8C11 7.44772 11.4477 7 12 7Z" fill="#BF3300"/>
<path fill-rule="evenodd" clip-rule="evenodd" d="M11 16C11 15.4477 11.4477 15 12 15H12.01C12.5623 15 13.01 15.4477 13.01 16C13.01 16.5523 12.5623 17 12.01 17H12C11.4477 17 11 16.5523 11 16Z" fill="#BF3300"/>
</svg>
