<svg width="24" height="24" viewBox="0 0 24 24" fill="none" xmlns="http://www.w3.org/2000/svg">
<path fill-rule="evenodd" clip-rule="evenodd" d="M8.4 4.749C8.51046 4.83184 8.53284 4.98854 8.45 5.099L5.75 8.699C5.70652 8.75698 5.64001 8.79323 5.56772 8.79837C5.49543 8.80351 5.42447 8.77702 5.37322 8.72578L3.57322 6.92578C3.47559 6.82815 3.47559 6.66985 3.57322 6.57222C3.67085 6.47459 3.82915 6.47459 3.92678 6.57222L5.52295 8.1684L8.05 4.799C8.13284 4.68854 8.28954 4.66616 8.4 4.749Z" fill="#316146"/>
<path fill-rule="evenodd" clip-rule="evenodd" d="M8.4 13.449C8.51046 13.5318 8.53284 13.6885 8.45 13.799L5.75 17.399C5.70652 17.457 5.64001 17.4932 5.56772 17.4984C5.49543 17.5035 5.42447 17.477 5.37322 17.4258L3.57322 15.6258C3.47559 15.5281 3.47559 15.3699 3.57322 15.2722C3.67085 15.1746 3.82915 15.1746 3.92678 15.2722L5.52295 16.8684L8.05 13.499C8.13284 13.3885 8.28954 13.3662 8.4 13.449Z" fill="#316146"/>
<path fill-rule="evenodd" clip-rule="evenodd" d="M9.5 8.249C9.5 8.11093 9.61193 7.999 9.75 7.999H12.75C12.8881 7.999 13 8.11093 13 8.249C13 8.38707 12.8881 8.499 12.75 8.499H9.75C9.61193 8.499 9.5 8.38707 9.5 8.249Z" fill="#316146"/>
<path fill-rule="evenodd" clip-rule="evenodd" d="M9.5 17.249C9.5 17.1109 9.61193 16.999 9.75 16.999H12.75C12.8881 16.999 13 17.1109 13 17.249C13 17.3871 12.8881 17.499 12.75 17.499H9.75C9.61193 17.499 9.5 17.3871 9.5 17.249Z" fill="#316146"/>
<path fill-rule="evenodd" clip-rule="evenodd" d="M0.5 2.249C0.5 1.2825 1.2835 0.499001 2.25 0.499001H12.75C12.8881 0.499001 13 0.610929 13 0.749001C13 0.887072 12.8881 0.999001 12.75 0.999001H2.25C1.55964 0.999001 1 1.55864 1 2.249V21.749C1 22.4394 1.55964 22.999 2.25 22.999H14.25C14.3881 22.999 14.5 23.1109 14.5 23.249C14.5 23.3871 14.3881 23.499 14.25 23.499H2.25C1.2835 23.499 0.5 22.7155 0.5 21.749V2.249Z" fill="#316146"/>
<path fill-rule="evenodd" clip-rule="evenodd" d="M15.75 18.749C15.75 19.5774 16.4216 20.249 17.25 20.249H18.75C19.5784 20.249 20.25 19.5774 20.25 18.749V7.5H15.75V18.749Z" fill="#CFD762"/>
<path fill-rule="evenodd" clip-rule="evenodd" d="M15.5 7.5C15.5 7.36193 15.6119 7.25 15.75 7.25H20.25C20.3881 7.25 20.5 7.36193 20.5 7.5V18.749C20.5 19.7155 19.7165 20.499 18.75 20.499H17.25C16.2835 20.499 15.5 19.7155 15.5 18.749V7.5ZM16 7.75V18.749C16 19.4394 16.5596 19.999 17.25 19.999H18.75C19.4404 19.999 20 19.4394 20 18.749V7.75H16Z" fill="#316146"/>
<path fill-rule="evenodd" clip-rule="evenodd" d="M20 2.249C20 2.11093 20.1119 1.999 20.25 1.999H21.75C22.7165 1.999 23.5 2.7825 23.5 3.749V10.5C23.5 10.6381 23.3881 10.75 23.25 10.75C23.1119 10.75 23 10.6381 23 10.5V3.749C23 3.05864 22.4404 2.499 21.75 2.499H20.25C20.1119 2.499 20 2.38707 20 2.249Z" fill="#316146"/>
<path fill-rule="evenodd" clip-rule="evenodd" d="M20.25 7.5V2.249C20.25 1.42057 19.5784 0.749001 18.75 0.749001H17.25C16.4216 0.749001 15.75 1.42057 15.75 2.249V7.5" fill="#CFD762"/>
<path fill-rule="evenodd" clip-rule="evenodd" d="M15.5 2.249C15.5 1.2825 16.2835 0.499001 17.25 0.499001H18.75C19.7165 0.499001 20.5 1.2825 20.5 2.249V7.5C20.5 7.63807 20.3881 7.75 20.25 7.75C20.1119 7.75 20 7.63807 20 7.5V2.249C20 1.55864 19.4404 0.999001 18.75 0.999001H17.25C16.5596 0.999001 16 1.55864 16 2.249V7.5C16 7.63807 15.8881 7.75 15.75 7.75C15.6119 7.75 15.5 7.63807 15.5 7.5V2.249Z" fill="#316146"/>
<path fill-rule="evenodd" clip-rule="evenodd" d="M18 19.999C18.1381 19.999 18.25 20.1109 18.25 20.249V23.249C18.25 23.3871 18.1381 23.499 18 23.499C17.8619 23.499 17.75 23.3871 17.75 23.249V20.249C17.75 20.1109 17.8619 19.999 18 19.999Z" fill="#316146"/>
</svg>
