<svg width="24" height="24" viewBox="0 0 24 24" fill="none" xmlns="http://www.w3.org/2000/svg">
<path d="M0.789001 13.493V22.493" stroke="#316146" stroke-width="0.5" stroke-linecap="round" stroke-linejoin="round"/>
<path fill-rule="evenodd" clip-rule="evenodd" d="M15.789 20.993C15.789 19.3361 14.4459 17.993 12.789 17.993H9.039C9.039 16.3361 7.69586 14.993 6.039 14.993H0.789001V20.993H15.789Z" fill="#CFD762" stroke="#316146" stroke-width="0.5" stroke-linecap="round" stroke-linejoin="round"/>
<path d="M6.039 17.993H9.039" stroke="#316146" stroke-width="0.5" stroke-linecap="round" stroke-linejoin="round"/>
<path fill-rule="evenodd" clip-rule="evenodd" d="M12.039 8.993C12.039 8.993 10.508 11.613 8.289 11.243C3.789 10.493 4.539 4.493 3.039 2.243C5.98614 1.03821 9.33193 1.31702 12.039 2.993C14.289 4.493 14.289 6.743 12.039 8.993Z" fill="#CFD762" stroke="#316146" stroke-width="0.5" stroke-linecap="round" stroke-linejoin="round"/>
<path fill-rule="evenodd" clip-rule="evenodd" d="M16.961 11.191C16.961 11.191 18.024 13.01 19.561 12.754C22.686 12.233 22.161 8.066 23.207 6.503C21.1603 5.66645 18.8369 5.86013 16.957 7.024C15.4 8.066 15.4 9.628 16.961 11.191Z" fill="#CFD762" stroke="#316146" stroke-width="0.5" stroke-linecap="round" stroke-linejoin="round"/>
<path d="M9.039 5.993C9.039 5.993 12.789 6.743 14.289 14.243C15.1646 12.467 16.45 10.9246 18.039 9.743" stroke="#316146" stroke-width="0.5" stroke-linecap="round" stroke-linejoin="round"/>
</svg>
