<svg width="24" height="24" viewBox="0 0 24 24" fill="none" xmlns="http://www.w3.org/2000/svg">
<path d="M2 4.5L1.5 5L10.8375 11.6697C11.5329 12.1664 12.4671 12.1664 13.1625 11.6697L22.5 5L22 4.5H2Z" fill="#CFD762"/>
<path fill-rule="evenodd" clip-rule="evenodd" d="M0.5 6C0.5 5.0335 1.2835 4.25 2.25 4.25H21.75C22.7165 4.25 23.5 5.0335 23.5 6V18C23.5 18.9665 22.7165 19.75 21.75 19.75H2.25C1.2835 19.75 0.5 18.9665 0.5 18V6ZM2.25 4.75C1.55964 4.75 1 5.30964 1 6V18C1 18.6904 1.55964 19.25 2.25 19.25H21.75C22.4404 19.25 23 18.6904 23 18V6C23 5.30964 22.4404 4.75 21.75 4.75H2.25Z" fill="#316146"/>
<path fill-rule="evenodd" clip-rule="evenodd" d="M15.687 9.975L19.5 13.5L15.687 9.975Z" fill="#CFD762"/>
<path fill-rule="evenodd" clip-rule="evenodd" d="M15.5034 9.80529C15.5972 9.70391 15.7553 9.6977 15.8567 9.79143L19.6697 13.3164C19.7711 13.4102 19.7773 13.5683 19.6836 13.6697C19.5898 13.7711 19.4317 13.7773 19.3303 13.6836L15.5173 10.1586C15.4159 10.0648 15.4097 9.90668 15.5034 9.80529Z" fill="#316146"/>
<path fill-rule="evenodd" clip-rule="evenodd" d="M8.313 9.975L4.5 13.5L8.313 9.975Z" fill="#CFD762"/>
<path fill-rule="evenodd" clip-rule="evenodd" d="M8.49657 9.80529C8.5903 9.90668 8.58409 10.0648 8.48271 10.1586L4.66971 13.6836C4.56832 13.7773 4.41015 13.7711 4.31643 13.6697C4.2227 13.5683 4.22891 13.4102 4.33029 13.3164L8.14329 9.79143C8.24468 9.6977 8.40285 9.70391 8.49657 9.80529Z" fill="#316146"/>
<path fill-rule="evenodd" clip-rule="evenodd" d="M0.914189 4.87208C0.992571 4.75841 1.14826 4.72981 1.26192 4.80819L10.7749 11.3682L10.775 11.3683C11.5123 11.8773 12.4876 11.8773 13.225 11.3683L13.2251 11.3682L22.7381 4.80819C22.8517 4.72981 23.0074 4.75841 23.0858 4.87208C23.1642 4.98574 23.1356 5.14143 23.0219 5.21981L13.509 11.7797C12.6007 12.4068 11.3993 12.4068 10.491 11.7797L0.978076 5.21981C0.86441 5.14143 0.835807 4.98574 0.914189 4.87208Z" fill="#316146"/>
</svg>
