<svg width="24" height="24" viewBox="0 0 24 24" fill="none" xmlns="http://www.w3.org/2000/svg">
<path fill-rule="evenodd" clip-rule="evenodd" d="M12 23.25C18.2132 23.25 23.25 18.2132 23.25 12C23.25 5.7868 18.2132 0.75 12 0.75C5.7868 0.75 0.75 5.7868 0.75 12C0.75 18.2132 5.7868 23.25 12 23.25Z" fill="#CFD762"/>
<path fill-rule="evenodd" clip-rule="evenodd" d="M0.5 12C0.5 5.64873 5.64873 0.5 12 0.5C18.3513 0.5 23.5 5.64873 23.5 12C23.5 18.3513 18.3513 23.5 12 23.5C5.64873 23.5 0.5 18.3513 0.5 12ZM12 1C5.92487 1 1 5.92487 1 12C1 18.0751 5.92487 23 12 23C18.0751 23 23 18.0751 23 12C23 5.92487 18.0751 1 12 1Z" fill="#316146"/>
<path fill-rule="evenodd" clip-rule="evenodd" d="M10.25 10.5C10.25 10.3619 10.3619 10.25 10.5 10.25H11.25C11.8023 10.25 12.25 10.6977 12.25 11.25V15C12.25 15.6904 12.8096 16.25 13.5 16.25H14.25C14.3881 16.25 14.5 16.3619 14.5 16.5C14.5 16.6381 14.3881 16.75 14.25 16.75H13.5C12.5335 16.75 11.75 15.9665 11.75 15V11.25C11.75 10.9739 11.5261 10.75 11.25 10.75H10.5C10.3619 10.75 10.25 10.6381 10.25 10.5Z" fill="#316146"/>
<path fill-rule="evenodd" clip-rule="evenodd" d="M11 7.125C11 6.77982 11.2798 6.5 11.625 6.5C11.9702 6.5 12.25 6.77982 12.25 7.125C12.25 7.47018 11.9702 7.75 11.625 7.75C11.2798 7.75 11 7.47018 11 7.125ZM11.625 7C11.556 7 11.5 7.05596 11.5 7.125C11.5 7.19404 11.556 7.25 11.625 7.25C11.694 7.25 11.75 7.19404 11.75 7.125C11.75 7.05596 11.694 7 11.625 7Z" fill="#316146"/>
</svg>
