<svg width="24" height="24" viewBox="0 0 24 24" fill="none" xmlns="http://www.w3.org/2000/svg">
<path fill-rule="evenodd" clip-rule="evenodd" d="M12.9876 0.789065C13.003 0.651858 13.1267 0.553138 13.2639 0.568567C13.5172 0.597048 13.7739 0.632798 14.0235 0.678001C14.1594 0.702602 14.2496 0.832682 14.225 0.968544C14.2004 1.10441 14.0703 1.1946 13.9345 1.17C13.6981 1.1272 13.4528 1.09295 13.2081 1.06544C13.0709 1.05001 12.9721 0.926271 12.9876 0.789065Z" fill="#316146"/>
<path fill-rule="evenodd" clip-rule="evenodd" d="M17.9064 2.46737C17.9857 2.35436 18.1416 2.32705 18.2546 2.40638L18.8686 2.83738C18.9816 2.91671 19.0089 3.07263 18.9296 3.18563C18.8503 3.29864 18.6944 3.32595 18.5814 3.24662L17.9674 2.81562C17.8544 2.73629 17.8271 2.58037 17.9064 2.46737Z" fill="#316146"/>
<path fill-rule="evenodd" clip-rule="evenodd" d="M21.602 6.12906C21.7213 6.05949 21.8744 6.09977 21.9439 6.21903C22.0731 6.44042 22.1936 6.66624 22.3076 6.8942C22.3694 7.01769 22.3193 7.16786 22.1958 7.22961C22.0723 7.29135 21.9221 7.2413 21.8604 7.1178C21.7504 6.89776 21.6349 6.68158 21.5121 6.47097C21.4425 6.3517 21.4828 6.19863 21.602 6.12906Z" fill="#316146"/>
<path fill-rule="evenodd" clip-rule="evenodd" d="M8.00399 22.4989C8.05541 22.3707 8.20098 22.3086 8.32912 22.36C8.55038 22.4488 8.77756 22.5221 9.00901 22.5793C9.14305 22.6125 9.22483 22.748 9.19169 22.882C9.15855 23.016 9.02302 23.0978 8.88899 23.0647C8.635 23.0019 8.3857 22.9215 8.14288 22.824C8.01475 22.7726 7.95256 22.627 8.00399 22.4989Z" fill="#316146"/>
<path fill-rule="evenodd" clip-rule="evenodd" d="M3.7204 19.5591C3.81701 19.4604 3.97529 19.4588 4.07393 19.5554L4.60893 20.0794C4.70757 20.176 4.70922 20.3343 4.6126 20.4329C4.51599 20.5316 4.35771 20.5332 4.25907 20.4366L3.72407 19.9126C3.62543 19.816 3.62379 19.6577 3.7204 19.5591Z" fill="#316146"/>
<path fill-rule="evenodd" clip-rule="evenodd" d="M1.16118 15.0358C1.29327 14.9956 1.43294 15.0701 1.47316 15.2022C1.54418 15.4354 1.62336 15.6671 1.71073 15.8973C1.75973 16.0264 1.69481 16.1707 1.56572 16.2197C1.43664 16.2687 1.29227 16.2038 1.24327 16.0747C1.15197 15.8342 1.06915 15.5919 0.99484 15.3478C0.954624 15.2157 1.0291 15.0761 1.16118 15.0358Z" fill="#316146"/>
<path fill-rule="evenodd" clip-rule="evenodd" d="M17.25 23.25C20.5637 23.25 23.25 20.5637 23.25 17.25C23.25 13.9363 20.5637 11.25 17.25 11.25C13.9363 11.25 11.25 13.9363 11.25 17.25C11.25 20.5637 13.9363 23.25 17.25 23.25Z" fill="#CFD762"/>
<path fill-rule="evenodd" clip-rule="evenodd" d="M11 17.25C11 13.7982 13.7982 11 17.25 11C20.7018 11 23.5 13.7982 23.5 17.25C23.5 20.7018 20.7018 23.5 17.25 23.5C13.7982 23.5 11 20.7018 11 17.25ZM17.25 11.5C14.0744 11.5 11.5 14.0744 11.5 17.25C11.5 20.4256 14.0744 23 17.25 23C20.4256 23 23 20.4256 23 17.25C23 14.0744 20.4256 11.5 17.25 11.5Z" fill="#316146"/>
<path fill-rule="evenodd" clip-rule="evenodd" d="M20.074 15.305C20.1844 15.3878 20.2068 15.5445 20.124 15.655L17.219 19.529C17.0448 19.7607 16.7785 19.9057 16.4894 19.9262C16.2002 19.9466 15.9164 19.8407 15.7113 19.6359L14.2112 18.1358C14.1136 18.0381 14.1136 17.8799 14.2112 17.7822C14.3089 17.6846 14.4671 17.6846 14.5648 17.7822L16.0647 19.2821C16.1673 19.3847 16.3094 19.4377 16.4541 19.4274C16.5988 19.4172 16.7319 19.3447 16.8191 19.2288C16.8191 19.2288 16.8191 19.2289 16.8191 19.2288L19.724 15.355C19.8068 15.2446 19.9635 15.2222 20.074 15.305Z" fill="#316146"/>
<path fill-rule="evenodd" clip-rule="evenodd" d="M6.722 12.75C10.0357 12.75 12.722 10.0637 12.722 6.75C12.722 3.43629 10.0357 0.75 6.722 0.75C3.40829 0.75 0.722 3.43629 0.722 6.75C0.722 10.0637 3.40829 12.75 6.722 12.75Z" fill="#CFD762"/>
<path fill-rule="evenodd" clip-rule="evenodd" d="M0.472 6.75C0.472 3.29822 3.27022 0.5 6.722 0.5C10.1738 0.5 12.972 3.29822 12.972 6.75C12.972 10.2018 10.1738 13 6.722 13C3.27022 13 0.472 10.2018 0.472 6.75ZM6.722 1C3.54636 1 0.972 3.57436 0.972 6.75C0.972 9.92564 3.54636 12.5 6.722 12.5C9.89764 12.5 12.472 9.92564 12.472 6.75C12.472 3.57436 9.89764 1 6.722 1Z" fill="#316146"/>
<path fill-rule="evenodd" clip-rule="evenodd" d="M6.189 3.5L8.222 3.5C8.36007 3.5 8.472 3.61193 8.472 3.75C8.472 3.88807 8.36007 4 8.222 4L6.18917 4C5.66627 4.00037 5.21701 4.37137 5.11778 4.88478C5.01857 5.3981 5.29711 5.9097 5.78207 6.10497C5.78215 6.105 5.78198 6.10493 5.78207 6.10497L7.84579 6.92986C8.55467 7.21343 8.96248 7.96036 8.81765 8.70999C8.67282 9.45962 8.0162 10.0009 7.25271 10H5.222C5.08393 10 4.972 9.88807 4.972 9.75C4.972 9.61193 5.08393 9.5 5.222 9.5H7.253C7.7767 9.50061 8.22739 9.12934 8.32673 8.61514C8.42607 8.10097 8.14641 7.58867 7.66021 7.39414L5.59621 6.56914C4.88898 6.28458 4.4822 5.53838 4.62686 4.7899C4.77153 4.04141 5.42666 3.50053 6.189 3.5Z" fill="#316146"/>
<path fill-rule="evenodd" clip-rule="evenodd" d="M6.722 2.75C6.86007 2.75 6.972 2.86193 6.972 3V3.75C6.972 3.88807 6.86007 4 6.722 4C6.58393 4 6.472 3.88807 6.472 3.75V3C6.472 2.86193 6.58393 2.75 6.722 2.75Z" fill="#316146"/>
<path fill-rule="evenodd" clip-rule="evenodd" d="M6.722 9.5C6.86007 9.5 6.972 9.61193 6.972 9.75V10.5C6.972 10.6381 6.86007 10.75 6.722 10.75C6.58393 10.75 6.472 10.6381 6.472 10.5V9.75C6.472 9.61193 6.58393 9.5 6.722 9.5Z" fill="#316146"/>
</svg>
