<svg width="24" height="24" viewBox="0 0 24 24" fill="none" xmlns="http://www.w3.org/2000/svg">
<path d="M13 18.6L9.3 19.1L9.8 15.4L19.3 5.9C20.2 5 21.6 5 22.5 5.9C23.4 6.8 23.4 8.2 22.5 9.1L13 18.6Z" fill="#CFD762"/>
<path d="M9.3 19.4C9.2 19.4 9.2 19.4 9.1 19.3C9 19.2 9 19.2 9 19.1L9.5 15.4C9.5 15.3 9.5 15.3 9.6 15.3L19.1 5.8C19.7 5.3 20.3 5 21 5C21.7 5 22.3 5.3 22.8 5.7C23.3 6.1 23.5 6.8 23.5 7.5C23.5 8.2 23.2 8.8 22.8 9.3L13.3 18.8L13.2 18.9L9.3 19.4C9.4 19.4 9.3 19.4 9.3 19.4ZM10.1 15.6L9.6 18.9L12.9 18.4L22.4 8.9C22.8 8.5 23 8 23 7.5C23 7 22.8 6.5 22.4 6.1C21.6 5.3 20.4 5.3 19.6 6.1L10.1 15.6Z" fill="#316146"/>
<path d="M6 0.699997H12C12.4 0.699997 12.8 0.999997 12.8 1.5V3C12.8 3.4 12.5 3.8 12 3.8H6C5.6 3.7 5.2 3.4 5.2 3V1.5C5.2 1.1 5.6 0.699997 6 0.699997Z" fill="#CFD762"/>
<path d="M12 4H6C5.4 4 5 3.6 5 3V1.5C5 0.9 5.4 0.5 6 0.5H12C12.6 0.5 13 0.9 13 1.5V3C13 3.6 12.6 4 12 4ZM6 1C5.7 1 5.5 1.2 5.5 1.5V3C5.5 3.3 5.7 3.5 6 3.5H12C12.3 3.5 12.5 3.3 12.5 3V1.5C12.5 1.2 12.3 1 12 1H6Z" fill="#316146"/>
<path d="M17.2 4C17.1 4 17 3.9 17 3.7C17 3 16.4 2.5 15.8 2.5H12.8C12.7 2.5 12.6 2.4 12.6 2.3C12.6 2.2 12.6 2 12.8 2H15.8C16.8 2 17.6 2.8 17.6 3.8C17.5 3.9 17.4 4 17.2 4Z" fill="#316146"/>
<path d="M15.8 23.5H2.2C1.2 23.5 0.4 22.7 0.4 21.7V3.7C0.4 2.7 1.2 1.9 2.2 1.9H5.2C5.3 1.9 5.4 2 5.4 2.1C5.4 2.2 5.4 2.5 5.2 2.5H2.2C1.6 2.5 1 3.1 1 3.7V21.7C1 22.4 1.6 23 2.2 23H15.7C16.4 23 16.9 22.4 16.9 21.8V18.8C16.9 18.7 17 18.6 17.1 18.6C17.2 18.6 17.3 18.7 17.3 18.8V21.8C17.5 22.7 16.7 23.5 15.8 23.5Z" fill="#316146"/>
<path d="M12.8 8.5H5.2C5.1 8.5 5 8.4 5 8.2C5 8 5.1 8 5.2 8H12.7C12.9 8 13 8.1 13 8.2C13 8.3 12.9 8.5 12.8 8.5Z" fill="#316146"/>
<path d="M8.2 13H5.2C5.1 13 5 12.9 5 12.7C5 12.5 5.1 12.5 5.2 12.5H8.2C8.3 12.5 8.4 12.6 8.4 12.7C8.4 12.8 8.4 13 8.2 13Z" fill="#316146"/>
</svg>
