<svg width="24" height="24" viewBox="0 0 24 24" fill="none" xmlns="http://www.w3.org/2000/svg">
<path fill-rule="evenodd" clip-rule="evenodd" d="M11.808 0.5C11.9461 0.5 12.058 0.611929 12.058 0.75V2.188C12.058 2.32607 11.9461 2.438 11.808 2.438C11.6699 2.438 11.558 2.32607 11.558 2.188V0.75C11.558 0.611929 11.6699 0.5 11.808 0.5Z" fill="#316146"/>
<path fill-rule="evenodd" clip-rule="evenodd" d="M0.75 3.188C0.75 2.63571 1.19772 2.188 1.75 2.188H22.25C22.8023 2.188 23.25 2.63572 23.25 3.188V16.938C23.25 17.4903 22.8023 17.938 22.25 17.938H1.75C1.19772 17.938 0.75 17.4903 0.75 16.938V3.188Z" fill="#CFD762"/>
<path fill-rule="evenodd" clip-rule="evenodd" d="M0.5 3.188C0.5 2.49764 1.05964 1.938 1.75 1.938H22.25C22.9404 1.938 23.5 2.49764 23.5 3.188V16.938C23.5 17.6284 22.9404 18.188 22.25 18.188H1.75C1.05964 18.188 0.5 17.6284 0.5 16.938V3.188ZM1.75 2.438C1.33579 2.438 1 2.77379 1 3.188V16.938C1 17.3522 1.33579 17.688 1.75 17.688H22.25C22.6642 17.688 23 17.3522 23 16.938V3.188C23 2.77379 22.6642 2.438 22.25 2.438H1.75Z" fill="#316146"/>
<path fill-rule="evenodd" clip-rule="evenodd" d="M20.4276 7.02404C20.5248 7.12211 20.524 7.2804 20.426 7.37759L17.2157 10.5589C17.2156 10.559 17.2158 10.5588 17.2157 10.5589C16.7385 11.0352 15.9653 11.0355 15.4883 10.5589L13.3973 8.46787C13.3973 8.46784 13.3973 8.46789 13.3973 8.46787C13.1154 8.18629 12.6586 8.18624 12.3767 8.46787L9.6507 11.1889C9.17357 11.6656 8.40043 11.6656 7.9233 11.1889L6.7803 10.0429C6.78025 10.0428 6.78035 10.0429 6.7803 10.0429C6.4984 9.76138 6.0416 9.76126 5.75974 10.0428C5.75973 10.0428 5.75976 10.0428 5.75974 10.0428L3.92682 11.8767C3.82922 11.9744 3.67093 11.9744 3.57327 11.8768C3.47561 11.7792 3.47557 11.6209 3.57318 11.5233L5.40618 9.68928C5.88331 9.21258 6.65657 9.21245 7.1337 9.68916L8.2767 10.8352C8.27673 10.8352 8.27667 10.8351 8.2767 10.8352C8.55861 11.1167 9.01543 11.1168 9.2973 10.8352L12.0233 8.11416C12.0233 8.11413 12.0233 8.11418 12.0233 8.11416C12.5004 7.63753 13.2736 7.63748 13.7507 8.11416L15.8417 10.2052C15.8417 10.2052 15.8417 10.2051 15.8417 10.2052C16.1236 10.4867 16.5804 10.4868 16.8623 10.2052L16.863 10.2044L20.074 7.02244C20.1721 6.92525 20.3304 6.92597 20.4276 7.02404Z" fill="#316146"/>
<path fill-rule="evenodd" clip-rule="evenodd" d="M12 17.688C12.1381 17.688 12.25 17.7999 12.25 17.938V20.938C12.25 21.0761 12.1381 21.188 12 21.188C11.8619 21.188 11.75 21.0761 11.75 20.938V17.938C11.75 17.7999 11.8619 17.688 12 17.688Z" fill="#316146"/>
<path fill-rule="evenodd" clip-rule="evenodd" d="M11.85 20.738C11.9389 20.6713 12.0611 20.6713 12.15 20.738L15.226 23.045C15.3365 23.1278 15.3588 23.2845 15.276 23.395C15.1932 23.5055 15.0365 23.5278 14.926 23.445L12 21.2505L9.07099 23.447C8.96053 23.5298 8.80383 23.5075 8.72099 23.397C8.63815 23.2865 8.66055 23.1298 8.77101 23.047L11.85 20.738Z" fill="#316146"/>
</svg>
