<svg width="24" height="24" viewBox="0 0 24 24" fill="none" xmlns="http://www.w3.org/2000/svg">
<path d="M18.4 17.2C17.6 18 16.5 18.3 15.4 18.1C14.7 17.9 14.1 17.4 13.6 16.9L7.3 10.6C6.8 10.1 6.3 9.5 6.1 8.8C5.9 7.7 6.2 6.6 7 5.8L7.5 5.3C7.6 5.1 7.9 5 8.2 5C8.5 5 9 5.3 9 5.3L10.9 7.2C11.3 7.6 11.3 8.3 10.9 8.7C10.5 9.1 10.5 9.8 10.9 10.2L13.9 13.2C14.3 13.6 15 13.6 15.4 13.2C15.8 12.8 16.5 12.8 16.9 13.2L18.8 15.1C19.2 15.5 19.2 16.2 18.8 16.6L18.4 17.2Z" fill="#CFD762"/>
<path d="M16.1 18.4C15.8 18.4 15.6 18.4 15.3 18.3C14.5 18.1 13.9 17.6 13.4 17L7.1 10.7C6.6 10.2 6 9.6 5.8 8.8C5.6 7.7 5.9 6.4 6.8 5.6L7.3 5.1C7.5 4.9 7.9 4.7 8.2 4.7C8.5 4.7 9 5 9.1 5.1L11 7C11.5 7.5 11.5 8.4 11 8.9C10.7 9.2 10.7 9.7 11 10.1L14 13.1C14.3 13.4 14.8 13.4 15.2 13.1C15.7 12.6 16.6 12.6 17.1 13.1L19 15C19.5 15.5 19.5 16.4 19 16.9L18.5 17.4C17.9 18 17 18.4 16.1 18.4ZM8.2 5.2C8 5.2 7.8 5.3 7.6 5.4L7.1 5.9C6.4 6.6 6.1 7.7 6.3 8.7C6.4 9.3 6.9 9.9 7.4 10.4L13.7 16.7C14.2 17.2 14.7 17.7 15.4 17.8C16.4 18 17.4 17.7 18.2 17L18.7 16.5C18.9 16.3 18.9 16.1 18.9 15.9C18.9 15.7 18.8 15.5 18.7 15.3L16.8 13.4C16.5 13.1 15.9 13.1 15.6 13.4C15.1 13.9 14.2 13.9 13.7 13.4L10.7 10.4C10.2 9.9 10.2 9 10.7 8.5C11 8.2 11 7.7 10.7 7.3L8.7 5.5C8.6 5.4 8.3 5.2 8.2 5.2Z" fill="#316146"/>
<path d="M12 23.5C6.6 23.5 2 19.9 0.8 14.6C-0.400001 9.4 2.1 4.1 6.8 1.7C11.6 -0.700001 17.3 0.5 20.8 4.6C24.2 8.7 24.4 14.6 21.2 18.9C21.1 19 21 19 20.8 19C20.7 18.9 20.7 18.8 20.8 18.6C23.9 14.5 23.7 8.9 20.4 5C17.2 1 11.7 -0.1 7.1 2.2C2.5 4.5 0.0999994 9.6 1.3 14.6C2.5 19.5 6.9 23 12 23C14.3 23 16.1 22.4 16.8 21.2C17.4 20.4 17.4 19.2 16.9 18C16.9 17.9 16.9 17.7 17 17.7C17.1 17.6 17.3 17.7 17.3 17.8C17.9 19.2 17.8 20.5 17.1 21.5C16.4 22.8 14.5 23.5 12 23.5Z" fill="#316146"/>
</svg>
