<svg width="24" height="24" viewBox="0 0 24 24" fill="none" xmlns="http://www.w3.org/2000/svg">
<path fill-rule="evenodd" clip-rule="evenodd" d="M12 23.2C17 23.2 21 19.2 21 14.2C21 9.2 17 5.2 12 5.2C7 5.2 3 9.2 3 14.2C3 19.2 7 23.2 12 23.2Z" fill="#CFD762"/>
<path d="M18.3 7.5L19.9 6L20.1 6.2C20.1 6.2 20.2 6.3 20.3 6.3C20.4 6.3 20.4 6.3 20.5 6.2C20.6 6.1 20.6 5.9 20.5 5.8L19.7 5C19.6 4.9 19.4 4.9 19.3 5C19.2 5.1 19.2 5.3 19.3 5.4L19.5 5.6L18 7.2C16.4 5.9 14.5 5.1 12.3 5V0.999998H14.3C14.4 0.999998 14.5 0.899998 14.5 0.799998C14.5 0.699998 14.4 0.599998 14.3 0.599998H9.8C9.7 0.599998 9.6 0.699998 9.6 0.799998C9.6 0.899998 9.6 0.999998 9.8 0.999998H11.8V5C6.8 5.1 2.8 9.2 2.8 14.2C2.8 19.3 6.9 23.4 12 23.4C17.1 23.4 21.2 19.3 21.2 14.2C21.2 11.6 20.1 9.2 18.3 7.5ZM12 23C7.2 23 3.2 19.1 3.2 14.2C3.2 9.4 7.1 5.4 12 5.4C16.8 5.4 20.8 9.3 20.8 14.2C20.8 19.1 16.8 23 12 23Z" fill="#316146"/>
<path fill-rule="evenodd" clip-rule="evenodd" d="M12 15L8.2 10.8L12 15Z" fill="#CFD762"/>
<path d="M12 15.2C11.9 15.2 11.9 15.2 11.8 15.1L8.1 11C8 10.9 8 10.7 8.1 10.6C8.2 10.5 8.4 10.5 8.5 10.6L12.3 14.8C12.4 14.9 12.4 15.1 12.3 15.2C12.1 15.2 12.1 15.2 12 15.2Z" fill="#316146"/>
</svg>
