<svg width="24" height="24" viewBox="0 0 24 24" fill="none" xmlns="http://www.w3.org/2000/svg">
<path fill-rule="evenodd" clip-rule="evenodd" d="M11.1121 6.76518C8.58767 6.26198 6.09771 7.77319 5.37877 10.2449C4.65982 12.7166 5.95076 15.3275 8.35126 16.2569C8.48002 16.3067 8.54399 16.4515 8.49414 16.5803C8.44429 16.709 8.2995 16.773 8.17074 16.7231C5.5283 15.7001 4.10726 12.826 4.89866 10.1052C5.69007 7.38443 8.43098 5.72091 11.2099 6.27482C11.3453 6.30181 11.4332 6.43346 11.4062 6.56887C11.3792 6.70428 11.2475 6.79217 11.1121 6.76518Z" fill="#316146"/>
<path fill-rule="evenodd" clip-rule="evenodd" d="M11.5824 2.61585C6.68745 1.83119 2.06117 5.09739 1.16216 9.97267C0.263153 14.8479 3.42018 19.5494 8.27308 20.5623C8.40824 20.5905 8.49494 20.7229 8.46673 20.8581C8.43852 20.9932 8.30608 21.0799 8.17092 21.0517C3.05217 19.9834 -0.277807 15.0244 0.670453 9.882C1.61871 4.73964 6.49843 1.29451 11.6616 2.12215C11.7979 2.144 11.8907 2.27224 11.8688 2.40857C11.847 2.5449 11.7188 2.6377 11.5824 2.61585Z" fill="#316146"/>
<path fill-rule="evenodd" clip-rule="evenodd" d="M14.0938 7.51522C14.1914 7.61285 14.1914 7.77115 14.0938 7.86878L9.92678 12.0358C9.82915 12.1334 9.67085 12.1334 9.57322 12.0358C9.47559 11.9381 9.47559 11.7799 9.57322 11.6822L13.7402 7.51522C13.8379 7.41759 13.9961 7.41759 14.0938 7.51522Z" fill="#316146"/>
<path fill-rule="evenodd" clip-rule="evenodd" d="M13.917 7.692L14.485 3.942L17.733 0.75L18.235 3.374L20.859 3.876L17.667 7.124L13.917 7.692Z" fill="#CFD762"/>
<path fill-rule="evenodd" clip-rule="evenodd" d="M17.8075 0.511354C17.8955 0.53882 17.9612 0.612482 17.9785 0.703025L18.4487 3.16034L20.906 3.63045C20.9965 3.64777 21.0702 3.71352 21.0976 3.80152C21.1251 3.88951 21.1019 3.98548 21.0373 4.05123L17.8453 7.29923C17.8074 7.33783 17.7579 7.36308 17.7044 7.37118L13.9544 7.93918L13.917 7.692L13.6698 7.65456L14.2378 3.90456C14.2459 3.85106 14.2712 3.80162 14.3098 3.76369L17.5578 0.571693C17.6235 0.507078 17.7195 0.483889 17.8075 0.511354ZM14.215 7.39401L17.5471 6.88931L20.3534 4.03381L18.188 3.61955C18.0874 3.6003 18.0087 3.5216 17.9895 3.42098L17.5752 1.2556L14.7197 4.06187L14.215 7.39401Z" fill="#316146"/>
<path fill-rule="evenodd" clip-rule="evenodd" d="M17.25 23.25C20.5637 23.25 23.25 20.5637 23.25 17.25C23.25 13.9363 20.5637 11.25 17.25 11.25C13.9363 11.25 11.25 13.9363 11.25 17.25C11.25 20.5637 13.9363 23.25 17.25 23.25Z" fill="#CFD762"/>
<path fill-rule="evenodd" clip-rule="evenodd" d="M11 17.25C11 13.7982 13.7982 11 17.25 11C20.7018 11 23.5 13.7982 23.5 17.25C23.5 20.7018 20.7018 23.5 17.25 23.5C13.7982 23.5 11 20.7018 11 17.25ZM17.25 11.5C14.0744 11.5 11.5 14.0744 11.5 17.25C11.5 20.4256 14.0744 23 17.25 23C20.4256 23 23 20.4256 23 17.25C23 14.0744 20.4256 11.5 17.25 11.5Z" fill="#316146"/>
<path fill-rule="evenodd" clip-rule="evenodd" d="M20.074 15.305C20.1844 15.3878 20.2068 15.5445 20.124 15.655L17.219 19.529C17.0448 19.7607 16.7785 19.9057 16.4894 19.9262C16.2002 19.9466 15.9164 19.8407 15.7113 19.6359L14.2112 18.1358C14.1136 18.0381 14.1136 17.8799 14.2112 17.7822C14.3089 17.6846 14.4671 17.6846 14.5648 17.7822L16.0647 19.2821C16.1673 19.3847 16.3094 19.4377 16.4541 19.4274C16.5988 19.4172 16.7319 19.3447 16.8191 19.2288C16.8191 19.2288 16.8191 19.2289 16.8191 19.2288L19.724 15.355C19.8068 15.2446 19.9635 15.2222 20.074 15.305Z" fill="#316146"/>
</svg>
