<svg width="24" height="24" viewBox="0 0 24 24" fill="none" xmlns="http://www.w3.org/2000/svg">
<path d="M4.5 20.2C5.93594 20.2 7.1 19.0359 7.1 17.6C7.1 16.1641 5.93594 15 4.5 15C3.06406 15 1.9 16.1641 1.9 17.6C1.9 19.0359 3.06406 20.2 4.5 20.2Z" fill="#CFD762"/>
<path d="M4.5 20.5C2.9 20.5 1.6 19.2 1.6 17.6C1.6 16 2.9 14.7 4.5 14.7C6.1 14.7 7.4 16 7.4 17.6C7.4 19.2 6.1 20.5 4.5 20.5ZM4.5 15.2C3.2 15.2 2.1 16.3 2.1 17.6C2.1 18.9 3.2 20 4.5 20C5.8 20 6.9 18.9 6.9 17.6C6.9 16.3 5.8 15.2 4.5 15.2Z" fill="#316146"/>
<path d="M8.2 23.5C8.1 23.5 8 23.5 8 23.4C7.5 22.5 6.7 21.8 5.6 21.5C4.6 21.2 3.5 21.3 2.6 21.8C1.9 22.2 1.3 22.7 1 23.4C0.9 23.5 0.8 23.6 0.7 23.5C0.6 23.4 0.5 23.3 0.6 23.2C1 22.4 1.7 21.8 2.5 21.3C3.6 20.7 4.8 20.6 5.9 21C7 21.3 8 22.1 8.6 23.2C8.7 23.3 8.6 23.5 8.5 23.5C8.3 23.5 8.3 23.5 8.2 23.5Z" fill="#316146"/>
<path d="M19.5 20.2C20.9359 20.2 22.1 19.0359 22.1 17.6C22.1 16.1641 20.9359 15 19.5 15C18.0641 15 16.9 16.1641 16.9 17.6C16.9 19.0359 18.0641 20.2 19.5 20.2Z" fill="#CFD762"/>
<path d="M19.5 20.5C17.9 20.5 16.6 19.2 16.6 17.6C16.6 16 17.9 14.7 19.5 14.7C21.1 14.7 22.4 16 22.4 17.6C22.4 19.2 21.1 20.5 19.5 20.5ZM19.5 15.2C18.2 15.2 17.1 16.3 17.1 17.6C17.1 18.9 18.2 20 19.5 20C20.8 20 21.9 18.9 21.9 17.6C21.9 16.3 20.8 15.2 19.5 15.2Z" fill="#316146"/>
<path d="M15.7 23.5H15.6C15.5 23.4 15.4 23.3 15.5 23.2C15.9 22.4 16.6 21.8 17.4 21.3C18.5 20.7 19.7 20.6 20.8 21C21.9 21.3 22.9 22.1 23.5 23.2C23.6 23.3 23.5 23.5 23.4 23.5C23.3 23.6 23.1 23.5 23.1 23.4C22.6 22.5 21.8 21.8 20.7 21.5C19.7 21.2 18.6 21.3 17.7 21.8C17 22.2 16.4 22.7 16.1 23.4C15.9 23.5 15.8 23.5 15.7 23.5Z" fill="#316146"/>
<path d="M12 6C13.4359 6 14.6 4.83594 14.6 3.4C14.6 1.96406 13.4359 0.800003 12 0.800003C10.5641 0.800003 9.4 1.96406 9.4 3.4C9.4 4.83594 10.5641 6 12 6Z" fill="#CFD762"/>
<path d="M12 6.2C10.4 6.2 9.1 4.9 9.1 3.3C9.1 1.7 10.4 0.400002 12 0.400002C13.6 0.400002 14.9 1.7 14.9 3.3C14.9 4.9 13.6 6.2 12 6.2ZM12 1C10.7 1 9.6 2.1 9.6 3.4C9.6 4.7 10.7 5.8 12 5.8C13.3 5.8 14.4 4.7 14.4 3.4C14.4 2.1 13.3 1 12 1Z" fill="#316146"/>
<path d="M15.2 8.5C15.1 8.5 15.1 8.5 15 8.4C14.3 7.6 13.3 7.1 12.3 7C11.2 6.9 10.2 7.3 9.4 8C9.2 8.1 9.1 8.2 8.9 8.4C8.8 8.5 8.7 8.5 8.5 8.4C8.4 8.3 8.4 8.2 8.5 8C8.7 7.8 8.8 7.6 9 7.5C9.9 6.7 11.1 6.3 12.3 6.4C13.5 6.5 14.6 7.1 15.4 8C15.5 8.1 15.5 8.3 15.4 8.4C15.4 8.5 15.3 8.5 15.2 8.5Z" fill="#316146"/>
<path d="M12 20.5C11 20.5 9.9 20.3 9 19.9C8.9 19.9 8.8 19.7 8.9 19.6C8.9 19.5 9.1 19.4 9.2 19.5C11.1 20.2 13.1 20.2 15 19.5C15.1 19.5 15.3 19.5 15.3 19.6C15.3 19.7 15.3 19.9 15.2 19.9C14.1 20.3 13 20.5 12 20.5Z" fill="#316146"/>
<path d="M3.8 13C3.7 13 3.6 12.9 3.6 12.8C3.6 12.5 3.6 12.3 3.6 12C3.6 9.7 4.6 7.4 6.3 5.8C6.4 5.7 6.6 5.7 6.7 5.8C6.8 5.9 6.8 6.1 6.7 6.2C4.9 7.7 4 9.8 4 12C4 12.2 4 12.5 4 12.7C4 12.9 3.9 13 3.8 13Z" fill="#316146"/>
<path d="M20.2 13C20 13 19.9 12.9 20 12.7C20 12.5 20 12.2 20 12C20 9.8 19.1 7.7 17.5 6.2C17.4 6.1 17.4 5.9 17.5 5.8C17.6 5.7 17.8 5.7 17.9 5.8C19.6 7.4 20.6 9.6 20.6 12C20.6 12.3 20.6 12.5 20.6 12.8C20.4 12.9 20.3 13 20.2 13Z" fill="#316146"/>
</svg>
