<svg width="72" height="73" viewBox="0 0 72 73" fill="none" xmlns="http://www.w3.org/2000/svg">
<path d="M35.9851 46.8999C34.8733 46.8999 33.7598 46.6839 32.7234 46.2535C32.4253 46.1296 32.1222 46.0509 31.8125 46.0158L30.4729 45.8617C29.5972 45.7613 28.9375 45.0195 28.9375 44.1388V42.7875C28.9375 40.0063 31.1996 37.7441 33.9808 37.7441H38.0195C40.8008 37.7441 43.0629 40.0063 43.0629 42.7875V44.1388C43.0629 45.0195 42.4032 45.7613 41.5274 45.8617L40.1142 46.0258C39.8212 46.0593 39.5349 46.1347 39.2636 46.2485C38.2221 46.6822 37.1036 46.8999 35.9851 46.8999ZM30.9485 43.8943L32.0435 44.0199C32.5392 44.0768 33.0248 44.2024 33.4852 44.3949C35.0826 45.058 36.9027 45.0563 38.4884 44.3933C38.9338 44.2074 39.4026 44.0852 39.8832 44.0282L41.0536 43.8926V42.7875C41.0536 41.1148 39.6923 39.7534 38.0195 39.7534H33.9808C32.3081 39.7534 30.9468 41.1148 30.9468 42.7875V43.8943H30.9485Z" fill="currentColor"/>
<path d="M36.0002 36.8333C33.8854 36.8333 32.1708 35.1773 32.0971 33.0642L32.0034 30.3499C31.9665 29.2817 32.355 28.2703 33.0968 27.5018C33.8385 26.7332 34.8365 26.3096 35.9048 26.3096H36.094C37.1623 26.3096 38.1602 26.7332 38.902 27.5018C39.6437 28.2703 40.0322 29.2817 39.9954 30.3499L39.9016 33.0642C39.8296 35.1773 38.115 36.8333 36.0002 36.8333ZM35.9064 28.3189C35.3874 28.3189 34.9035 28.5248 34.5435 28.8982C34.1835 29.2716 33.9943 29.7622 34.0127 30.2813L34.1064 32.9955C34.1416 34.0219 34.9738 34.8257 36.0002 34.8257C37.0266 34.8257 37.8588 34.0219 37.894 32.9955L37.9877 30.2813C38.0062 29.7622 37.8169 29.2716 37.4569 28.8982C37.097 28.5248 36.613 28.3189 36.094 28.3189H35.9064Z" fill="currentColor"/>
<path d="M61.955 45.2721C60.6891 44.5404 59.2139 44.3462 57.8024 44.7246C56.7191 45.0143 55.7747 45.6154 55.0614 46.4509L49.9578 43.5039C50.9909 41.4226 51.5719 39.0818 51.5719 36.6053C51.5719 34.1289 50.9909 31.788 49.9578 29.7067L55.0614 26.7598C55.773 27.5953 56.7191 28.1964 57.8024 28.4861C58.2746 28.6117 58.7518 28.6753 59.2273 28.6753C60.1751 28.6753 61.1111 28.4258 61.955 27.9402C64.5687 26.4316 65.4679 23.0777 63.9576 20.4639C63.2259 19.1981 62.0471 18.2922 60.6339 17.9138C59.2223 17.5354 57.7472 17.7296 56.4813 18.4613C55.2154 19.1931 54.3096 20.3718 53.9312 21.7851C53.6415 22.8684 53.6884 23.9869 54.0551 25.0217L48.9481 27.9704C46.3276 24.0539 41.9792 21.3865 37.0028 21.0684V15.1761C39.5429 14.7023 41.4718 12.4719 41.4718 9.79789C41.4718 6.78059 39.0171 4.32422 35.9981 4.32422C32.9792 4.32422 30.5245 6.77892 30.5245 9.79789C30.5245 12.4719 32.4534 14.7039 34.9935 15.1761V21.0684C30.0171 21.3865 25.672 24.0556 23.0499 27.972L17.9412 25.0217C18.3079 23.9869 18.3565 22.8684 18.0651 21.7851C17.6867 20.3735 16.7808 19.1931 15.515 18.4613C14.2491 17.7296 12.7739 17.5354 11.3624 17.9138C9.95087 18.2922 8.77041 19.1981 8.03868 20.4639C6.53003 23.0777 7.4292 26.4316 10.0413 27.9402C10.8852 28.4275 11.8212 28.6753 12.7689 28.6753C13.2445 28.6753 13.7233 28.6133 14.1938 28.4861C15.2772 28.1964 16.2216 27.5953 16.9349 26.7598L22.0418 29.7084C21.0087 31.788 20.4244 34.1289 20.4244 36.6053C20.4244 39.0818 21.0054 41.4226 22.0385 43.5039L16.9349 46.4509C16.2232 45.6154 15.2772 45.0143 14.1938 44.7246C12.7823 44.3462 11.3072 44.5404 10.0413 45.2721C7.42752 46.7808 6.52836 50.1346 8.03868 52.7484C8.77041 54.0143 9.9492 54.9201 11.3624 55.2985C11.8346 55.4241 12.3118 55.4878 12.7873 55.4878C13.7351 55.4878 14.6711 55.2383 15.515 54.7527C16.7808 54.021 17.6867 52.8422 18.0651 51.429C18.3548 50.3456 18.3079 49.2271 17.9412 48.1923L23.0482 45.2437C25.6686 49.1601 30.0171 51.8275 34.9935 52.1456V58.0379C32.4534 58.5117 30.5245 60.7421 30.5245 63.4161C30.5245 66.4334 32.9792 68.8898 35.9981 68.8898C39.0171 68.8898 41.4718 66.4351 41.4718 63.4161C41.4718 60.7421 39.5429 58.5101 37.0028 58.0379V52.1456C41.9792 51.8275 46.3276 49.1601 48.9481 45.242L54.0551 48.1906C53.6884 49.2254 53.6398 50.3439 53.9312 51.4273C54.3096 52.8388 55.2154 54.0193 56.4813 54.751C57.3252 55.2383 58.2612 55.4861 59.2089 55.4861C59.6845 55.4861 60.1633 55.4241 60.6339 55.2969C62.0454 54.9184 63.2259 54.0126 63.9576 52.7467C65.4679 50.1346 64.5687 46.7808 61.955 45.2721ZM55.8735 22.3058C56.1129 21.4117 56.6856 20.6649 57.4876 20.2027C58.0218 19.8946 58.6128 19.7372 59.2139 19.7372C59.5153 19.7372 59.8184 19.7774 60.1165 19.8561C61.0106 20.0956 61.7574 20.6682 62.2195 21.4703C63.1739 23.1246 62.6063 25.2461 60.952 26.2022C60.1516 26.6643 59.2173 26.7882 58.3232 26.5488C57.429 26.3093 56.6822 25.7367 56.2201 24.9346C55.7579 24.1326 55.634 23.1983 55.8735 22.3058ZM15.7812 24.933C15.3191 25.735 14.5723 26.3077 13.6781 26.5471C12.784 26.7865 11.8513 26.6643 11.0493 26.2005C9.39496 25.2461 8.82734 23.1229 9.78175 21.4686C10.2439 20.6665 10.9907 20.0939 11.8848 19.8545C12.1829 19.7741 12.4859 19.7356 12.7873 19.7356C13.3868 19.7356 13.9795 19.893 14.5137 20.2011C15.3157 20.6632 15.8884 21.41 16.1278 22.3041C16.3656 23.1983 16.2433 24.1326 15.7812 24.933ZM16.1261 50.9082C15.8867 51.8024 15.314 52.5491 14.512 53.0113C13.7099 53.4734 12.7773 53.5973 11.8832 53.3579C10.989 53.1185 10.2422 52.5458 9.78008 51.7438C8.82566 50.0894 9.39329 47.9679 11.0476 47.0118C11.8497 46.5497 12.7823 46.4258 13.6765 46.6652C14.5706 46.9047 15.3174 47.4773 15.7795 48.2794C16.2417 49.0814 16.3656 50.0158 16.1261 50.9082ZM32.5354 9.79622C32.5354 7.88571 34.0893 6.33185 35.9998 6.33185C37.9103 6.33185 39.4642 7.88571 39.4642 9.79622C39.4642 11.7067 37.9103 13.2606 35.9998 13.2606C34.0893 13.2606 32.5354 11.7067 32.5354 9.79622ZM39.4642 63.4178C39.4642 65.3283 37.9103 66.8822 35.9998 66.8822C34.0893 66.8822 32.5354 65.3283 32.5354 63.4178C32.5354 61.5073 34.0893 59.9534 35.9998 59.9534C37.9103 59.9534 39.4642 61.5073 39.4642 63.4178ZM35.9998 50.1698C28.5219 50.1698 22.437 44.085 22.437 36.607C22.437 29.1291 28.5219 23.0442 35.9998 23.0442C43.4778 23.0442 49.5626 29.1291 49.5626 36.607C49.5626 44.085 43.4778 50.1698 35.9998 50.1698ZM62.2178 51.7438C61.7557 52.5458 61.0089 53.1185 60.1148 53.3579C59.2206 53.5973 58.288 53.4751 57.4859 53.0113C56.6839 52.5491 56.1112 51.8024 55.8718 50.9082C55.6324 50.0141 55.7546 49.0814 56.2184 48.2794C56.6822 47.4773 57.4273 46.9047 58.3215 46.6652C58.6195 46.5849 58.9226 46.5464 59.224 46.5464C59.8234 46.5464 60.4162 46.7038 60.9503 47.0118C62.6046 47.9679 63.1739 50.0894 62.2178 51.7438Z" fill="currentColor"/>
</svg>
