<svg width="99" height="99" viewBox="0 0 99 99" fill="none" xmlns="http://www.w3.org/2000/svg">
<circle cx="49.666" cy="49.6069" r="49" fill="white"/>
<path d="M27.1662 74.2069C31.474 74.2069 34.9662 70.7148 34.9662 66.4069C34.9662 62.0991 31.474 58.6069 27.1662 58.6069C22.8584 58.6069 19.3662 62.0991 19.3662 66.4069C19.3662 70.7148 22.8584 74.2069 27.1662 74.2069Z" fill="#CFD762"/>
<path d="M27.1658 75.107C22.3658 75.107 18.4658 71.207 18.4658 66.407C18.4658 61.607 22.3658 57.707 27.1658 57.707C31.9658 57.707 35.8658 61.607 35.8658 66.407C35.8658 71.207 31.9658 75.107 27.1658 75.107ZM27.1658 59.207C23.2658 59.207 19.9658 62.507 19.9658 66.407C19.9658 70.307 23.2658 73.607 27.1658 73.607C31.0658 73.607 34.3658 70.307 34.3658 66.407C34.3658 62.507 31.0658 59.207 27.1658 59.207Z" fill="#316146"/>
<path d="M38.2661 84.1067C37.9661 84.1067 37.6661 84.1067 37.6661 83.8067C36.1661 81.1067 33.7661 79.0067 30.4661 78.1067C27.4661 77.2067 24.1661 77.5067 21.4661 79.0067C19.3661 80.2067 17.5661 81.7067 16.6661 83.8067C16.3661 84.1067 16.0661 84.4067 15.7661 84.1067C15.4661 83.8067 15.1661 83.5067 15.4661 83.2067C16.6661 80.8067 18.7661 79.0067 21.1661 77.5067C24.4661 75.7067 28.0661 75.4067 31.3661 76.6067C34.6661 77.5067 37.6661 79.9067 39.4661 83.2067C39.7661 83.5067 39.4661 84.1067 39.1661 84.1067C38.5661 84.1067 38.5661 84.1067 38.2661 84.1067Z" fill="#316146"/>
<path d="M72.1662 74.2069C76.474 74.2069 79.9662 70.7148 79.9662 66.4069C79.9662 62.0991 76.474 58.6069 72.1662 58.6069C67.8584 58.6069 64.3662 62.0991 64.3662 66.4069C64.3662 70.7148 67.8584 74.2069 72.1662 74.2069Z" fill="#CFD762"/>
<path d="M72.1658 75.107C67.3658 75.107 63.4658 71.207 63.4658 66.407C63.4658 61.607 67.3658 57.707 72.1658 57.707C76.9658 57.707 80.8658 61.607 80.8658 66.407C80.8658 71.207 76.9658 75.107 72.1658 75.107ZM72.1658 59.207C68.2658 59.207 64.9658 62.507 64.9658 66.407C64.9658 70.307 68.2658 73.607 72.1658 73.607C76.0658 73.607 79.3658 70.307 79.3658 66.407C79.3658 62.507 76.0658 59.207 72.1658 59.207Z" fill="#316146"/>
<path d="M60.7663 84.1067H60.4663C60.1663 83.8067 59.8663 83.5067 60.1663 83.2067C61.3663 80.8067 63.4663 79.0067 65.8663 77.5067C69.1663 75.7067 72.7663 75.4067 76.0663 76.6067C79.3663 77.5067 82.3663 79.9067 84.1663 83.2067C84.4663 83.5067 84.1663 84.1067 83.8663 84.1067C83.5663 84.4067 82.9663 84.1067 82.9663 83.8067C81.4663 81.1067 79.0663 79.0067 75.7663 78.1067C72.7663 77.2067 69.4663 77.5067 66.7663 79.0067C64.6663 80.2067 62.8663 81.7067 61.9663 83.8067C61.3663 84.1067 61.0663 84.1067 60.7663 84.1067Z" fill="#316146"/>
<path d="M49.6662 31.6073C53.974 31.6073 57.4662 28.1151 57.4662 23.8073C57.4662 19.4995 53.974 16.0073 49.6662 16.0073C45.3584 16.0073 41.8662 19.4995 41.8662 23.8073C41.8662 28.1151 45.3584 31.6073 49.6662 31.6073Z" fill="#CFD762"/>
<path d="M49.6658 32.2071C44.8658 32.2071 40.9658 28.3071 40.9658 23.5071C40.9658 18.7071 44.8658 14.8071 49.6658 14.8071C54.4658 14.8071 58.3658 18.7071 58.3658 23.5071C58.3658 28.3071 54.4658 32.2071 49.6658 32.2071ZM49.6658 16.6071C45.7658 16.6071 42.4658 19.9071 42.4658 23.8071C42.4658 27.7071 45.7658 31.0071 49.6658 31.0071C53.5658 31.0071 56.8658 27.7071 56.8658 23.8071C56.8658 19.9071 53.5658 16.6071 49.6658 16.6071Z" fill="#316146"/>
<path d="M59.2664 39.107C58.9664 39.107 58.9664 39.107 58.6664 38.807C56.5664 36.407 53.5664 34.907 50.5664 34.607C47.2664 34.307 44.2664 35.507 41.8664 37.607C41.2664 37.907 40.9664 38.207 40.3664 38.807C40.0664 39.107 39.7664 39.107 39.1664 38.807C38.8664 38.507 38.8664 38.207 39.1664 37.607C39.7664 37.007 40.0664 36.407 40.6664 36.107C43.3664 33.707 46.9664 32.507 50.5664 32.807C54.1664 33.107 57.4664 34.907 59.8664 37.607C60.1664 37.907 60.1664 38.507 59.8664 38.807C59.8664 39.107 59.5664 39.107 59.2664 39.107Z" fill="#316146"/>
<path d="M49.6665 75.1067C46.6665 75.1067 43.3665 74.5067 40.6665 73.3067C40.3665 73.3067 40.0665 72.7067 40.3665 72.4067C40.3665 72.1067 40.9665 71.8067 41.2665 72.1067C46.9665 74.2067 52.9665 74.2067 58.6665 72.1067C58.9665 72.1067 59.5665 72.1067 59.5665 72.4067C59.5665 72.7067 59.5665 73.3067 59.2665 73.3067C55.9665 74.5067 52.6665 75.1067 49.6665 75.1067Z" fill="#316146"/>
<path d="M25.0658 52.6067C24.7658 52.6067 24.4658 52.3067 24.4658 52.0067C24.4658 51.1067 24.4658 50.5067 24.4658 49.6067C24.4658 42.7067 27.4658 35.8067 32.5658 31.0067C32.8658 30.7067 33.4658 30.7067 33.7658 31.0067C34.0658 31.3067 34.0658 31.9067 33.7658 32.2067C28.3658 36.7067 25.6658 43.0067 25.6658 49.6067C25.6658 50.2067 25.6658 51.1067 25.6658 51.7067C25.6658 52.3067 25.3658 52.6067 25.0658 52.6067Z" fill="#316146"/>
<path d="M74.2664 52.6067C73.6664 52.6067 73.3664 52.3067 73.6664 51.7067C73.6664 51.1067 73.6664 50.2067 73.6664 49.6067C73.6664 43.0067 70.9664 36.7067 66.1664 32.2067C65.8664 31.9067 65.8664 31.3067 66.1664 31.0067C66.4664 30.7067 67.0664 30.7067 67.3664 31.0067C72.4664 35.8067 75.4664 42.4067 75.4664 49.6067C75.4664 50.5067 75.4664 51.1067 75.4664 52.0067C74.8664 52.3067 74.5664 52.6067 74.2664 52.6067Z" fill="#316146"/>
</svg>
