<svg width="99" height="99" viewBox="0 0 99 99" fill="none" xmlns="http://www.w3.org/2000/svg">
<circle cx="49.333" cy="49.6069" r="49" fill="white"/>
<path d="M52.3334 69.4067L41.2334 70.9067L42.7334 59.8067L71.2334 31.3067C73.9334 28.6067 78.1334 28.6067 80.8334 31.3067C83.5334 34.0067 83.5334 38.2067 80.8334 40.9067L52.3334 69.4067Z" fill="#CFD762"/>
<path d="M41.233 71.8069C40.933 71.8069 40.933 71.8069 40.633 71.5069C40.333 71.2069 40.333 71.2069 40.333 70.9069L41.833 59.8069C41.833 59.5069 41.833 59.5069 42.133 59.5069L70.633 31.0069C72.433 29.5069 74.233 28.6069 76.333 28.6069C78.433 28.6069 80.233 29.5069 81.733 30.7069C83.233 31.9069 83.833 34.0069 83.833 36.1069C83.833 38.2069 82.933 40.0069 81.733 41.5069L53.233 70.0069L52.933 70.3069L41.233 71.8069C41.533 71.8069 41.233 71.8069 41.233 71.8069ZM43.633 60.4069L42.133 70.3069L52.033 68.8069L80.533 40.3069C81.733 39.1069 82.333 37.6069 82.333 36.1069C82.333 34.6069 81.733 33.1069 80.533 31.9069C78.133 29.5069 74.533 29.5069 72.133 31.9069L43.633 60.4069Z" fill="#316146"/>
<path d="M31.3326 15.707H49.3326C50.5326 15.707 51.7326 16.607 51.7326 18.107V22.607C51.7326 23.807 50.8326 25.007 49.3326 25.007H31.3326C30.1326 24.707 28.9326 23.807 28.9326 22.607V18.107C28.9326 16.907 30.1326 15.707 31.3326 15.707Z" fill="#CFD762"/>
<path d="M49.333 25.6069H31.333C29.533 25.6069 28.333 24.4069 28.333 22.6069V18.1069C28.333 16.3069 29.533 15.1069 31.333 15.1069H49.333C51.133 15.1069 52.333 16.3069 52.333 18.1069V22.6069C52.333 24.4069 51.133 25.6069 49.333 25.6069ZM31.333 16.6069C30.433 16.6069 29.833 17.2069 29.833 18.1069V22.6069C29.833 23.5069 30.433 24.1069 31.333 24.1069H49.333C50.233 24.1069 50.833 23.5069 50.833 22.6069V18.1069C50.833 17.2069 50.233 16.6069 49.333 16.6069H31.333Z" fill="#316146"/>
<path d="M64.9328 25.6069C64.6328 25.6069 64.3328 25.3069 64.3328 24.7069C64.3328 22.6069 62.5328 21.1069 60.7328 21.1069H51.7328C51.4328 21.1069 51.1328 20.8069 51.1328 20.5069C51.1328 20.2069 51.1328 19.6069 51.7328 19.6069H60.7328C63.7328 19.6069 66.1328 22.0069 66.1328 25.0069C65.8328 25.3069 65.5328 25.6069 64.9328 25.6069Z" fill="#316146"/>
<path d="M60.7332 84.1071H19.9332C16.9332 84.1071 14.5332 81.7071 14.5332 78.7071V24.7071C14.5332 21.7071 16.9332 19.3071 19.9332 19.3071H28.9332C29.2332 19.3071 29.5332 19.6071 29.5332 19.9071C29.5332 20.2071 29.5332 21.1071 28.9332 21.1071H19.9332C18.1332 21.1071 16.3332 22.9071 16.3332 24.7071V78.7071C16.3332 80.8071 18.1332 82.6071 19.9332 82.6071H60.4332C62.5332 82.6071 64.0332 80.8071 64.0332 79.0071V70.0071C64.0332 69.7071 64.3332 69.4071 64.6332 69.4071C64.9332 69.4071 65.2332 69.7071 65.2332 70.0071V79.0071C65.8332 81.7071 63.4332 84.1071 60.7332 84.1071Z" fill="#316146"/>
<path d="M51.733 39.1069H28.933C28.633 39.1069 28.333 38.8069 28.333 38.2069C28.333 37.6069 28.633 37.6069 28.933 37.6069H51.433C52.033 37.6069 52.333 37.9069 52.333 38.2069C52.333 38.5069 52.033 39.1069 51.733 39.1069Z" fill="#316146"/>
<path d="M37.933 52.6069H28.933C28.633 52.6069 28.333 52.3069 28.333 51.7069C28.333 51.1069 28.633 51.1069 28.933 51.1069H37.933C38.233 51.1069 38.533 51.4069 38.533 51.7069C38.533 52.0069 38.533 52.6069 37.933 52.6069Z" fill="#316146"/>
</svg>
