<svg width="73" height="73" viewBox="0 0 73 73" fill="none" xmlns="http://www.w3.org/2000/svg">
<path d="M60.1415 24.3836L60.6103 23.9147C60.9787 23.5463 60.9787 22.9436 60.6103 22.5752L59.0866 21.0515C58.7182 20.6831 58.1154 20.6831 57.747 21.0515L57.2782 21.5203L56.9768 21.2189C56.5749 20.8338 55.9387 20.8338 55.5536 21.2189L51.3005 25.4719V11.658C51.3005 11.1054 50.8484 10.6533 50.2959 10.6533H12.4373C11.8847 10.6533 11.4326 11.1054 11.4326 11.658V61.5556C11.4326 62.1082 11.8847 62.5603 12.4373 62.5603H50.2959C50.8484 62.5603 51.3005 62.125 51.3005 61.5556V35.418L60.5266 26.1752C60.7275 25.991 60.828 25.7231 60.828 25.4719C60.828 25.2208 60.7108 24.9529 60.5266 24.7687L60.1415 24.3836ZM49.2912 60.551H13.4419V12.6626H49.2912V27.4812L31.9777 44.7947C31.7768 44.9789 31.6429 45.2301 31.6261 45.5147L31.4252 49.4329C31.4084 49.7343 31.5089 50.0189 31.7266 50.2198C31.9275 50.404 32.1787 50.5045 32.4298 50.5045H32.5135L36.281 50.1361C36.5154 50.1194 36.7331 50.0189 36.9005 49.8515L49.2912 37.4273V60.551ZM35.7284 48.177L33.4847 48.3947L33.6187 46.0338L50.9322 28.7203L51.0829 28.5696L56.2568 23.3789L58.4001 25.5054L35.7284 48.177Z" fill="currentColor"/>
</svg>
