<svg width="73" height="73" viewBox="0 0 73 73" fill="none" xmlns="http://www.w3.org/2000/svg">
<path d="M32.319 58.0865C25.5527 58.0865 19.1916 55.451 14.4078 50.6672C4.53205 40.7914 4.53205 24.7204 14.4078 14.8446C19.1916 10.0608 25.5527 7.42529 32.319 7.42529C39.0854 7.42529 45.4465 10.0608 50.2303 14.8446C60.106 24.7204 60.106 40.7914 50.2303 50.6672C45.4465 55.451 39.0854 58.0865 32.319 58.0865ZM32.319 9.47646C26.1002 9.47646 20.2548 11.8977 15.8578 16.2947C6.78079 25.3717 6.78079 40.1401 15.8578 49.2171C20.2548 53.6141 26.1002 56.0353 32.319 56.0353C38.5378 56.0353 44.3832 53.6141 48.7802 49.2171C57.8573 40.1401 57.8573 25.3717 48.7802 16.2947C44.3849 11.8977 38.5378 9.47646 32.319 9.47646Z" fill="currentColor"/>
<path d="M14.0813 26.3664C13.9491 26.3664 13.8134 26.3413 13.6828 26.2894C13.137 26.0683 12.8724 25.4471 13.0918 24.9013C14.1266 22.3361 15.652 20.0337 17.6244 18.0613C19.9519 15.7338 22.8302 13.9824 25.948 12.9961C26.5089 12.8187 27.1083 13.1301 27.2875 13.691C27.465 14.252 27.1535 14.8514 26.5926 15.0306C23.7595 15.9281 21.2495 17.4551 19.1331 19.5716C17.3649 21.3398 15.9969 23.4027 15.0709 25.7C14.9035 26.1135 14.5033 26.3664 14.0813 26.3664Z" fill="currentColor"/>
<path d="M64.65 65.9949C64.3386 65.9949 64.0271 65.8777 63.7877 65.6416L49.0444 51.1512C48.5588 50.674 48.5521 49.8954 49.0293 49.4115C49.5065 48.9276 50.2852 48.9192 50.7691 49.3964L65.5123 63.8868C65.9979 64.364 66.0046 65.1426 65.5274 65.6265C65.288 65.871 64.9698 65.9949 64.65 65.9949Z" fill="currentColor"/>
</svg>
