<svg width="50" height="50" viewBox="13 5 55 55" fill="none" xmlns="http://www.w3.org/2000/svg">
<g filter="url(#filter0_d_8646_47287)">
<circle cx="41" cy="33" r="25" fill="white"/>
</g>
<path fill-rule="evenodd" clip-rule="evenodd" d="M44.8239 54.6688C55.1514 52.8589 63 43.846 63 33C63 20.8497 53.1503 11 41 11V33L44.8239 54.6688Z" fill="#404B9A"/>
<path d="M44.8239 54.6688L44.3315 54.7557L44.4183 55.2476L44.9102 55.1613L44.8239 54.6688ZM41 11V10.5H40.5V11H41ZM41 33H40.5V33.0438L40.5076 33.0869L41 33ZM62.5 33C62.5 43.599 54.83 52.4076 44.7376 54.1764L44.9102 55.1613C55.4728 53.3102 63.5 44.093 63.5 33H62.5ZM41 11.5C52.8741 11.5 62.5 21.1259 62.5 33H63.5C63.5 20.5736 53.4264 10.5 41 10.5V11.5ZM41.5 33V11H40.5V33H41.5ZM45.3163 54.582L41.4924 32.9131L40.5076 33.0869L44.3315 54.7557L45.3163 54.582Z" fill="white"/>
<path fill-rule="evenodd" clip-rule="evenodd" d="M20.3177 25.4785L41 32.9957L44.9362 54.6445C43.6632 54.8745 42.3521 54.9949 41.0131 54.9957H40.9869C28.8549 54.9886 19.0198 45.1614 19 33.0324V32.9589C19.0043 30.332 19.469 27.8131 20.3177 25.4785Z" fill="#E57D57"/>
<path d="M20.3177 25.4785L20.4885 25.0086L20.0186 24.8378L19.8478 25.3077L20.3177 25.4785ZM41 32.9957L41.4919 32.9062L41.4406 32.6238L41.1708 32.5258L41 32.9957ZM44.9362 54.6445L45.025 55.1366L45.5176 55.0476L45.4281 54.5551L44.9362 54.6445ZM41.0131 54.9957V55.4957H41.0134L41.0131 54.9957ZM40.9869 54.9957L40.9866 55.4957H40.9869V54.9957ZM19 33.0324H18.5L18.5 33.0332L19 33.0324ZM19 32.9589L18.5 32.9581V32.9589H19ZM20.1469 25.9484L40.8292 33.4656L41.1708 32.5258L20.4885 25.0086L20.1469 25.9484ZM40.508 33.0851L44.4442 54.734L45.4281 54.5551L41.4919 32.9062L40.508 33.0851ZM44.8473 54.1525C43.6034 54.3772 42.322 54.4949 41.0128 54.4957L41.0134 55.4957C42.3822 55.4949 43.723 55.3718 45.025 55.1366L44.8473 54.1525ZM41.0131 54.4957H40.9869V55.4957H41.0131V54.4957ZM40.9872 54.4957C29.1309 54.4888 19.5194 44.8849 19.5 33.0316L18.5 33.0332C18.5203 45.4379 28.5789 55.4884 40.9866 55.4957L40.9872 54.4957ZM19.5 33.0324V32.9589H18.5V33.0324H19.5ZM19.5 32.9597C19.5042 30.3917 19.9584 27.9302 20.7876 25.6493L19.8478 25.3077C18.9796 27.696 18.5044 30.2724 18.5 32.9581L19.5 32.9597Z" fill="white"/>
<path fill-rule="evenodd" clip-rule="evenodd" d="M20.3184 25.4789C23.3446 17.1546 31.2533 11.1741 40.5819 11H41.0006V32.9961L20.3184 25.4789Z" fill="#E7C343"/>
<path d="M20.3184 25.4789L19.8484 25.3081L19.6776 25.778L20.1476 25.9489L20.3184 25.4789ZM40.5819 11V10.4999L40.5726 10.5001L40.5819 11ZM41.0006 11H41.5006V10.5H41.0006V11ZM41.0006 32.9961L40.8298 33.466L41.5006 33.7098V32.9961H41.0006ZM20.7883 25.6498C23.746 17.5139 31.4757 11.6701 40.5913 11.4999L40.5726 10.5001C31.031 10.6782 22.9432 16.7953 19.8484 25.3081L20.7883 25.6498ZM41.0006 10.5H40.5819V11.5H41.0006V10.5ZM41.5006 32.9961V11H40.5006V32.9961H41.5006ZM20.1476 25.9489L40.8298 33.466L41.1714 32.5262L20.4892 25.009L20.1476 25.9489Z" fill="white"/>
<circle cx="41" cy="33" r="17" fill="white"/>
<path d="M40.897 28.12C41.3917 28.12 41.8397 28.19 42.241 28.33C42.6424 28.4607 42.9924 28.6753 43.291 28.974C43.599 29.2633 43.837 29.6507 44.005 30.136L42.381 30.892C42.269 30.528 42.0824 30.2433 41.821 30.038C41.569 29.8233 41.219 29.716 40.771 29.716C40.4537 29.716 40.169 29.7907 39.917 29.94C39.6744 30.0893 39.4644 30.304 39.287 30.584C39.1097 30.864 38.9744 31.2 38.881 31.592C38.7877 31.9747 38.741 32.3993 38.741 32.866C38.741 32.894 38.741 32.9267 38.741 32.964C38.741 32.992 38.741 33.0387 38.741 33.104L38.783 33.16C38.8857 32.8333 39.063 32.5627 39.315 32.348C39.5764 32.1333 39.8657 31.9747 40.183 31.872C40.5097 31.7693 40.8317 31.718 41.149 31.718C41.737 31.718 42.255 31.8347 42.703 32.068C43.1604 32.292 43.515 32.6187 43.767 33.048C44.0284 33.4773 44.159 33.9907 44.159 34.588C44.159 35.204 44.019 35.7453 43.739 36.212C43.4684 36.6693 43.081 37.024 42.577 37.276C42.0824 37.5187 41.4897 37.64 40.799 37.64C40.015 37.64 39.3337 37.4533 38.755 37.08C38.1857 36.7067 37.7424 36.17 37.425 35.47C37.117 34.77 36.963 33.9253 36.963 32.936C36.963 31.8627 37.1357 30.9713 37.481 30.262C37.8264 29.5433 38.2977 29.0067 38.895 28.652C39.4924 28.2973 40.1597 28.12 40.897 28.12ZM40.771 33.132C40.463 33.132 40.1924 33.1973 39.959 33.328C39.7257 33.4493 39.539 33.622 39.399 33.846C39.259 34.0607 39.189 34.3127 39.189 34.602C39.189 34.8913 39.259 35.148 39.399 35.372C39.5484 35.596 39.7397 35.7733 39.973 35.904C40.2157 36.0347 40.4817 36.1 40.771 36.1C41.2657 36.1 41.6484 35.9693 41.919 35.708C42.199 35.4467 42.339 35.078 42.339 34.602C42.339 34.3033 42.2784 34.042 42.157 33.818C42.0357 33.594 41.8584 33.426 41.625 33.314C41.3917 33.1927 41.107 33.132 40.771 33.132Z" fill="black"/>
</svg>
