<svg width="46" height="32" viewBox="0 0 46 32" fill="none" xmlns="http://www.w3.org/2000/svg">
<path d="M3 1L2 2L21.8375 16.1697C22.5329 16.6664 23.4671 16.6664 24.1625 16.1697L44 2L43 1H3Z" fill="#CFD762"/>
<path fill-rule="evenodd" clip-rule="evenodd" d="M0 4C0 2.067 1.567 0.5 3.5 0.5H42.5C44.433 0.5 46 2.067 46 4V28C46 29.933 44.433 31.5 42.5 31.5H3.5C1.567 31.5 0 29.933 0 28V4ZM3.5 1.5C2.11929 1.5 1 2.61929 1 4V28C1 29.3807 2.11929 30.5 3.5 30.5H42.5C43.8807 30.5 45 29.3807 45 28V4C45 2.61929 43.8807 1.5 42.5 1.5H3.5Z" fill="#316146"/>
<path fill-rule="evenodd" clip-rule="evenodd" d="M30.374 11.95L38 19L30.374 11.95Z" fill="#CFD762"/>
<path fill-rule="evenodd" clip-rule="evenodd" d="M30.0069 11.6105C30.1943 11.4078 30.5107 11.3954 30.7134 11.5828L38.3394 18.6328C38.5422 18.8203 38.5546 19.1366 38.3672 19.3394C38.1797 19.5421 37.8634 19.5546 37.6606 19.3671L30.0346 12.3171C29.8318 12.1296 29.8194 11.8133 30.0069 11.6105Z" fill="#316146"/>
<path fill-rule="evenodd" clip-rule="evenodd" d="M15.626 11.95L8 19L15.626 11.95Z" fill="#CFD762"/>
<path fill-rule="evenodd" clip-rule="evenodd" d="M15.9931 11.6105C16.1806 11.8133 16.1682 12.1296 15.9654 12.3171L8.33942 19.3671C8.13665 19.5546 7.82031 19.5421 7.63286 19.3394C7.4454 19.1366 7.45782 18.8203 7.66059 18.6328L15.2866 11.5828C15.4894 11.3954 15.8057 11.4078 15.9931 11.6105Z" fill="#316146"/>
<path fill-rule="evenodd" clip-rule="evenodd" d="M0.828416 1.74415C0.98518 1.51682 1.29655 1.45962 1.52388 1.61638L20.5499 14.7364L20.5501 14.7365C22.0247 15.7547 23.9753 15.7547 25.45 14.7365L25.4502 14.7364L44.4762 1.61638C44.7035 1.45962 45.0149 1.51682 45.1717 1.74415C45.3284 1.97149 45.2712 2.28286 45.0439 2.43962L26.0181 15.5595C24.2015 16.8137 21.7986 16.8137 19.982 15.5595L0.95619 2.43962C0.728858 2.28286 0.671652 1.97149 0.828416 1.74415Z" fill="#316146"/>
</svg>
