<svg width="48" height="48" viewBox="0 0 48 48" fill="none" xmlns="http://www.w3.org/2000/svg">
<path d="M36.7998 34.4C35.1998 36 32.9998 36.6 30.7998 36.2C29.3998 35.8 28.1998 34.8 27.1998 33.8L14.5998 21.2C13.5998 20.2 12.5998 19 12.1998 17.6C11.7998 15.4 12.3998 13.2 13.9998 11.6L14.9998 10.6C15.1998 10.2 15.7998 10 16.3998 10C16.9998 10 17.9998 10.6 17.9998 10.6L21.7998 14.4C22.5998 15.2 22.5998 16.6 21.7998 17.4C20.9998 18.2 20.9998 19.6 21.7998 20.4L27.7998 26.4C28.5998 27.2 29.9998 27.2 30.7998 26.4C31.5998 25.6 32.9998 25.6 33.7998 26.4L37.5998 30.2C38.3998 31 38.3998 32.4 37.5998 33.2L36.7998 34.4Z" fill="#CFD762"/>
<path d="M32.1999 36.8C31.5999 36.8 31.1999 36.8 30.5999 36.6C28.9999 36.2 27.7999 35.2 26.7999 34L14.1999 21.4C13.1999 20.4 11.9999 19.2 11.5999 17.6C11.1999 15.4 11.7999 12.8 13.5999 11.2L14.5999 10.2C14.9999 9.80002 15.7999 9.40002 16.3999 9.40002C16.9999 9.40002 17.9999 10 18.1999 10.2L21.9999 14C22.9999 15 22.9999 16.8 21.9999 17.8C21.3999 18.4 21.3999 19.4 21.9999 20.2L27.9999 26.2C28.5999 26.8 29.5999 26.8 30.3999 26.2C31.3999 25.2 33.1999 25.2 34.1999 26.2L37.9999 30C38.9999 31 38.9999 32.8 37.9999 33.8L36.9999 34.8C35.7999 36 33.9999 36.8 32.1999 36.8ZM16.3999 10.4C15.9999 10.4 15.5999 10.6 15.1999 10.8L14.1999 11.8C12.7999 13.2 12.1999 15.4 12.5999 17.4C12.7999 18.6 13.7999 19.8 14.7999 20.8L27.3999 33.4C28.3999 34.4 29.3999 35.4 30.7999 35.6C32.7999 36 34.7999 35.4 36.3999 34L37.3999 33C37.7999 32.6 37.7999 32.2 37.7999 31.8C37.7999 31.4 37.5999 31 37.3999 30.6L33.5999 26.8C32.9999 26.2 31.7999 26.2 31.1999 26.8C30.1999 27.8 28.3999 27.8 27.3999 26.8L21.3999 20.8C20.3999 19.8 20.3999 18 21.3999 17C21.9999 16.4 21.9999 15.4 21.3999 14.6L17.3999 11C17.1999 10.8 16.5999 10.4 16.3999 10.4Z" fill="#316146"/>
<path d="M23.9999 47C13.1999 47 3.99994 39.8 1.59994 29.2C-0.800062 18.8 4.19994 8.19998 13.5999 3.39998C23.1999 -1.40002 34.5999 0.999984 41.5999 9.19998C48.3999 17.4 48.7999 29.2 42.3999 37.8C42.1999 38 41.9999 38 41.5999 38C41.3999 37.8 41.3999 37.6 41.5999 37.2C47.7999 29 47.3999 17.8 40.7999 9.99998C34.3999 1.99998 23.3999 -0.200016 14.1999 4.39998C4.99994 8.99998 0.199938 19.2 2.59994 29.2C4.99994 39 13.7999 46 23.9999 46C28.5999 46 32.1999 44.8 33.5999 42.4C34.7999 40.8 34.7999 38.4 33.7999 36C33.7999 35.8 33.7999 35.4 33.9999 35.4C34.1999 35.2 34.5999 35.4 34.5999 35.6C35.7999 38.4 35.5999 41 34.1999 43C32.7999 45.6 28.9999 47 23.9999 47Z" fill="#316146"/>
</svg>
