<svg width="18" height="18" viewBox="0 0 18 18" fill="none" xmlns="http://www.w3.org/2000/svg">
<path fill-rule="evenodd" clip-rule="evenodd" d="M3 0.5C3.27614 0.5 3.5 0.723858 3.5 1V10.55C4.64112 10.7816 5.5 11.7905 5.5 13C5.5 14.2095 4.64112 15.2184 3.5 15.45V17C3.5 17.2761 3.27614 17.5 3 17.5C2.72386 17.5 2.5 17.2761 2.5 17V15.45C1.35888 15.2184 0.5 14.2095 0.5 13C0.5 11.7905 1.35888 10.7816 2.5 10.55V1C2.5 0.723858 2.72386 0.5 3 0.5ZM9 0.5C9.27614 0.5 9.5 0.723858 9.5 1V2.55001C10.6411 2.78164 11.5 3.79052 11.5 5C11.5 6.20948 10.6411 7.21836 9.5 7.44999V17C9.5 17.2761 9.27614 17.5 9 17.5C8.72386 17.5 8.5 17.2761 8.5 17V7.44999C7.35888 7.21836 6.5 6.20948 6.5 5C6.5 3.79052 7.35888 2.78164 8.5 2.55001V1C8.5 0.723858 8.72386 0.5 9 0.5ZM15 0.5C15.2761 0.5 15.5 0.723858 15.5 1V10.55C16.6411 10.7816 17.5 11.7905 17.5 13C17.5 14.2095 16.6411 15.2184 15.5 15.45V17C15.5 17.2761 15.2761 17.5 15 17.5C14.7239 17.5 14.5 17.2761 14.5 17V15.45C13.3589 15.2184 12.5 14.2095 12.5 13C12.5 11.7905 13.3589 10.7816 14.5 10.55V1C14.5 0.723858 14.7239 0.5 15 0.5ZM9 3.5C8.17157 3.5 7.5 4.17157 7.5 5C7.5 5.82843 8.17157 6.5 9 6.5C9.82843 6.5 10.5 5.82843 10.5 5C10.5 4.17157 9.82843 3.5 9 3.5ZM3 11.5C2.17157 11.5 1.5 12.1716 1.5 13C1.5 13.8284 2.17157 14.5 3 14.5C3.82843 14.5 4.5 13.8284 4.5 13C4.5 12.1716 3.82843 11.5 3 11.5ZM15 11.5C14.1716 11.5 13.5 12.1716 13.5 13C13.5 13.8284 14.1716 14.5 15 14.5C15.8284 14.5 16.5 13.8284 16.5 13C16.5 12.1716 15.8284 11.5 15 11.5Z" fill="white"/>
</svg>
