<svg width="77" height="77" viewBox="0 0 77 77" fill="none" xmlns="http://www.w3.org/2000/svg">
<path d="M33.3158 66.2443C24.5759 66.2443 16.3595 62.84 10.1804 56.661C-2.57575 43.9048 -2.57575 23.1463 10.1804 10.3902C16.3595 4.21112 24.5759 0.806885 33.3158 0.806885C42.0556 0.806885 50.272 4.21112 56.4511 10.3902C69.2073 23.1463 69.2073 43.9048 56.4511 56.661C50.272 62.84 42.0556 66.2443 33.3158 66.2443ZM33.3158 3.4563C25.2832 3.4563 17.7329 6.5837 12.0534 12.2632C0.328875 23.9877 0.328875 43.0635 12.0534 54.788C17.7329 60.4675 25.2832 63.5949 33.3158 63.5949C41.3484 63.5949 48.8987 60.4675 54.5782 54.788C66.3027 43.0635 66.3027 23.9877 54.5782 12.2632C48.9008 6.5837 41.3484 3.4563 33.3158 3.4563Z" fill="#316146"/>
<path d="M9.75868 25.2723C9.58782 25.2723 9.41263 25.2399 9.24393 25.1729C8.53886 24.8874 8.19714 24.085 8.48047 23.3799C9.81707 20.0665 11.7874 17.0927 14.3351 14.5449C17.3414 11.5386 21.0593 9.27634 25.0864 8.00245C25.8109 7.7732 26.5852 8.17548 26.8166 8.90001C27.0459 9.62455 26.6436 10.3988 25.9191 10.6302C22.2596 11.7895 19.0176 13.762 16.2838 16.4957C13.9999 18.7796 12.2329 21.4442 11.0369 24.4116C10.8206 24.9458 10.3037 25.2723 9.75868 25.2723Z" fill="#CFD762"/>
<path d="M75.0772 76.4592C74.6749 76.4592 74.2727 76.3078 73.9634 76.0028L54.92 57.286C54.2928 56.6696 54.2841 55.6639 54.9005 55.0389C55.5169 54.4138 56.5226 54.403 57.1477 55.0194L76.1911 73.7362C76.8183 74.3526 76.8269 75.3583 76.2105 75.9833C75.9012 76.2991 75.4903 76.4592 75.0772 76.4592Z" fill="#316146"/>
</svg>
