<svg width="19" height="23" viewBox="0 0 19 23" fill="none" xmlns="http://www.w3.org/2000/svg">
<path d="M19 9.40689C19 14.6022 10.3555 22.5093 9.5 22.5093C8.6445 22.5093 0 14.6022 0 9.40689C0 4.21161 4.25329 0 9.5 0C14.7467 0 19 4.21161 19 9.40689Z" fill=""/>
<path fill-rule="evenodd" clip-rule="evenodd" d="M13.6274 6.34151C13.9911 6.75715 13.949 7.38891 13.5334 7.75259L9.13346 11.6025L8.42938 12.2186L7.76785 11.557L5.29289 9.08209C4.90237 8.69157 4.90237 8.05841 5.29289 7.66788C5.68342 7.27736 6.31658 7.27736 6.70711 7.66788L8.52052 9.4813L12.2164 6.24744C12.632 5.88375 13.2638 5.92587 13.6274 6.34151Z" fill="white"/>
<path fill-rule="evenodd" clip-rule="evenodd" d="M13.6274 6.34151C13.9911 6.75715 13.949 7.38891 13.5334 7.75259L9.13346 11.6025L8.42938 12.2186L7.76785 11.557L5.29289 9.08209C4.90237 8.69157 4.90237 8.05841 5.29289 7.66788C5.68342 7.27736 6.31658 7.27736 6.70711 7.66788L8.52052 9.4813L12.2164 6.24744C12.632 5.88375 13.2638 5.92587 13.6274 6.34151Z" fill="white"/>
</svg>
